STARTFONT 2.1
COMMENT
COMMENT Converted from OpenType font "A-OTF-ShinGoPro-Regular.otf" by "otf2bdf 3.0".
COMMENT
FONT -FreeType-A OTF Shin Go Pro R-Medium-R-Normal--24-240-72-72-P-214-ISO10646-1
SIZE 24 72 72
FONTBOUNDINGBOX 30 29 -6 -4
STARTPROPERTIES 19
FOUNDRY "FreeType"
FAMILY_NAME "A OTF Shin Go Pro R"
WEIGHT_NAME "Medium"
SLANT "R"
SETWIDTH_NAME "Normal"
ADD_STYLE_NAME ""
PIXEL_SIZE 24
POINT_SIZE 240
RESOLUTION_X 72
RESOLUTION_Y 72
SPACING "P"
AVERAGE_WIDTH 214
CHARSET_REGISTRY "ISO10646"
CHARSET_ENCODING "1"
FONT_ASCENT 21
FONT_DESCENT 2
COPYRIGHT "Font © Copyright 2002 Morisawa and Company Limited. All rights reserved."
_OTF_FONTFILE "A-OTF-ShinGoPro-Regular.otf"
_OTF_PSNAME "ShinGoPro-Regular"
ENDPROPERTIES
CHARS 9804
STARTCHAR 0000
ENCODING 0
SWIDTH 333 0
DWIDTH 8 0
BBX 0 0 0 0
BITMAP
ENDCHAR
STARTCHAR 0001
ENCODING 1
SWIDTH 333 0
DWIDTH 8 0
BBX 0 0 0 0
BITMAP
ENDCHAR
STARTCHAR 0002
ENCODING 2
SWIDTH 333 0
DWIDTH 8 0
BBX 0 0 0 0
BITMAP
ENDCHAR
STARTCHAR 0003
ENCODING 3
SWIDTH 333 0
DWIDTH 8 0
BBX 0 0 0 0
BITMAP
ENDCHAR
STARTCHAR 0004
ENCODING 4
SWIDTH 333 0
DWIDTH 8 0
BBX 0 0 0 0
BITMAP
ENDCHAR
STARTCHAR 0005
ENCODING 5
SWIDTH 333 0
DWIDTH 8 0
BBX 0 0 0 0
BITMAP
ENDCHAR
STARTCHAR 0006
ENCODING 6
SWIDTH 333 0
DWIDTH 8 0
BBX 0 0 0 0
BITMAP
ENDCHAR
STARTCHAR 0007
ENCODING 7
SWIDTH 333 0
DWIDTH 8 0
BBX 0 0 0 0
BITMAP
ENDCHAR
STARTCHAR 0008
ENCODING 8
SWIDTH 333 0
DWIDTH 8 0
BBX 0 0 0 0
BITMAP
ENDCHAR
STARTCHAR 0009
ENCODING 9
SWIDTH 333 0
DWIDTH 8 0
BBX 0 0 0 0
BITMAP
ENDCHAR
STARTCHAR 000A
ENCODING 10
SWIDTH 333 0
DWIDTH 8 0
BBX 0 0 0 0
BITMAP
ENDCHAR
STARTCHAR 000B
ENCODING 11
SWIDTH 333 0
DWIDTH 8 0
BBX 0 0 0 0
BITMAP
ENDCHAR
STARTCHAR 000C
ENCODING 12
SWIDTH 333 0
DWIDTH 8 0
BBX 0 0 0 0
BITMAP
ENDCHAR
STARTCHAR 000D
ENCODING 13
SWIDTH 333 0
DWIDTH 8 0
BBX 0 0 0 0
BITMAP
ENDCHAR
STARTCHAR 000E
ENCODING 14
SWIDTH 333 0
DWIDTH 8 0
BBX 0 0 0 0
BITMAP
ENDCHAR
STARTCHAR 000F
ENCODING 15
SWIDTH 333 0
DWIDTH 8 0
BBX 0 0 0 0
BITMAP
ENDCHAR
STARTCHAR 0010
ENCODING 16
SWIDTH 333 0
DWIDTH 8 0
BBX 0 0 0 0
BITMAP
ENDCHAR
STARTCHAR 0011
ENCODING 17
SWIDTH 333 0
DWIDTH 8 0
BBX 0 0 0 0
BITMAP
ENDCHAR
STARTCHAR 0012
ENCODING 18
SWIDTH 333 0
DWIDTH 8 0
BBX 0 0 0 0
BITMAP
ENDCHAR
STARTCHAR 0013
ENCODING 19
SWIDTH 333 0
DWIDTH 8 0
BBX 0 0 0 0
BITMAP
ENDCHAR
STARTCHAR 0014
ENCODING 20
SWIDTH 333 0
DWIDTH 8 0
BBX 0 0 0 0
BITMAP
ENDCHAR
STARTCHAR 0015
ENCODING 21
SWIDTH 333 0
DWIDTH 8 0
BBX 0 0 0 0
BITMAP
ENDCHAR
STARTCHAR 0016
ENCODING 22
SWIDTH 333 0
DWIDTH 8 0
BBX 0 0 0 0
BITMAP
ENDCHAR
STARTCHAR 0017
ENCODING 23
SWIDTH 333 0
DWIDTH 8 0
BBX 0 0 0 0
BITMAP
ENDCHAR
STARTCHAR 0018
ENCODING 24
SWIDTH 333 0
DWIDTH 8 0
BBX 0 0 0 0
BITMAP
ENDCHAR
STARTCHAR 0019
ENCODING 25
SWIDTH 333 0
DWIDTH 8 0
BBX 0 0 0 0
BITMAP
ENDCHAR
STARTCHAR 001A
ENCODING 26
SWIDTH 333 0
DWIDTH 8 0
BBX 0 0 0 0
BITMAP
ENDCHAR
STARTCHAR 001B
ENCODING 27
SWIDTH 333 0
DWIDTH 8 0
BBX 0 0 0 0
BITMAP
ENDCHAR
STARTCHAR 001C
ENCODING 28
SWIDTH 333 0
DWIDTH 8 0
BBX 0 0 0 0
BITMAP
ENDCHAR
STARTCHAR 001D
ENCODING 29
SWIDTH 333 0
DWIDTH 8 0
BBX 0 0 0 0
BITMAP
ENDCHAR
STARTCHAR 001E
ENCODING 30
SWIDTH 333 0
DWIDTH 8 0
BBX 0 0 0 0
BITMAP
ENDCHAR
STARTCHAR 001F
ENCODING 31
SWIDTH 333 0
DWIDTH 8 0
BBX 0 0 0 0
BITMAP
ENDCHAR
STARTCHAR 0020
ENCODING 32
SWIDTH 333 0
DWIDTH 8 0
BBX 0 0 0 0
BITMAP
ENDCHAR
STARTCHAR 0021
ENCODING 33
SWIDTH 333 0
DWIDTH 8 0
BBX 3 19 2 0
BITMAP
60
60
60
60
60
60
60
60
60
60
60
60
60
60
00
00
E0
E0
E0
ENDCHAR
STARTCHAR 0022
ENCODING 34
SWIDTH 333 0
DWIDTH 8 0
BBX 6 6 1 13
BITMAP
DC
CC
C8
C8
C8
C8
ENDCHAR
STARTCHAR 0023
ENCODING 35
SWIDTH 666 0
DWIDTH 16 0
BBX 15 19 1 0
BITMAP
0610
0610
0430
0430
7FFE
7FFE
7FFE
0C20
0860
0860
0840
0840
FFF8
FFF8
FFF8
1080
1080
1080
3080
ENDCHAR
STARTCHAR 0024
ENCODING 36
SWIDTH 750 0
DWIDTH 18 0
BBX 16 23 1 -2
BITMAP
0180
0180
0FF0
3FFC
719C
618E
6186
6186
6180
7180
3FF8
1FFC
018E
0187
0187
E187
6187
6187
798E
3FFC
0FF0
0180
0180
ENDCHAR
STARTCHAR 0025
ENCODING 37
SWIDTH 1000 0
DWIDTH 24 0
BBX 22 19 1 0
BITMAP
3E0180
7F0100
C18300
C18600
C18600
C18C00
C18C00
C19800
C199F0
7F33F8
3E660C
00660C
00C60C
00C60C
01860C
01860C
03060C
0203F8
0601F0
ENDCHAR
STARTCHAR 0026
ENCODING 38
SWIDTH 833 0
DWIDTH 20 0
BBX 18 19 1 0
BITMAP
07F000
1FF800
1C1C00
380C00
300C00
380C00
180000
1C0000
1E0000
3F0000
718300
60C300
E06300
E03B00
E01F00
600F00
781F00
3FFF80
0FF1C0
ENDCHAR
STARTCHAR 0027
ENCODING 39
SWIDTH 208 0
DWIDTH 5 0
BBX 3 6 1 13
BITMAP
E0
C0
C0
40
40
40
ENDCHAR
STARTCHAR 0028
ENCODING 40
SWIDTH 375 0
DWIDTH 9 0
BBX 6 22 2 -3
BITMAP
0C
18
18
30
30
60
60
60
C0
C0
C0
C0
C0
E0
60
60
60
30
30
18
18
0C
ENDCHAR
STARTCHAR 0029
ENCODING 41
SWIDTH 375 0
DWIDTH 9 0
BBX 6 22 1 -3
BITMAP
C0
60
60
30
30
18
18
18
1C
0C
0C
0C
0C
1C
18
18
18
30
30
60
60
C0
ENDCHAR
STARTCHAR 002A
ENCODING 42
SWIDTH 458 0
DWIDTH 11 0
BBX 9 9 1 10
BITMAP
0800
0800
CB80
7E00
1C00
6F00
C900
0800
0800
ENDCHAR
STARTCHAR 002B
ENCODING 43
SWIDTH 750 0
DWIDTH 18 0
BBX 16 16 1 1
BITMAP
0180
0180
0180
0180
0180
0180
0180
FFFF
FFFF
0180
0180
0180
0180
0180
0180
0180
ENDCHAR
STARTCHAR 002C
ENCODING 44
SWIDTH 250 0
DWIDTH 6 0
BBX 2 5 2 -2
BITMAP
C0
C0
C0
40
C0
ENDCHAR
STARTCHAR 002D
ENCODING 45
SWIDTH 333 0
DWIDTH 8 0
BBX 6 2 1 6
BITMAP
FC
FC
ENDCHAR
STARTCHAR 002E
ENCODING 46
SWIDTH 250 0
DWIDTH 6 0
BBX 2 3 2 0
BITMAP
C0
C0
C0
ENDCHAR
STARTCHAR 002F
ENCODING 47
SWIDTH 500 0
DWIDTH 12 0
BBX 10 19 1 0
BITMAP
00C0
00C0
0180
0180
0300
0300
0600
0600
0400
0C00
0800
1800
1800
3000
3000
6000
6000
C000
C000
ENDCHAR
STARTCHAR 0030
ENCODING 48
SWIDTH 750 0
DWIDTH 18 0
BBX 16 19 1 0
BITMAP
0FF0
1FFC
381E
700E
6006
6007
6007
E007
E003
E003
E003
E003
6007
6007
6006
7006
381E
3FFC
0FF0
ENDCHAR
STARTCHAR 0031
ENCODING 49
SWIDTH 750 0
DWIDTH 18 0
BBX 6 19 5 0
BITMAP
FC
FC
0C
0C
0C
0C
0C
0C
0C
0C
0C
0C
0C
0C
0C
0C
0C
0C
0C
ENDCHAR
STARTCHAR 0032
ENCODING 50
SWIDTH 750 0
DWIDTH 18 0
BBX 15 19 2 0
BITMAP
0FE0
3FF8
703C
E00C
C00E
C00E
000E
000E
001C
007C
1FF0
7F80
7000
E000
C000
C000
C000
FFFE
FFFE
ENDCHAR
STARTCHAR 0033
ENCODING 51
SWIDTH 750 0
DWIDTH 18 0
BBX 15 19 2 0
BITMAP
0FE0
3FF8
703C
E00C
C00C
C00C
000C
001C
07F8
07F8
001C
000C
C00E
C00E
C00E
C00C
F03C
7FF8
1FE0
ENDCHAR
STARTCHAR 0034
ENCODING 52
SWIDTH 750 0
DWIDTH 18 0
BBX 17 19 1 0
BITMAP
003800
007800
00F800
01D800
039800
071800
061800
0C1800
1C1800
381800
701800
E01800
C01800
FFFF80
FFFF80
001800
001800
001800
001800
ENDCHAR
STARTCHAR 0035
ENCODING 53
SWIDTH 750 0
DWIDTH 18 0
BBX 15 19 2 0
BITMAP
FFFC
FFFC
C000
C000
C000
C000
CFE0
FFF8
F03C
E00C
000C
000E
000E
C00E
C00C
C00C
F03C
7FF8
1FE0
ENDCHAR
STARTCHAR 0036
ENCODING 54
SWIDTH 750 0
DWIDTH 18 0
BBX 15 19 2 0
BITMAP
0FE0
3FF8
703C
600C
E00C
C000
C000
CFE0
DFF8
F03C
E00C
C00E
C00E
C00E
C00E
E00C
701C
3FF8
1FE0
ENDCHAR
STARTCHAR 0037
ENCODING 55
SWIDTH 750 0
DWIDTH 18 0
BBX 16 19 1 0
BITMAP
FFFF
FFFF
0007
0006
000E
001C
0018
0038
0030
0070
00E0
00E0
01C0
0180
0380
0300
0700
0E00
0E00
ENDCHAR
STARTCHAR 0038
ENCODING 56
SWIDTH 750 0
DWIDTH 18 0
BBX 16 19 1 0
BITMAP
0FF0
3FFC
781E
6006
6006
6006
6006
380E
1FFC
3FFC
700E
6006
6007
E003
E007
6007
780E
3FFC
0FF0
ENDCHAR
STARTCHAR 0039
ENCODING 57
SWIDTH 750 0
DWIDTH 18 0
BBX 15 19 2 0
BITMAP
1FE0
3FF8
703C
E00C
C00C
C00E
C00E
C00E
E00E
703E
7FFE
1FCE
000E
000C
C00C
C00C
E038
7FF8
1FE0
ENDCHAR
STARTCHAR 003A
ENCODING 58
SWIDTH 250 0
DWIDTH 6 0
BBX 2 14 2 0
BITMAP
C0
C0
C0
00
00
00
00
00
00
00
00
C0
C0
C0
ENDCHAR
STARTCHAR 003B
ENCODING 59
SWIDTH 250 0
DWIDTH 6 0
BBX 2 16 2 -2
BITMAP
C0
C0
C0
00
00
00
00
00
00
00
00
C0
C0
C0
40
C0
ENDCHAR
STARTCHAR 003C
ENCODING 60
SWIDTH 833 0
DWIDTH 20 0
BBX 18 18 1 1
BITMAP
0001C0
000780
001E00
007800
00E000
038000
0E0000
3C0000
F00000
780000
1E0000
078000
01C000
007000
003C00
000F00
0003C0
000080
ENDCHAR
STARTCHAR 003D
ENCODING 61
SWIDTH 750 0
DWIDTH 18 0
BBX 16 7 1 6
BITMAP
FFFF
FFFF
0000
0000
0000
FFFF
FFFF
ENDCHAR
STARTCHAR 003E
ENCODING 62
SWIDTH 833 0
DWIDTH 20 0
BBX 18 19 1 0
BITMAP
800000
C00000
700000
3C0000
0F0000
03C000
00F000
003C00
000F00
0003C0
000780
001E00
007800
01E000
078000
1E0000
780000
E00000
800000
ENDCHAR
STARTCHAR 003F
ENCODING 63
SWIDTH 625 0
DWIDTH 15 0
BBX 13 19 1 0
BITMAP
1FC0
7FF0
7038
E038
E018
C018
0018
0038
00F0
01E0
0780
0600
0600
0600
0000
0000
0E00
0E00
0E00
ENDCHAR
STARTCHAR 0040
ENCODING 64
SWIDTH 875 0
DWIDTH 21 0
BBX 19 19 1 0
BITMAP
03F800
0F0E00
180300
300080
61F6C0
43FC40
C60C60
C60C60
840C20
8C0860
8C1860
CC1840
CC18C0
47FF80
63CF00
200000
180200
0E0E00
03F800
ENDCHAR
STARTCHAR 0041
ENCODING 65
SWIDTH 750 0
DWIDTH 18 0
BBX 16 19 1 0
BITMAP
03C0
03C0
03E0
0760
0660
0670
0E30
0C30
1C38
1C18
1818
381C
3FFC
3FFE
700E
6006
6007
E007
C003
ENDCHAR
STARTCHAR 0042
ENCODING 66
SWIDTH 750 0
DWIDTH 18 0
BBX 15 19 2 0
BITMAP
FFF0
FFF8
C01C
C00C
C00C
C00C
C01C
C018
FFF0
FFF8
C01C
C00C
C00E
C00E
C00E
C00C
C01C
FFFC
FFF0
ENDCHAR
STARTCHAR 0043
ENCODING 67
SWIDTH 750 0
DWIDTH 18 0
BBX 15 19 2 0
BITMAP
0FE0
3FF8
783C
E01C
C00C
C00E
C000
C000
C000
C000
C000
C000
C00E
C00E
C00E
E00C
783C
3FF8
0FE0
ENDCHAR
STARTCHAR 0044
ENCODING 68
SWIDTH 833 0
DWIDTH 20 0
BBX 16 19 2 0
BITMAP
FFF0
FFFC
C01E
C00E
C006
C007
C007
C003
C003
C003
C003
C003
C003
C007
C006
C006
C01E
FFFC
FFF0
ENDCHAR
STARTCHAR 0045
ENCODING 69
SWIDTH 666 0
DWIDTH 16 0
BBX 14 19 2 0
BITMAP
FFF8
FFF8
C000
C000
C000
C000
C000
C000
FFF8
FFF8
C000
C000
C000
C000
C000
C000
C000
FFFC
FFFC
ENDCHAR
STARTCHAR 0046
ENCODING 70
SWIDTH 625 0
DWIDTH 15 0
BBX 13 19 2 0
BITMAP
FFF8
FFF8
C000
C000
C000
C000
C000
C000
FFF0
FFF0
C000
C000
C000
C000
C000
C000
C000
C000
C000
ENDCHAR
STARTCHAR 0047
ENCODING 71
SWIDTH 833 0
DWIDTH 20 0
BBX 16 19 2 0
BITMAP
0FF0
3FFC
781E
E007
E007
C003
C000
C000
C000
C0FF
C0FF
C003
C003
C003
C007
E006
781E
3FFC
0FF0
ENDCHAR
STARTCHAR 0048
ENCODING 72
SWIDTH 833 0
DWIDTH 20 0
BBX 16 19 2 0
BITMAP
C007
C007
C007
C007
C007
C007
C007
C007
FFFF
FFFF
C007
C007
C007
C007
C007
C007
C007
C007
C007
ENDCHAR
STARTCHAR 0049
ENCODING 73
SWIDTH 250 0
DWIDTH 6 0
BBX 2 19 2 0
BITMAP
C0
C0
C0
C0
C0
C0
C0
C0
C0
C0
C0
C0
C0
C0
C0
C0
C0
C0
C0
ENDCHAR
STARTCHAR 004A
ENCODING 74
SWIDTH 625 0
DWIDTH 15 0
BBX 12 19 1 0
BITMAP
0030
0030
0030
0030
0030
0030
0030
0030
0030
0030
0030
0030
C030
C030
C030
C070
F070
7FE0
1F80
ENDCHAR
STARTCHAR 004B
ENCODING 75
SWIDTH 750 0
DWIDTH 18 0
BBX 15 19 2 0
BITMAP
C01E
C038
C070
C0E0
C1C0
C380
C700
CE00
DC00
F800
DC00
CF00
C380
C1C0
C0E0
C070
C038
C01C
C00E
ENDCHAR
STARTCHAR 004C
ENCODING 76
SWIDTH 625 0
DWIDTH 15 0
BBX 13 19 2 0
BITMAP
C000
C000
C000
C000
C000
C000
C000
C000
C000
C000
C000
C000
C000
C000
C000
C000
C000
FFF8
FFF8
ENDCHAR
STARTCHAR 004D
ENCODING 77
SWIDTH 958 0
DWIDTH 23 0
BBX 19 19 2 0
BITMAP
F001E0
F001E0
F00360
D80360
D803E0
D806E0
CC06E0
CC06E0
CC0CE0
C60CE0
C60CE0
C618E0
C318E0
C318E0
C330E0
C1B0E0
C1B0E0
C1E0E0
C0E0E0
ENDCHAR
STARTCHAR 004E
ENCODING 78
SWIDTH 833 0
DWIDTH 20 0
BBX 16 19 2 0
BITMAP
F007
F007
F807
D807
CC07
CE07
C607
C707
C307
C387
C1C7
C0C7
C0E7
C067
C077
C03F
C01F
C01F
C00F
ENDCHAR
STARTCHAR 004F
ENCODING 79
SWIDTH 833 0
DWIDTH 20 0
BBX 16 19 2 0
BITMAP
0FF0
3FFC
781E
E006
C007
C007
C003
C003
C003
C003
C003
C003
C003
C007
C007
E006
781E
3FFC
0FF0
ENDCHAR
STARTCHAR 0050
ENCODING 80
SWIDTH 750 0
DWIDTH 18 0
BBX 15 19 2 0
BITMAP
FFF8
FFFC
C00E
C006
C006
C006
C006
C006
C006
C00E
FFFC
FFF8
C000
C000
C000
C000
C000
C000
C000
ENDCHAR
STARTCHAR 0051
ENCODING 81
SWIDTH 833 0
DWIDTH 20 0
BBX 16 19 2 -1
BITMAP
0FF0
3FFC
781E
E006
C007
C007
C003
C003
C003
C003
C003
C003
C0C3
C0E7
C077
E03E
781E
3FFE
0FF7
ENDCHAR
STARTCHAR 0052
ENCODING 82
SWIDTH 750 0
DWIDTH 18 0
BBX 15 19 2 0
BITMAP
FFF0
FFFC
C01C
C00E
C00E
C00E
C00E
C00C
C01C
FFF8
FFF8
C01C
C00C
C00C
C00C
C00C
C00E
C00E
C00E
ENDCHAR
STARTCHAR 0053
ENCODING 83
SWIDTH 750 0
DWIDTH 18 0
BBX 16 19 1 0
BITMAP
0FF0
3FFC
701C
600E
6006
6006
6000
7000
3FC0
1FFC
003E
0007
0007
E007
6007
6007
780E
3FFC
0FF0
ENDCHAR
STARTCHAR 0054
ENCODING 84
SWIDTH 666 0
DWIDTH 16 0
BBX 16 19 0 0
BITMAP
FFFF
FFFF
0180
0180
0180
0180
0180
0180
0180
0180
0180
0180
0180
0180
0180
0180
0180
0180
0180
ENDCHAR
STARTCHAR 0055
ENCODING 85
SWIDTH 833 0
DWIDTH 20 0
BBX 16 19 2 0
BITMAP
C007
C007
C007
C007
C007
C007
C007
C007
C007
C007
C007
C007
C007
C007
E006
E00E
781E
3FFC
0FF0
ENDCHAR
STARTCHAR 0056
ENCODING 86
SWIDTH 750 0
DWIDTH 18 0
BBX 16 19 1 0
BITMAP
C003
E007
6007
6006
700E
300E
380C
381C
181C
1C18
1C38
0C30
0E30
0670
0660
0760
03E0
03C0
03C0
ENDCHAR
STARTCHAR 0057
ENCODING 87
SWIDTH 1000 0
DWIDTH 24 0
BBX 22 19 1 0
BITMAP
C0780C
C0780C
E0781C
E0781C
60FC18
60CC18
60CC18
70CC38
30CC30
318630
318630
398670
198660
1B8760
1B0360
1B0360
0F03C0
0F03C0
0E01C0
ENDCHAR
STARTCHAR 0058
ENCODING 88
SWIDTH 750 0
DWIDTH 18 0
BBX 16 19 1 0
BITMAP
E007
700E
380C
181C
1C38
0E30
0670
07E0
03C0
03C0
03E0
0660
0E70
1C38
181C
381C
700E
6007
E007
ENDCHAR
STARTCHAR 0059
ENCODING 89
SWIDTH 750 0
DWIDTH 18 0
BBX 16 19 1 0
BITMAP
E003
E007
700E
380C
381C
1C38
0C30
0E70
0760
03C0
03C0
0180
0180
0180
0180
0180
0180
0180
0180
ENDCHAR
STARTCHAR 005A
ENCODING 90
SWIDTH 750 0
DWIDTH 18 0
BBX 16 19 1 0
BITMAP
7FFF
7FFF
000E
000E
001C
0038
0070
00E0
01C0
0380
0380
0700
0E00
1C00
3800
7000
E000
FFFF
FFFF
ENDCHAR
STARTCHAR 005B
ENCODING 91
SWIDTH 375 0
DWIDTH 9 0
BBX 6 22 2 -3
BITMAP
FC
FC
C0
C0
C0
C0
C0
C0
C0
C0
C0
C0
C0
C0
C0
C0
C0
C0
C0
C0
FC
FC
ENDCHAR
STARTCHAR 005C
ENCODING 92
SWIDTH 500 0
DWIDTH 12 0
BBX 10 19 1 0
BITMAP
C000
C000
6000
6000
3000
3000
1800
1800
0800
0C00
0C00
0600
0600
0300
0300
0180
0180
00C0
00C0
ENDCHAR
STARTCHAR 005D
ENCODING 93
SWIDTH 375 0
DWIDTH 9 0
BBX 5 22 1 -3
BITMAP
F8
F8
08
08
08
08
08
08
08
08
08
08
08
08
08
08
08
08
08
08
F8
F8
ENDCHAR
STARTCHAR 005E
ENCODING 94
SWIDTH 666 0
DWIDTH 16 0
BBX 15 12 1 7
BITMAP
0100
0300
0380
0680
0CC0
0860
1820
3030
2018
6008
C00C
C006
ENDCHAR
STARTCHAR 005F
ENCODING 95
SWIDTH 500 0
DWIDTH 12 0
BBX 12 1 0 -3
BITMAP
FFF0
ENDCHAR
STARTCHAR 0060
ENCODING 96
SWIDTH 333 0
DWIDTH 8 0
BBX 5 3 1 16
BITMAP
E0
70
18
ENDCHAR
STARTCHAR 0061
ENCODING 97
SWIDTH 625 0
DWIDTH 15 0
BBX 13 14 1 0
BITMAP
1FC0
3FF0
7030
6030
0030
0030
1FF0
7FF0
E030
C030
C030
E070
7FF0
3F98
ENDCHAR
STARTCHAR 0062
ENCODING 98
SWIDTH 625 0
DWIDTH 15 0
BBX 12 19 2 0
BITMAP
C000
C000
C000
C000
C000
DF80
FFE0
E0E0
C070
C030
C030
C030
C030
C030
C030
C070
E060
FFE0
DF80
ENDCHAR
STARTCHAR 0063
ENCODING 99
SWIDTH 625 0
DWIDTH 15 0
BBX 13 14 1 0
BITMAP
1FC0
3FF0
7030
E038
C018
C000
C000
C000
C000
C018
E018
7030
3FF0
1FC0
ENDCHAR
STARTCHAR 0064
ENCODING 100
SWIDTH 625 0
DWIDTH 15 0
BBX 12 19 1 0
BITMAP
0030
0030
0030
0030
0030
1FB0
3FF0
7070
6030
C030
C030
C030
C030
C030
C030
E030
7070
3FF0
1FB0
ENDCHAR
STARTCHAR 0065
ENCODING 101
SWIDTH 625 0
DWIDTH 15 0
BBX 13 14 1 0
BITMAP
1FC0
3FF0
7070
6038
C018
C018
FFF8
FFF8
C000
C000
E018
7038
3FF0
1FC0
ENDCHAR
STARTCHAR 0066
ENCODING 102
SWIDTH 375 0
DWIDTH 9 0
BBX 9 19 0 0
BITMAP
0F80
1F80
1800
1800
1800
FF80
FF80
1800
1800
1800
1800
1800
1800
1800
1800
1800
1800
1800
1800
ENDCHAR
STARTCHAR 0067
ENCODING 103
SWIDTH 666 0
DWIDTH 16 0
BBX 15 18 1 -3
BITMAP
0006
0FFE
3FF8
7018
6018
6018
3018
3FF8
6FE0
C000
E000
7FF0
7FFC
C00C
C00C
E00C
7FFC
3FF0
ENDCHAR
STARTCHAR 0068
ENCODING 104
SWIDTH 625 0
DWIDTH 15 0
BBX 11 19 2 0
BITMAP
C000
C000
C000
C000
C000
CF80
FFE0
E0E0
C060
C060
C060
C060
C060
C060
C060
C060
C060
C060
C060
ENDCHAR
STARTCHAR 0069
ENCODING 105
SWIDTH 250 0
DWIDTH 6 0
BBX 2 19 2 0
BITMAP
C0
C0
C0
00
00
C0
C0
C0
C0
C0
C0
C0
C0
C0
C0
C0
C0
C0
C0
ENDCHAR
STARTCHAR 006A
ENCODING 106
SWIDTH 250 0
DWIDTH 6 0
BBX 4 22 1 -3
BITMAP
70
70
70
00
00
70
70
70
70
70
70
70
70
70
70
70
70
70
70
60
E0
C0
ENDCHAR
STARTCHAR 006B
ENCODING 107
SWIDTH 541 0
DWIDTH 13 0
BBX 11 19 2 0
BITMAP
C000
C000
C000
C000
C000
C1C0
C380
C700
CE00
DC00
F800
F000
F800
DC00
CE00
C700
C380
C1C0
C0E0
ENDCHAR
STARTCHAR 006C
ENCODING 108
SWIDTH 250 0
DWIDTH 6 0
BBX 2 19 2 0
BITMAP
C0
C0
C0
C0
C0
C0
C0
C0
C0
C0
C0
C0
C0
C0
C0
C0
C0
C0
C0
ENDCHAR
STARTCHAR 006D
ENCODING 109
SWIDTH 958 0
DWIDTH 23 0
BBX 19 14 2 0
BITMAP
DF0F80
FFDFC0
E1F0E0
C0E060
C0C060
C0C060
C0C060
C0C060
C0C060
C0C060
C0C060
C0C060
C0C060
C0C060
ENDCHAR
STARTCHAR 006E
ENCODING 110
SWIDTH 625 0
DWIDTH 15 0
BBX 11 14 2 0
BITMAP
CF80
FFE0
E0E0
C060
C060
C060
C060
C060
C060
C060
C060
C060
C060
C060
ENDCHAR
STARTCHAR 006F
ENCODING 111
SWIDTH 625 0
DWIDTH 15 0
BBX 13 14 1 0
BITMAP
1FC0
7FF0
7070
E038
C018
C018
C018
C018
C018
C018
E038
7030
7FF0
1FC0
ENDCHAR
STARTCHAR 0070
ENCODING 112
SWIDTH 625 0
DWIDTH 15 0
BBX 12 17 2 -3
BITMAP
DF80
FFE0
E0E0
C070
C030
C030
C030
C030
C030
C030
C070
E0E0
FFE0
DF80
C000
C000
C000
ENDCHAR
STARTCHAR 0071
ENCODING 113
SWIDTH 625 0
DWIDTH 15 0
BBX 12 17 1 -3
BITMAP
1FB0
3FF0
7070
6030
C030
C030
C030
C030
C030
C030
E030
7070
7FF0
1FB0
0030
0030
0030
ENDCHAR
STARTCHAR 0072
ENCODING 114
SWIDTH 375 0
DWIDTH 9 0
BBX 7 14 2 0
BITMAP
DE
FE
E0
C0
C0
C0
C0
C0
C0
C0
C0
C0
C0
C0
ENDCHAR
STARTCHAR 0073
ENCODING 115
SWIDTH 625 0
DWIDTH 15 0
BBX 13 14 1 0
BITMAP
1FC0
3FF0
6070
6030
6000
7000
7FE0
0FF0
0038
C018
E018
6038
7FF0
1FC0
ENDCHAR
STARTCHAR 0074
ENCODING 116
SWIDTH 458 0
DWIDTH 11 0
BBX 9 17 1 0
BITMAP
1800
1800
1800
FF80
FF80
1800
1800
1800
1800
1800
1800
1800
1800
1800
1800
1F80
0F80
ENDCHAR
STARTCHAR 0075
ENCODING 117
SWIDTH 625 0
DWIDTH 15 0
BBX 11 14 2 0
BITMAP
C060
C060
C060
C060
C060
C060
C060
C060
C060
C060
C060
E0E0
7FE0
3F60
ENDCHAR
STARTCHAR 0076
ENCODING 118
SWIDTH 541 0
DWIDTH 13 0
BBX 12 14 1 0
BITMAP
C070
C060
E060
60E0
60C0
70C0
31C0
3180
3980
1B80
1B00
1F00
0F00
0E00
ENDCHAR
STARTCHAR 0077
ENCODING 119
SWIDTH 833 0
DWIDTH 20 0
BBX 19 14 0 0
BITMAP
E0E060
60F060
60F0E0
61B0C0
71B0C0
3198C0
3199C0
311980
1B1980
1B0980
1B0F00
1B0F00
0E0F00
0E0F00
ENDCHAR
STARTCHAR 0078
ENCODING 120
SWIDTH 541 0
DWIDTH 13 0
BBX 12 14 1 0
BITMAP
E060
60E0
71C0
3180
1B80
1F00
0E00
1F00
1B80
3980
31C0
70C0
E0E0
C070
ENDCHAR
STARTCHAR 0079
ENCODING 121
SWIDTH 541 0
DWIDTH 13 0
BBX 12 17 1 -3
BITMAP
C070
C060
E060
60E0
70C0
30C0
3180
3980
1980
1B00
0F00
0F00
0600
0600
0C00
7C00
7800
ENDCHAR
STARTCHAR 007A
ENCODING 122
SWIDTH 500 0
DWIDTH 12 0
BBX 10 14 1 0
BITMAP
FFC0
FFC0
01C0
0380
0300
0600
0E00
1C00
1800
3000
7000
E000
FFC0
FFC0
ENDCHAR
STARTCHAR 007B
ENCODING 123
SWIDTH 333 0
DWIDTH 8 0
BBX 4 22 2 -3
BITMAP
10
30
70
60
60
60
60
60
60
60
E0
E0
60
60
60
60
60
60
60
70
30
10
ENDCHAR
STARTCHAR 007C
ENCODING 124
SWIDTH 250 0
DWIDTH 6 0
BBX 2 22 2 -3
BITMAP
C0
C0
C0
C0
C0
C0
C0
C0
C0
00
00
00
00
C0
C0
C0
C0
C0
C0
C0
C0
C0
ENDCHAR
STARTCHAR 007D
ENCODING 125
SWIDTH 333 0
DWIDTH 8 0
BBX 4 22 2 -3
BITMAP
C0
C0
E0
60
60
60
60
40
60
60
70
70
60
60
60
60
60
60
60
60
C0
80
ENDCHAR
STARTCHAR 007E
ENCODING 126
SWIDTH 333 0
DWIDTH 8 0
BBX 8 2 0 16
BITMAP
FB
9E
ENDCHAR
STARTCHAR 00A1
ENCODING 161
SWIDTH 333 0
DWIDTH 8 0
BBX 3 19 2 -3
BITMAP
E0
E0
E0
00
00
60
60
60
60
60
60
60
60
60
60
60
60
60
60
ENDCHAR
STARTCHAR 00A2
ENCODING 162
SWIDTH 625 0
DWIDTH 15 0
BBX 13 19 1 0
BITMAP
0200
0200
1FC0
3FF0
7270
6238
E218
C200
C200
C200
C200
C218
E218
6218
7230
3FF0
1FC0
0200
0200
ENDCHAR
STARTCHAR 00A3
ENCODING 163
SWIDTH 750 0
DWIDTH 18 0
BBX 16 19 1 0
BITMAP
03F8
0FFE
1E0F
1807
1803
3800
3800
3800
3800
FFC0
FFC0
3800
3800
3800
3800
3000
3000
FFFF
FFFF
ENDCHAR
STARTCHAR 00A4
ENCODING 164
SWIDTH 666 0
DWIDTH 16 0
BBX 14 15 1 2
BITMAP
8004
CFEC
7878
6018
600C
400C
C004
C004
C004
C00C
600C
6018
7838
CFEC
8004
ENDCHAR
STARTCHAR 00A5
ENCODING 165
SWIDTH 750 0
DWIDTH 18 0
BBX 16 19 1 0
BITMAP
E003
E007
700E
300E
381C
1C18
0C38
0E70
0760
7FFE
7FFE
0180
7FFE
7FFE
0180
0180
0180
0180
0180
ENDCHAR
STARTCHAR 00A6
ENCODING 166
SWIDTH 250 0
DWIDTH 6 0
BBX 2 22 2 -3
BITMAP
C0
C0
C0
C0
C0
C0
C0
C0
C0
C0
C0
C0
C0
C0
C0
C0
C0
C0
C0
C0
C0
C0
ENDCHAR
STARTCHAR 00A7
ENCODING 167
SWIDTH 1000 0
DWIDTH 24 0
BBX 12 23 6 -2
BITMAP
1F80
3FC0
70E0
6060
6060
6000
7000
3E00
7FC0
61E0
E060
E070
6070
7860
3FE0
0FC0
00E0
0060
6060
6060
70E0
7FE0
1F80
ENDCHAR
STARTCHAR 00A8
ENCODING 168
SWIDTH 1000 0
DWIDTH 24 0
BBX 8 2 8 17
BITMAP
E7
E7
ENDCHAR
STARTCHAR 00A9
ENCODING 169
SWIDTH 875 0
DWIDTH 21 0
BBX 19 19 1 0
BITMAP
03F800
0C0600
100100
200080
43FC40
460C40
8C0620
8C0620
8C0020
8C0020
8C0020
8C0620
8C0620
460C40
43FC40
200080
100100
0C0600
03F800
ENDCHAR
STARTCHAR 00AA
ENCODING 170
SWIDTH 458 0
DWIDTH 11 0
BBX 8 9 1 10
BITMAP
3E
63
41
01
7F
41
C1
C3
7D
ENDCHAR
STARTCHAR 00AB
ENCODING 171
SWIDTH 458 0
DWIDTH 11 0
BBX 9 10 1 2
BITMAP
3180
3300
6300
6600
C600
C600
6600
2300
3100
1180
ENDCHAR
STARTCHAR 00AC
ENCODING 172
SWIDTH 666 0
DWIDTH 16 0
BBX 14 9 1 5
BITMAP
FFFC
FFFC
0004
0004
0004
0004
0004
0004
0004
ENDCHAR
STARTCHAR 00AD
ENCODING 173
SWIDTH 750 0
DWIDTH 18 0
BBX 16 2 1 8
BITMAP
FFFF
FFFF
ENDCHAR
STARTCHAR 00AE
ENCODING 174
SWIDTH 875 0
DWIDTH 21 0
BBX 19 19 1 0
BITMAP
03F800
0C0600
100100
200080
47FC40
460C40
860420
860420
860C20
87F820
863C20
860C20
860C20
460C40
460C40
200080
100100
0C0600
03F800
ENDCHAR
STARTCHAR 00AF
ENCODING 175
SWIDTH 333 0
DWIDTH 8 0
BBX 8 2 0 16
BITMAP
FF
FF
ENDCHAR
STARTCHAR 00B0
ENCODING 176
SWIDTH 1000 0
DWIDTH 24 0
BBX 5 5 1 14
BITMAP
70
C8
88
C8
70
ENDCHAR
STARTCHAR 00B1
ENCODING 177
SWIDTH 1000 0
DWIDTH 24 0
BBX 16 20 4 0
BITMAP
0180
0180
0180
0180
0180
0180
0180
FFFF
FFFF
0180
0180
0180
0180
0180
0180
0180
0180
0000
FFFF
FFFF
ENDCHAR
STARTCHAR 00B2
ENCODING 178
SWIDTH 458 0
DWIDTH 11 0
BBX 8 10 1 9
BITMAP
3E
7F
43
41
03
3E
60
C0
C0
FF
ENDCHAR
STARTCHAR 00B3
ENCODING 179
SWIDTH 458 0
DWIDTH 11 0
BBX 8 11 1 8
BITMAP
3E
7F
43
03
0E
07
01
C1
43
7F
08
ENDCHAR
STARTCHAR 00B4
ENCODING 180
SWIDTH 1000 0
DWIDTH 24 0
BBX 4 3 10 16
BITMAP
70
60
C0
ENDCHAR
STARTCHAR 00B5
ENCODING 181
SWIDTH 666 0
DWIDTH 16 0
BBX 14 17 2 -3
BITMAP
C070
C070
C070
C070
C070
C070
C070
C070
C070
E070
E070
E0F0
FFFC
DF1C
C000
C000
C000
ENDCHAR
STARTCHAR 00B6
ENCODING 182
SWIDTH 1000 0
DWIDTH 24 0
BBX 12 23 5 -2
BITMAP
1FF0
7FF0
7F30
FF30
FF30
FF30
FF30
FF30
FF30
FF30
7F30
1F30
0330
0330
0330
0330
0330
0330
0330
0330
0330
0330
0330
ENDCHAR
STARTCHAR 00B7
ENCODING 183
SWIDTH 250 0
DWIDTH 6 0
BBX 3 3 2 8
BITMAP
C0
E0
C0
ENDCHAR
STARTCHAR 00B8
ENCODING 184
SWIDTH 166 0
DWIDTH 4 0
BBX 3 4 1 -4
BITMAP
80
E0
20
E0
ENDCHAR
STARTCHAR 00B9
ENCODING 185
SWIDTH 458 0
DWIDTH 11 0
BBX 4 10 3 9
BITMAP
F0
F0
30
30
30
30
30
30
30
30
ENDCHAR
STARTCHAR 00BA
ENCODING 186
SWIDTH 458 0
DWIDTH 11 0
BBX 8 9 1 10
BITMAP
3E
63
C1
C1
C1
C1
C1
63
3E
ENDCHAR
STARTCHAR 00BB
ENCODING 187
SWIDTH 458 0
DWIDTH 11 0
BBX 9 10 1 2
BITMAP
CC00
4600
6600
3300
3380
3300
6300
6600
C600
CC00
ENDCHAR
STARTCHAR 00BC
ENCODING 188
SWIDTH 958 0
DWIDTH 23 0
BBX 19 19 3 0
BITMAP
F00200
F00200
300400
300800
301000
301000
302000
304000
304000
308180
010380
020680
020C80
041880
081080
083FE0
103FE0
200080
400080
ENDCHAR
STARTCHAR 00BD
ENCODING 189
SWIDTH 958 0
DWIDTH 23 0
BBX 18 19 3 0
BITMAP
F00200
F00400
300400
300800
301000
301000
302000
304000
304200
309FC0
0118C0
021040
0200C0
0401C0
081F80
081800
103000
203000
403FC0
ENDCHAR
STARTCHAR 00BE
ENCODING 190
SWIDTH 958 0
DWIDTH 23 0
BBX 21 19 1 0
BITMAP
3E0080
7F0100
430100
030200
0E0400
070400
010800
C11000
431000
7F2060
0840E0
0081A0
008320
010620
020420
020FF8
040FF8
080020
100020
ENDCHAR
STARTCHAR 00BF
ENCODING 191
SWIDTH 625 0
DWIDTH 15 0
BBX 13 19 1 -3
BITMAP
0380
0380
0380
0000
0000
0380
0380
0300
0F00
3E00
7800
6000
C000
C018
C018
E038
7030
7FF0
1FC0
ENDCHAR
STARTCHAR 00C0
ENCODING 192
SWIDTH 750 0
DWIDTH 18 0
BBX 16 24 1 0
BITMAP
0300
0180
00C0
0000
0000
03C0
03C0
03E0
0760
0660
0670
0E30
0C30
1C38
1C18
1818
381C
3FFC
3FFE
700E
6006
6007
E007
C003
ENDCHAR
STARTCHAR 00C1
ENCODING 193
SWIDTH 750 0
DWIDTH 18 0
BBX 16 24 1 0
BITMAP
00C0
0180
0300
0000
0000
03C0
03C0
03E0
0760
0660
0670
0E30
0C30
1C38
1C18
1818
381C
3FFC
3FFE
700E
6006
6007
E007
C003
ENDCHAR
STARTCHAR 00C2
ENCODING 194
SWIDTH 750 0
DWIDTH 18 0
BBX 16 24 1 0
BITMAP
01C0
03C0
0660
0000
0000
03C0
03C0
03E0
0760
0660
0670
0E30
0C30
1C38
1C18
1818
381C
3FFC
3FFE
700E
6006
6007
E007
C003
ENDCHAR
STARTCHAR 00C3
ENCODING 195
SWIDTH 750 0
DWIDTH 18 0
BBX 16 23 1 0
BITMAP
07B0
08E0
0000
0000
03C0
03C0
03E0
0760
0660
0670
0E30
0C30
1C38
1C18
1818
381C
3FFC
3FFE
700E
6006
6007
E007
C003
ENDCHAR
STARTCHAR 00C4
ENCODING 196
SWIDTH 750 0
DWIDTH 18 0
BBX 16 23 1 0
BITMAP
0E70
0E70
0000
0000
03C0
03C0
03E0
0760
0660
0670
0E30
0C30
1C38
1C18
1818
381C
3FFC
3FFE
700E
6006
6007
E007
C003
ENDCHAR
STARTCHAR 00C5
ENCODING 197
SWIDTH 750 0
DWIDTH 18 0
BBX 16 25 1 0
BITMAP
01C0
0240
0260
0240
01C0
0000
03C0
03C0
03E0
0760
0660
0670
0E30
0C30
1C38
1C18
1818
381C
3FFC
3FFE
700E
6006
6007
E007
C003
ENDCHAR
STARTCHAR 00C6
ENCODING 198
SWIDTH 1000 0
DWIDTH 24 0
BBX 22 19 1 0
BITMAP
00FFFC
01FFFC
019800
019800
039800
031800
071800
061800
0E1FF8
0C1FF8
1C1800
181800
3FF800
3FF800
701800
701800
601800
E01FFC
C01FFC
ENDCHAR
STARTCHAR 00C7
ENCODING 199
SWIDTH 750 0
DWIDTH 18 0
BBX 15 23 2 -4
BITMAP
0FE0
3FF8
783C
E01C
C00C
C00E
C000
C000
C000
C000
C000
C000
C00E
C00E
C00E
E00C
783C
3FF8
0FE0
0200
0380
0080
0780
ENDCHAR
STARTCHAR 00C8
ENCODING 200
SWIDTH 666 0
DWIDTH 16 0
BBX 14 24 2 0
BITMAP
0C00
0600
0300
0000
0000
FFF8
FFF8
C000
C000
C000
C000
C000
C000
FFF8
FFF8
C000
C000
C000
C000
C000
C000
C000
FFFC
FFFC
ENDCHAR
STARTCHAR 00C9
ENCODING 201
SWIDTH 666 0
DWIDTH 16 0
BBX 14 24 2 0
BITMAP
0380
0600
0C00
0000
0000
FFF8
FFF8
C000
C000
C000
C000
C000
C000
FFF8
FFF8
C000
C000
C000
C000
C000
C000
C000
FFFC
FFFC
ENDCHAR
STARTCHAR 00CA
ENCODING 202
SWIDTH 666 0
DWIDTH 16 0
BBX 14 24 2 0
BITMAP
0700
0F80
1980
0040
0000
FFF8
FFF8
C000
C000
C000
C000
C000
C000
FFF8
FFF8
C000
C000
C000
C000
C000
C000
C000
FFFC
FFFC
ENDCHAR
STARTCHAR 00CB
ENCODING 203
SWIDTH 666 0
DWIDTH 16 0
BBX 14 23 2 0
BITMAP
19C0
19C0
0000
0000
FFF8
FFF8
C000
C000
C000
C000
C000
C000
FFF8
FFF8
C000
C000
C000
C000
C000
C000
C000
FFFC
FFFC
ENDCHAR
STARTCHAR 00CC
ENCODING 204
SWIDTH 250 0
DWIDTH 6 0
BBX 4 24 1 0
BITMAP
C0
60
30
00
00
60
60
60
60
60
60
60
60
60
60
60
60
60
60
60
60
60
60
60
ENDCHAR
STARTCHAR 00CD
ENCODING 205
SWIDTH 250 0
DWIDTH 6 0
BBX 4 24 1 0
BITMAP
30
60
C0
00
00
60
60
60
60
60
60
60
60
60
60
60
60
60
60
60
60
60
60
60
ENDCHAR
STARTCHAR 00CE
ENCODING 206
SWIDTH 250 0
DWIDTH 6 0
BBX 6 24 0 0
BITMAP
38
78
CC
00
00
30
30
30
30
30
30
30
30
30
30
30
30
30
30
30
30
30
30
30
ENDCHAR
STARTCHAR 00CF
ENCODING 207
SWIDTH 250 0
DWIDTH 6 0
BBX 8 23 -1 0
BITMAP
E7
E7
00
00
18
18
18
18
18
18
18
18
18
18
18
18
18
18
18
18
18
18
18
ENDCHAR
STARTCHAR 00D0
ENCODING 208
SWIDTH 833 0
DWIDTH 20 0
BBX 18 19 0 0
BITMAP
3FFC00
3FFF00
300780
300380
300180
3001C0
3000C0
3000C0
FF80C0
3000C0
3000C0
3000C0
3000C0
3001C0
300180
300180
300780
3FFF00
3FFC00
ENDCHAR
STARTCHAR 00D1
ENCODING 209
SWIDTH 833 0
DWIDTH 20 0
BBX 16 23 2 0
BITMAP
0FB0
09E0
0000
0000
F007
F007
F807
D807
CC07
CE07
C607
C707
C307
C387
C1C7
C0C7
C0E7
C067
C077
C03F
C01F
C01F
C00F
ENDCHAR
STARTCHAR 00D2
ENCODING 210
SWIDTH 833 0
DWIDTH 20 0
BBX 16 23 2 0
BITMAP
0700
0180
00C0
0000
0FF0
3FFC
781E
E006
C007
C007
C003
C003
C003
C003
C003
C003
C003
C007
C007
E006
781E
3FFC
0FF0
ENDCHAR
STARTCHAR 00D3
ENCODING 211
SWIDTH 833 0
DWIDTH 20 0
BBX 16 23 2 0
BITMAP
01C0
0380
0200
0000
0FF0
3FFC
781E
E006
C007
C007
C003
C003
C003
C003
C003
C003
C003
C007
C007
E006
781E
3FFC
0FF0
ENDCHAR
STARTCHAR 00D4
ENCODING 212
SWIDTH 833 0
DWIDTH 20 0
BBX 16 23 2 0
BITMAP
03C0
06C0
0C60
0000
0FF0
3FFC
781E
E006
C007
C007
C003
C003
C003
C003
C003
C003
C003
C007
C007
E006
781E
3FFC
0FF0
ENDCHAR
STARTCHAR 00D5
ENCODING 213
SWIDTH 833 0
DWIDTH 20 0
BBX 16 23 2 0
BITMAP
07B0
0FE0
0000
0000
0FF0
3FFC
781E
E006
C007
C007
C003
C003
C003
C003
C003
C003
C003
C007
C007
E006
781E
3FFC
0FF0
ENDCHAR
STARTCHAR 00D6
ENCODING 214
SWIDTH 833 0
DWIDTH 20 0
BBX 16 23 2 0
BITMAP
0E60
0E60
0000
0000
0FF0
3FFC
781E
E006
C007
C007
C003
C003
C003
C003
C003
C003
C003
C007
C007
E006
781E
3FFC
0FF0
ENDCHAR
STARTCHAR 00D7
ENCODING 215
SWIDTH 1000 0
DWIDTH 24 0
BBX 15 15 4 2
BITMAP
4002
E006
700C
3818
1C30
0E60
07C0
0380
03C0
0660
0C70
1838
301C
600E
4006
ENDCHAR
STARTCHAR 00D8
ENCODING 216
SWIDTH 833 0
DWIDTH 20 0
BBX 18 20 1 0
BITMAP
07F8C0
1FFF80
3C0F00
700700
600F80
601B80
603980
603180
606180
60C180
618180
630180
660180
6C0380
7C0380
780300
3C0F00
7FFE00
C7F800
800000
ENDCHAR
STARTCHAR 00D9
ENCODING 217
SWIDTH 833 0
DWIDTH 20 0
BBX 16 24 2 0
BITMAP
0700
0380
00C0
0000
0000
C007
C007
C007
C007
C007
C007
C007
C007
C007
C007
C007
C007
C007
C007
E006
E00E
781E
3FFC
0FF0
ENDCHAR
STARTCHAR 00DA
ENCODING 218
SWIDTH 833 0
DWIDTH 20 0
BBX 16 24 2 0
BITMAP
00C0
0180
0300
0000
0000
C007
C007
C007
C007
C007
C007
C007
C007
C007
C007
C007
C007
C007
C007
E006
E00E
781E
3FFC
0FF0
ENDCHAR
STARTCHAR 00DB
ENCODING 219
SWIDTH 833 0
DWIDTH 20 0
BBX 16 24 2 0
BITMAP
0380
07C0
0660
0800
0000
C007
C007
C007
C007
C007
C007
C007
C007
C007
C007
C007
C007
C007
C007
E006
E00E
781E
3FFC
0FF0
ENDCHAR
STARTCHAR 00DC
ENCODING 220
SWIDTH 833 0
DWIDTH 20 0
BBX 16 23 2 0
BITMAP
0E60
0E60
0000
0000
C007
C007
C007
C007
C007
C007
C007
C007
C007
C007
C007
C007
C007
C007
E006
E00E
781E
3FFC
0FF0
ENDCHAR
STARTCHAR 00DD
ENCODING 221
SWIDTH 750 0
DWIDTH 18 0
BBX 16 24 1 0
BITMAP
00C0
0180
0300
0000
0000
E003
E007
700E
380C
381C
1C38
0C30
0E70
0760
03C0
03C0
0180
0180
0180
0180
0180
0180
0180
0180
ENDCHAR
STARTCHAR 00DE
ENCODING 222
SWIDTH 750 0
DWIDTH 18 0
BBX 15 19 2 0
BITMAP
C000
C000
C000
C000
FFF8
FFFC
C00E
C006
C006
C006
C006
C006
C00E
FFFC
FFF8
C000
C000
C000
C000
ENDCHAR
STARTCHAR 00DF
ENCODING 223
SWIDTH 625 0
DWIDTH 15 0
BBX 12 19 2 0
BITMAP
3F80
7FC0
E0E0
C060
C060
C060
C060
C0C0
CF80
CFE0
C060
C030
C030
C030
C030
C030
C060
CFE0
CF80
ENDCHAR
STARTCHAR 00E0
ENCODING 224
SWIDTH 625 0
DWIDTH 15 0
BBX 13 19 1 0
BITMAP
0E00
0700
0300
0080
0000
1FC0
3FF0
7030
6030
0030
0030
1FF0
7FF0
E030
C030
C030
E070
7FF0
3F98
ENDCHAR
STARTCHAR 00E1
ENCODING 225
SWIDTH 625 0
DWIDTH 15 0
BBX 13 19 1 0
BITMAP
0380
0300
0600
0000
0000
1FC0
3FF0
7030
6030
0030
0030
1FF0
7FF0
E030
C030
C030
E070
7FF0
3F98
ENDCHAR
STARTCHAR 00E2
ENCODING 226
SWIDTH 625 0
DWIDTH 15 0
BBX 13 19 1 0
BITMAP
0700
0D80
18C0
0000
0000
1FC0
3FF0
7030
6030
0030
0030
1FF0
7FF0
E030
C030
C030
E070
7FF0
3F98
ENDCHAR
STARTCHAR 00E3
ENCODING 227
SWIDTH 625 0
DWIDTH 15 0
BBX 13 18 1 0
BITMAP
0F40
17C0
0000
0000
1FC0
3FF0
7030
6030
0030
0030
3FF0
7FF0
E030
C030
C030
E070
7FF0
3F98
ENDCHAR
STARTCHAR 00E4
ENCODING 228
SWIDTH 625 0
DWIDTH 15 0
BBX 13 18 1 0
BITMAP
18C0
18C0
0000
0000
1FC0
3FF0
7030
6030
0030
0030
1FF0
7FF0
E030
C030
C030
E070
7FF0
3F98
ENDCHAR
STARTCHAR 00E5
ENCODING 229
SWIDTH 625 0
DWIDTH 15 0
BBX 13 20 1 0
BITMAP
0700
0C80
0880
0C80
0700
0000
1FC0
3FF0
7030
6030
0030
0030
1FF0
7FF0
E030
C030
C030
E070
7FF0
3F98
ENDCHAR
STARTCHAR 00E6
ENCODING 230
SWIDTH 1000 0
DWIDTH 24 0
BBX 22 14 1 0
BITMAP
1FC7E0
7FEFF0
607838
60301C
00300C
00300C
1FFFFC
7FBFFC
E03000
C03000
C0701C
E0F818
7FDFF8
3F07E0
ENDCHAR
STARTCHAR 00E7
ENCODING 231
SWIDTH 625 0
DWIDTH 15 0
BBX 13 18 1 -4
BITMAP
1FC0
3FF0
7030
E038
C018
C000
C000
C000
C000
C018
E018
7030
7FF0
1FC0
0200
0700
0180
0700
ENDCHAR
STARTCHAR 00E8
ENCODING 232
SWIDTH 625 0
DWIDTH 15 0
BBX 13 19 1 0
BITMAP
0E00
0700
0300
0080
0000
1FC0
3FF0
7070
6038
C018
C018
FFF8
FFF8
C000
C000
E018
7038
3FF0
1FC0
ENDCHAR
STARTCHAR 00E9
ENCODING 233
SWIDTH 625 0
DWIDTH 15 0
BBX 13 19 1 0
BITMAP
0380
0300
0600
0000
0000
1FC0
3FF0
7070
6038
C018
C018
FFF8
FFF8
C000
C000
E018
7038
3FF0
1FC0
ENDCHAR
STARTCHAR 00EA
ENCODING 234
SWIDTH 625 0
DWIDTH 15 0
BBX 13 19 1 0
BITMAP
0700
0D80
18C0
0000
0000
1FC0
3FF0
7070
6038
C018
C018
FFF8
FFF8
C000
C000
E018
7038
3FF0
1FC0
ENDCHAR
STARTCHAR 00EB
ENCODING 235
SWIDTH 625 0
DWIDTH 15 0
BBX 13 18 1 0
BITMAP
18C0
18C0
0000
0000
1FC0
3FF0
7070
6038
C018
C018
FFF8
FFF8
C000
C000
E018
7038
3FF0
1FC0
ENDCHAR
STARTCHAR 00EC
ENCODING 236
SWIDTH 250 0
DWIDTH 6 0
BBX 4 19 1 0
BITMAP
C0
60
30
00
00
60
60
60
60
60
60
60
60
60
60
60
60
60
60
ENDCHAR
STARTCHAR 00ED
ENCODING 237
SWIDTH 250 0
DWIDTH 6 0
BBX 4 19 1 0
BITMAP
30
60
C0
00
00
60
60
60
60
60
60
60
60
60
60
60
60
60
60
ENDCHAR
STARTCHAR 00EE
ENCODING 238
SWIDTH 250 0
DWIDTH 6 0
BBX 6 19 0 0
BITMAP
38
78
CC
00
00
30
30
30
30
30
30
30
30
30
30
30
30
30
30
ENDCHAR
STARTCHAR 00EF
ENCODING 239
SWIDTH 250 0
DWIDTH 6 0
BBX 8 18 -1 0
BITMAP
E7
E7
00
00
18
18
18
18
18
18
18
18
18
18
18
18
18
18
ENDCHAR
STARTCHAR 00F0
ENCODING 240
SWIDTH 625 0
DWIDTH 15 0
BBX 13 19 1 0
BITMAP
1C10
3FF0
07C0
3EE0
3060
1FF0
3FF0
7078
E038
C018
C018
C018
C018
C018
C018
E038
7030
7FF0
1FC0
ENDCHAR
STARTCHAR 00F1
ENCODING 241
SWIDTH 625 0
DWIDTH 15 0
BBX 11 18 2 0
BITMAP
1E80
2F80
0000
0000
CF80
FFE0
E0E0
C060
C060
C060
C060
C060
C060
C060
C060
C060
C060
C060
ENDCHAR
STARTCHAR 00F2
ENCODING 242
SWIDTH 625 0
DWIDTH 15 0
BBX 13 19 1 0
BITMAP
0E00
0700
0300
0080
0000
1FC0
7FF0
7070
E038
C018
C018
C018
C018
C018
C018
E038
7030
7FF0
1FC0
ENDCHAR
STARTCHAR 00F3
ENCODING 243
SWIDTH 625 0
DWIDTH 15 0
BBX 13 19 1 0
BITMAP
0380
0300
0600
0000
0000
1FC0
7FF0
7070
E038
C018
C018
C018
C018
C018
C018
E038
7030
7FF0
1FC0
ENDCHAR
STARTCHAR 00F4
ENCODING 244
SWIDTH 625 0
DWIDTH 15 0
BBX 13 19 1 0
BITMAP
0700
0D80
18C0
0000
0000
1FC0
7FF0
7070
E038
C018
C018
C018
C018
C018
C018
E038
7030
7FF0
1FC0
ENDCHAR
STARTCHAR 00F5
ENCODING 245
SWIDTH 625 0
DWIDTH 15 0
BBX 13 18 1 0
BITMAP
0F40
17C0
0000
0000
1FC0
7FF0
7070
E038
C018
C018
C018
C018
C018
C018
E038
7030
7FF0
1FC0
ENDCHAR
STARTCHAR 00F6
ENCODING 246
SWIDTH 625 0
DWIDTH 15 0
BBX 13 18 1 0
BITMAP
18C0
18C0
0000
0000
1FC0
7FF0
7070
E038
C018
C018
C018
C018
C018
C018
E038
7030
7FF0
1FC0
ENDCHAR
STARTCHAR 00F7
ENCODING 247
SWIDTH 1000 0
DWIDTH 24 0
BBX 16 15 4 2
BITMAP
0180
03C0
0180
0000
0000
0000
0000
FFFF
FFFF
0000
0000
0000
0180
03C0
0180
ENDCHAR
STARTCHAR 00F8
ENCODING 248
SWIDTH 625 0
DWIDTH 15 0
BBX 13 14 1 -1
BITMAP
1FD8
3FF8
7070
E078
C0D8
C198
C318
C618
CC18
D818
F838
7030
7FF0
DFC0
ENDCHAR
STARTCHAR 00F9
ENCODING 249
SWIDTH 625 0
DWIDTH 15 0
BBX 11 19 2 0
BITMAP
1C00
0E00
0600
0100
0000
C060
C060
C060
C060
C060
C060
C060
C060
C060
C060
C060
E0E0
7FE0
3F60
ENDCHAR
STARTCHAR 00FA
ENCODING 250
SWIDTH 625 0
DWIDTH 15 0
BBX 11 19 2 0
BITMAP
0700
0600
0C00
0000
0000
C060
C060
C060
C060
C060
C060
C060
C060
C060
C060
C060
E0E0
7FE0
3F60
ENDCHAR
STARTCHAR 00FB
ENCODING 251
SWIDTH 625 0
DWIDTH 15 0
BBX 11 19 2 0
BITMAP
0E00
1B00
3180
0000
0000
C060
C060
C060
C060
C060
C060
C060
C060
C060
C060
C060
E0E0
7FE0
3F60
ENDCHAR
STARTCHAR 00FC
ENCODING 252
SWIDTH 625 0
DWIDTH 15 0
BBX 11 18 2 0
BITMAP
3180
3180
0000
0000
C060
C060
C060
C060
C060
C060
C060
C060
C060
C060
C060
E0E0
7FE0
3F60
ENDCHAR
STARTCHAR 00FD
ENCODING 253
SWIDTH 541 0
DWIDTH 13 0
BBX 12 22 1 -3
BITMAP
0700
0600
0C00
0000
0000
C070
C060
E060
60E0
70C0
30C0
3180
3980
1980
1B00
0F00
0F00
0600
0600
0C00
7C00
7800
ENDCHAR
STARTCHAR 00FE
ENCODING 254
SWIDTH 625 0
DWIDTH 15 0
BBX 12 22 2 -3
BITMAP
C000
C000
C000
C000
C000
DF80
FFE0
E0E0
C070
C030
C030
C030
C030
C030
C030
C070
E0E0
FFE0
DF80
C000
C000
C000
ENDCHAR
STARTCHAR 00FF
ENCODING 255
SWIDTH 541 0
DWIDTH 13 0
BBX 12 21 1 -3
BITMAP
3180
3180
0000
0000
C070
C060
E060
60E0
70C0
30C0
3180
3980
1980
1B00
0F00
0F00
0600
0600
0C00
7C00
7800
ENDCHAR
STARTCHAR 0100
ENCODING 256
SWIDTH 750 0
DWIDTH 18 0
BBX 16 23 1 0
BITMAP
0FF0
0FF0
0000
0000
03C0
03C0
03E0
0760
0660
0670
0E30
0C30
1C38
1C18
1818
381C
3FFC
3FFE
700E
6006
6007
E007
C003
ENDCHAR
STARTCHAR 0101
ENCODING 257
SWIDTH 625 0
DWIDTH 15 0
BBX 13 18 1 0
BITMAP
1FC0
1FC0
0000
0000
1FC0
3FF0
7030
6030
0030
0030
1FF0
7FF0
E030
C030
C030
E070
7FF0
3F98
ENDCHAR
STARTCHAR 0112
ENCODING 274
SWIDTH 666 0
DWIDTH 16 0
BBX 14 23 2 0
BITMAP
3FC0
3FC0
0000
0000
FFF8
FFF8
C000
C000
C000
C000
C000
C000
FFF8
FFF8
C000
C000
C000
C000
C000
C000
C000
FFFC
FFFC
ENDCHAR
STARTCHAR 0113
ENCODING 275
SWIDTH 625 0
DWIDTH 15 0
BBX 13 18 1 0
BITMAP
1FC0
1FC0
0000
0000
1FC0
3FF0
7070
6038
C018
C018
FFF8
FFF8
C000
C000
E018
7038
3FF0
1FC0
ENDCHAR
STARTCHAR 011A
ENCODING 282
SWIDTH 666 0
DWIDTH 16 0
BBX 14 24 2 0
BITMAP
18C0
0D80
0F00
0000
0000
FFF8
FFF8
C000
C000
C000
C000
C000
C000
FFF8
FFF8
C000
C000
C000
C000
C000
C000
C000
FFFC
FFFC
ENDCHAR
STARTCHAR 011B
ENCODING 283
SWIDTH 625 0
DWIDTH 15 0
BBX 13 19 1 0
BITMAP
18C0
0D80
0700
0000
0000
1FC0
3FF0
7070
6038
C018
C018
FFF8
FFF8
C000
C000
E018
7038
3FF0
1FC0
ENDCHAR
STARTCHAR 0127
ENCODING 295
SWIDTH 1000 0
DWIDTH 24 0
BBX 14 20 5 -1
BITMAP
1D00
1A00
1E00
1C00
3800
7BF0
F7F8
3C1C
381C
3018
7018
6018
6018
6038
6030
E030
C030
C030
C070
C060
ENDCHAR
STARTCHAR 0128
ENCODING 296
SWIDTH 250 0
DWIDTH 6 0
BBX 8 23 -1 0
BITMAP
7B
8E
00
00
18
18
18
18
18
18
18
18
18
18
18
18
18
18
18
18
18
18
18
ENDCHAR
STARTCHAR 0129
ENCODING 297
SWIDTH 250 0
DWIDTH 6 0
BBX 8 18 -1 0
BITMAP
7B
8E
00
00
18
18
18
18
18
18
18
18
18
18
18
18
18
18
ENDCHAR
STARTCHAR 012A
ENCODING 298
SWIDTH 250 0
DWIDTH 6 0
BBX 8 23 -1 0
BITMAP
FF
FF
00
00
18
18
18
18
18
18
18
18
18
18
18
18
18
18
18
18
18
18
18
ENDCHAR
STARTCHAR 012B
ENCODING 299
SWIDTH 250 0
DWIDTH 6 0
BBX 8 18 -1 0
BITMAP
FF
FF
00
00
18
18
18
18
18
18
18
18
18
18
18
18
18
18
ENDCHAR
STARTCHAR 0131
ENCODING 305
SWIDTH 250 0
DWIDTH 6 0
BBX 2 14 2 0
BITMAP
C0
C0
C0
C0
C0
C0
C0
C0
C0
C0
C0
C0
C0
C0
ENDCHAR
STARTCHAR 0141
ENCODING 321
SWIDTH 625 0
DWIDTH 15 0
BBX 14 19 1 0
BITMAP
6000
6000
6000
6000
6000
6300
6600
6C00
7800
6000
E000
E000
6000
6000
6000
6000
6000
7FFC
7FFC
ENDCHAR
STARTCHAR 0142
ENCODING 322
SWIDTH 250 0
DWIDTH 6 0
BBX 5 19 1 0
BITMAP
60
60
60
60
60
60
68
78
70
60
E0
E0
60
60
60
60
60
60
60
ENDCHAR
STARTCHAR 014B
ENCODING 331
SWIDTH 625 0
DWIDTH 15 0
BBX 11 17 2 -3
BITMAP
CF80
FFE0
E0E0
C060
C060
C060
C060
C060
C060
C060
C060
C060
C060
C060
0060
07E0
07C0
ENDCHAR
STARTCHAR 014C
ENCODING 332
SWIDTH 833 0
DWIDTH 20 0
BBX 16 23 2 0
BITMAP
0FF0
0FF0
0000
0000
0FF0
3FFC
781E
E006
C007
C007
C003
C003
C003
C003
C003
C003
C003
C007
C007
E006
781E
3FFC
0FF0
ENDCHAR
STARTCHAR 014D
ENCODING 333
SWIDTH 625 0
DWIDTH 15 0
BBX 13 18 1 0
BITMAP
1FC0
1FC0
0000
0000
1FC0
7FF0
7070
E038
C018
C018
C018
C018
C018
C018
E038
7030
7FF0
1FC0
ENDCHAR
STARTCHAR 0152
ENCODING 338
SWIDTH 1000 0
DWIDTH 24 0
BBX 22 19 1 0
BITMAP
07FFFC
1FFFFC
381C00
701C00
601C00
601C00
601C00
601C00
601FF8
E01FF8
601C00
601C00
601C00
601C00
601C00
701C00
381C00
1FFFFC
07FFFC
ENDCHAR
STARTCHAR 0153
ENCODING 339
SWIDTH 1000 0
DWIDTH 24 0
BBX 22 14 1 0
BITMAP
1F87E0
3FEFF8
707838
E0381C
C0300C
C0300C
C03FFC
C03FFC
C03000
C0300C
E0380C
707818
7FEFF8
1F87E0
ENDCHAR
STARTCHAR 0160
ENCODING 352
SWIDTH 750 0
DWIDTH 18 0
BBX 16 23 1 0
BITMAP
0660
03C0
01C0
0000
0FF0
3FFC
701C
600E
6006
6006
6000
7000
3FC0
1FFC
003E
0007
0007
E007
6007
6007
780E
3FFC
0FF0
ENDCHAR
STARTCHAR 0161
ENCODING 353
SWIDTH 625 0
DWIDTH 15 0
BBX 13 19 1 0
BITMAP
18C0
0D80
0700
0000
0000
1FC0
3FF0
6070
6030
6000
7000
7FE0
0FF0
0038
C018
E018
6038
7FF0
1FC0
ENDCHAR
STARTCHAR 0168
ENCODING 360
SWIDTH 833 0
DWIDTH 20 0
BBX 16 23 2 0
BITMAP
0FB0
09E0
0000
0000
C007
C007
C007
C007
C007
C007
C007
C007
C007
C007
C007
C007
C007
C007
E006
E00E
781E
3FFC
0FF0
ENDCHAR
STARTCHAR 0169
ENCODING 361
SWIDTH 625 0
DWIDTH 15 0
BBX 11 18 2 0
BITMAP
3E80
2780
0000
0000
C060
C060
C060
C060
C060
C060
C060
C060
C060
C060
C060
E0E0
7FE0
3F60
ENDCHAR
STARTCHAR 016A
ENCODING 362
SWIDTH 833 0
DWIDTH 20 0
BBX 16 23 2 0
BITMAP
0FF0
0FF0
0000
0000
C007
C007
C007
C007
C007
C007
C007
C007
C007
C007
C007
C007
C007
C007
E006
E00E
781E
3FFC
0FF0
ENDCHAR
STARTCHAR 016B
ENCODING 363
SWIDTH 625 0
DWIDTH 15 0
BBX 11 18 2 0
BITMAP
3F80
3F80
0000
0000
C060
C060
C060
C060
C060
C060
C060
C060
C060
C060
C060
E0E0
7FE0
3F60
ENDCHAR
STARTCHAR 016E
ENCODING 366
SWIDTH 833 0
DWIDTH 20 0
BBX 16 25 2 0
BITMAP
0380
0240
0440
0240
0380
0000
C007
C007
C007
C007
C007
C007
C007
C007
C007
C007
C007
C007
C007
C007
E006
E00E
781E
3FFC
0FF0
ENDCHAR
STARTCHAR 016F
ENCODING 367
SWIDTH 625 0
DWIDTH 15 0
BBX 11 20 2 0
BITMAP
0E00
1900
1100
1900
0E00
0000
C060
C060
C060
C060
C060
C060
C060
C060
C060
C060
C060
E0E0
7FE0
3F60
ENDCHAR
STARTCHAR 0178
ENCODING 376
SWIDTH 750 0
DWIDTH 18 0
BBX 16 23 1 0
BITMAP
0E70
0E70
0000
0000
E003
E007
700E
380C
381C
1C38
0C30
0E70
0760
03C0
03C0
0180
0180
0180
0180
0180
0180
0180
0180
ENDCHAR
STARTCHAR 017D
ENCODING 381
SWIDTH 750 0
DWIDTH 18 0
BBX 16 24 1 0
BITMAP
0630
0760
03C0
0000
0000
7FFF
7FFF
000E
000E
001C
0038
0070
00E0
01C0
0380
0380
0700
0E00
1C00
3800
7000
E000
FFFF
FFFF
ENDCHAR
STARTCHAR 017E
ENCODING 382
SWIDTH 500 0
DWIDTH 12 0
BBX 10 19 1 0
BITMAP
2100
3700
1E00
0000
0000
FFC0
FFC0
01C0
0380
0300
0600
0E00
1C00
1800
3000
7000
E000
FFC0
FFC0
ENDCHAR
STARTCHAR 01C0
ENCODING 448
SWIDTH 250 0
DWIDTH 6 0
BBX 2 22 2 -3
BITMAP
C0
C0
C0
C0
C0
C0
C0
C0
C0
C0
C0
C0
C0
C0
C0
C0
C0
C0
C0
C0
C0
C0
ENDCHAR
STARTCHAR 01CD
ENCODING 461
SWIDTH 750 0
DWIDTH 18 0
BBX 16 24 1 0
BITMAP
0630
0760
03C0
0000
0000
03C0
03C0
03E0
0760
0660
0670
0E30
0C30
1C38
1C18
1818
381C
3FFC
3FFE
700E
6006
6007
E007
C003
ENDCHAR
STARTCHAR 01CE
ENCODING 462
SWIDTH 625 0
DWIDTH 15 0
BBX 13 19 1 0
BITMAP
18C0
0D80
0700
0000
0000
1FC0
3FF0
7030
6030
0030
0030
1FF0
7FF0
E030
C030
C030
E070
7FF0
3F98
ENDCHAR
STARTCHAR 01CF
ENCODING 463
SWIDTH 250 0
DWIDTH 6 0
BBX 7 24 0 0
BITMAP
C6
EC
78
00
00
30
30
30
30
30
30
30
30
30
30
30
30
30
30
30
30
30
30
30
ENDCHAR
STARTCHAR 01D0
ENCODING 464
SWIDTH 250 0
DWIDTH 6 0
BBX 7 19 0 0
BITMAP
C6
EC
78
00
00
30
30
30
30
30
30
30
30
30
30
30
30
30
30
ENDCHAR
STARTCHAR 01D1
ENCODING 465
SWIDTH 833 0
DWIDTH 20 0
BBX 16 23 2 0
BITMAP
0E60
07C0
0380
0000
0FF0
3FFC
781E
E006
C007
C007
C003
C003
C003
C003
C003
C003
C003
C007
C007
E006
781E
3FFC
0FF0
ENDCHAR
STARTCHAR 01D2
ENCODING 466
SWIDTH 625 0
DWIDTH 15 0
BBX 13 19 1 0
BITMAP
18C0
0D80
0700
0000
0000
1FC0
7FF0
7070
E038
C018
C018
C018
C018
C018
C018
E038
7030
7FF0
1FC0
ENDCHAR
STARTCHAR 01D3
ENCODING 467
SWIDTH 833 0
DWIDTH 20 0
BBX 16 24 2 0
BITMAP
0C60
06C0
03C0
0000
0000
C007
C007
C007
C007
C007
C007
C007
C007
C007
C007
C007
C007
C007
C007
E006
E00E
781E
3FFC
0FF0
ENDCHAR
STARTCHAR 01D4
ENCODING 468
SWIDTH 625 0
DWIDTH 15 0
BBX 11 19 2 0
BITMAP
3180
1B00
0E00
0000
0000
C060
C060
C060
C060
C060
C060
C060
C060
C060
C060
C060
E0E0
7FE0
3F60
ENDCHAR
STARTCHAR 01FD
ENCODING 509
SWIDTH 1000 0
DWIDTH 24 0
BBX 22 19 1 0
BITMAP
001800
003000
006000
000000
000000
1FC7E0
7FEFF0
607838
60301C
00300C
00300C
1FFFFC
7FBFFC
E03000
C03000
C0701C
E0F818
7FDFF8
3F07E0
ENDCHAR
STARTCHAR 0251
ENCODING 593
SWIDTH 625 0
DWIDTH 15 0
BBX 13 14 1 0
BITMAP
1FB0
3FF0
7070
E030
C030
C030
C030
C030
C030
C030
E030
7070
7FF8
1FB8
ENDCHAR
STARTCHAR 0254
ENCODING 596
SWIDTH 625 0
DWIDTH 15 0
BBX 13 14 1 0
BITMAP
1FC0
7FF0
6070
E038
C018
0018
0018
0018
0018
C018
E038
7070
7FF0
1FC0
ENDCHAR
STARTCHAR 0259
ENCODING 601
SWIDTH 625 0
DWIDTH 15 0
BBX 13 14 1 0
BITMAP
1FC0
7FF0
6070
C038
C018
0018
FFF8
FFF8
C018
C018
E038
7070
7FE0
1FC0
ENDCHAR
STARTCHAR 025A
ENCODING 602
SWIDTH 916 0
DWIDTH 22 0
BBX 20 14 1 0
BITMAP
1FC000
7FE000
607000
C03000
C03000
003800
FFFF00
FFFF00
C03700
C03700
E03730
707330
7FE3F0
1F81E0
ENDCHAR
STARTCHAR 025B
ENCODING 603
SWIDTH 625 0
DWIDTH 15 0
BBX 13 14 1 0
BITMAP
1FC0
7FF0
E030
E038
E000
6000
3F00
7F00
E000
C018
C018
E038
7FF0
1FC0
ENDCHAR
STARTCHAR 0275
ENCODING 629
SWIDTH 625 0
DWIDTH 15 0
BBX 13 19 1 0
BITMAP
1FC0
3FE0
7070
6030
E018
C018
C018
C018
FFF8
FFF8
C018
C018
C018
E018
6038
6030
7070
3FE0
1FC0
ENDCHAR
STARTCHAR 0283
ENCODING 643
SWIDTH 458 0
DWIDTH 11 0
BBX 9 22 1 -3
BITMAP
0780
0F80
1C00
1800
1800
1800
1800
1800
1800
1800
1800
1800
1800
1800
1800
1800
1800
1800
1800
1800
F800
F000
ENDCHAR
STARTCHAR 028C
ENCODING 652
SWIDTH 541 0
DWIDTH 13 0
BBX 12 14 1 0
BITMAP
0E00
0F00
1F00
1B00
1B80
3980
3180
31C0
70C0
60C0
60E0
E060
C060
C070
ENDCHAR
STARTCHAR 0292
ENCODING 658
SWIDTH 625 0
DWIDTH 15 0
BBX 13 17 1 -3
BITMAP
7FF0
7FF0
00E0
01C0
0780
0E00
1FC0
1FF0
1070
0038
0018
0018
C018
E018
7030
7FF0
1FC0
ENDCHAR
STARTCHAR 02D0
ENCODING 720
SWIDTH 250 0
DWIDTH 6 0
BBX 4 14 1 0
BITMAP
F0
60
60
00
00
00
00
00
00
00
00
60
60
F0
ENDCHAR
STARTCHAR 0300
ENCODING 768
SWIDTH 333 0
DWIDTH 8 0
BBX 5 3 1 16
BITMAP
E0
70
18
ENDCHAR
STARTCHAR 0301
ENCODING 769
SWIDTH 333 0
DWIDTH 8 0
BBX 4 3 2 16
BITMAP
30
60
C0
ENDCHAR
STARTCHAR 0302
ENCODING 770
SWIDTH 333 0
DWIDTH 8 0
BBX 7 3 0 16
BITMAP
38
7C
E6
ENDCHAR
STARTCHAR 0303
ENCODING 771
SWIDTH 333 0
DWIDTH 8 0
BBX 8 2 0 16
BITMAP
FB
9E
ENDCHAR
STARTCHAR 0304
ENCODING 772
SWIDTH 333 0
DWIDTH 8 0
BBX 8 2 0 16
BITMAP
FF
FF
ENDCHAR
STARTCHAR 0305
ENCODING 773
SWIDTH 500 0
DWIDTH 12 0
BBX 12 1 0 20
BITMAP
FFF0
ENDCHAR
STARTCHAR 0306
ENCODING 774
SWIDTH 333 0
DWIDTH 8 0
BBX 7 3 0 16
BITMAP
82
7E
3C
ENDCHAR
STARTCHAR 0307
ENCODING 775
SWIDTH 250 0
DWIDTH 6 0
BBX 2 2 2 16
BITMAP
C0
C0
ENDCHAR
STARTCHAR 0308
ENCODING 776
SWIDTH 333 0
DWIDTH 8 0
BBX 7 2 0 16
BITMAP
E6
E6
ENDCHAR
STARTCHAR 030A
ENCODING 778
SWIDTH 333 0
DWIDTH 8 0
BBX 5 5 1 15
BITMAP
70
48
88
48
70
ENDCHAR
STARTCHAR 030B
ENCODING 779
SWIDTH 458 0
DWIDTH 11 0
BBX 8 3 2 16
BITMAP
77
66
CC
ENDCHAR
STARTCHAR 030C
ENCODING 780
SWIDTH 333 0
DWIDTH 8 0
BBX 7 3 0 16
BITMAP
C6
6C
3C
ENDCHAR
STARTCHAR 0327
ENCODING 807
SWIDTH 166 0
DWIDTH 4 0
BBX 3 4 1 -4
BITMAP
80
E0
20
E0
ENDCHAR
STARTCHAR 0328
ENCODING 808
SWIDTH 250 0
DWIDTH 6 0
BBX 4 4 1 -4
BITMAP
60
40
C0
70
ENDCHAR
STARTCHAR 0332
ENCODING 818
SWIDTH 500 0
DWIDTH 12 0
BBX 12 1 0 -3
BITMAP
FFF0
ENDCHAR
STARTCHAR 0336
ENCODING 822
SWIDTH 1000 0
DWIDTH 24 0
BBX 24 2 0 6
BITMAP
FFFFFF
FFFFFF
ENDCHAR
STARTCHAR 0361
ENCODING 865
SWIDTH 1000 0
DWIDTH 24 0
BBX 24 7 0 14
BITMAP
007E00
03FFC0
0E0070
180018
30000E
600007
C00003
ENDCHAR
STARTCHAR 0391
ENCODING 913
SWIDTH 1000 0
DWIDTH 24 0
BBX 16 19 4 0
BITMAP
03C0
03C0
03C0
07E0
0660
0E70
0C30
0C30
1C38
1818
1818
381C
3FFC
7FFC
700E
6006
E007
E007
C003
ENDCHAR
STARTCHAR 0392
ENCODING 914
SWIDTH 1000 0
DWIDTH 24 0
BBX 15 19 5 0
BITMAP
FFF0
FFF8
C01C
C01C
C00C
C00C
C01C
C018
FFF0
FFF8
C01C
C00C
C00E
C00E
C00E
C00C
C01C
FFF8
FFF0
ENDCHAR
STARTCHAR 0393
ENCODING 915
SWIDTH 1000 0
DWIDTH 24 0
BBX 13 19 6 0
BITMAP
FFF8
FFF8
E000
E000
E000
E000
E000
E000
E000
E000
E000
E000
E000
E000
E000
E000
E000
E000
E000
ENDCHAR
STARTCHAR 0394
ENCODING 916
SWIDTH 1000 0
DWIDTH 24 0
BBX 16 19 4 0
BITMAP
03C0
03C0
03C0
07E0
0660
0E70
0C30
0C30
1C38
1818
1818
381C
300C
700E
700E
6006
E007
FFFF
FFFF
ENDCHAR
STARTCHAR 0395
ENCODING 917
SWIDTH 1000 0
DWIDTH 24 0
BBX 13 19 6 0
BITMAP
FFF8
FFF8
C000
C000
C000
C000
C000
C000
FFF8
FFF8
C000
C000
C000
C000
C000
C000
C000
FFF8
FFF8
ENDCHAR
STARTCHAR 0396
ENCODING 918
SWIDTH 1000 0
DWIDTH 24 0
BBX 16 19 4 0
BITMAP
7FFF
7FFF
000E
001C
001C
0038
0070
00E0
01C0
0380
0700
0700
0E00
1C00
3800
7000
E000
FFFF
FFFF
ENDCHAR
STARTCHAR 0397
ENCODING 919
SWIDTH 1000 0
DWIDTH 24 0
BBX 16 19 4 0
BITMAP
C003
C003
C003
C003
C003
C003
C003
C003
FFFF
FFFF
C003
C003
C003
C003
C003
C003
C003
C003
C003
ENDCHAR
STARTCHAR 0398
ENCODING 920
SWIDTH 1000 0
DWIDTH 24 0
BBX 16 19 4 0
BITMAP
0FF0
3FFC
701E
6006
E007
C003
C003
C003
DFFB
DFFB
C003
C003
C003
C003
E007
6006
781E
3FFC
0FF0
ENDCHAR
STARTCHAR 0399
ENCODING 921
SWIDTH 1000 0
DWIDTH 24 0
BBX 2 19 11 0
BITMAP
C0
C0
C0
C0
C0
C0
C0
C0
C0
C0
C0
C0
C0
C0
C0
C0
C0
C0
C0
ENDCHAR
STARTCHAR 039A
ENCODING 922
SWIDTH 1000 0
DWIDTH 24 0
BBX 15 19 5 0
BITMAP
C01E
C038
C070
C0E0
C1C0
C380
C700
CE00
DC00
F800
DC00
CE00
C780
C3C0
C0E0
C070
C038
C01C
C00E
ENDCHAR
STARTCHAR 039B
ENCODING 923
SWIDTH 1000 0
DWIDTH 24 0
BBX 16 19 4 0
BITMAP
03C0
03C0
03C0
07E0
0660
0E70
0E70
0C30
1C38
1818
1818
381C
300C
300C
700E
6006
E007
E007
C003
ENDCHAR
STARTCHAR 039C
ENCODING 924
SWIDTH 1000 0
DWIDTH 24 0
BBX 18 19 3 0
BITMAP
E001C0
F003C0
F003C0
F003C0
D806C0
D806C0
D806C0
CC0CC0
CC0CC0
CC0CC0
C618C0
C618C0
C618C0
C330C0
C330C0
C330C0
C1E0C0
C1E0C0
C1E0C0
ENDCHAR
STARTCHAR 039D
ENCODING 925
SWIDTH 1000 0
DWIDTH 24 0
BBX 16 19 4 0
BITMAP
F003
F003
D803
DC03
CC03
CE03
C603
C303
C383
C183
C1C3
C0C3
C0E3
C073
C033
C03B
C01B
C01F
C00F
ENDCHAR
STARTCHAR 039E
ENCODING 926
SWIDTH 1000 0
DWIDTH 24 0
BBX 14 19 5 0
BITMAP
FFFC
FFFC
0000
0000
0000
0000
0000
0000
7FF8
7FF8
0000
0000
0000
0000
0000
0000
0000
FFFC
FFFC
ENDCHAR
STARTCHAR 039F
ENCODING 927
SWIDTH 1000 0
DWIDTH 24 0
BBX 16 19 4 0
BITMAP
0FF0
3FFC
781E
6006
E007
C003
C003
C003
C003
C003
C003
C003
C003
C003
E007
6006
781E
3FFC
0FF0
ENDCHAR
STARTCHAR 03A0
ENCODING 928
SWIDTH 1000 0
DWIDTH 24 0
BBX 16 19 4 0
BITMAP
FFFF
FFFF
C003
C003
C003
C003
C003
C003
C003
C003
C003
C003
C003
C003
C003
C003
C003
C003
C003
ENDCHAR
STARTCHAR 03A1
ENCODING 929
SWIDTH 1000 0
DWIDTH 24 0
BBX 15 19 5 0
BITMAP
FFF8
FFFC
C00E
C006
C006
C006
C006
C006
C006
C00E
FFFC
FFF0
C000
C000
C000
C000
C000
C000
C000
ENDCHAR
STARTCHAR 03A3
ENCODING 931
SWIDTH 1000 0
DWIDTH 24 0
BBX 16 19 4 0
BITMAP
FFFF
FFFF
7000
3800
1C00
0E00
0700
0380
01C0
00E0
01C0
0380
0700
0E00
1C00
3800
7000
FFFF
FFFF
ENDCHAR
STARTCHAR 03A4
ENCODING 932
SWIDTH 1000 0
DWIDTH 24 0
BBX 16 19 4 0
BITMAP
FFFF
FFFF
0180
0180
0180
0180
0180
0180
0180
0180
0180
0180
0180
0180
0180
0180
0180
0180
0180
ENDCHAR
STARTCHAR 03A5
ENCODING 933
SWIDTH 1000 0
DWIDTH 24 0
BBX 16 19 4 0
BITMAP
C003
E007
700E
300C
381C
1C38
0C30
0E70
07E0
03C0
03C0
0180
0180
0180
0180
0180
0180
0180
0180
ENDCHAR
STARTCHAR 03A6
ENCODING 934
SWIDTH 1000 0
DWIDTH 24 0
BBX 16 19 4 0
BITMAP
0180
0180
0FF0
3FFC
799E
E187
E187
C183
C183
C183
C183
C183
C183
E187
718E
3FFC
0FF0
0180
0180
ENDCHAR
STARTCHAR 03A7
ENCODING 935
SWIDTH 1000 0
DWIDTH 24 0
BBX 16 19 4 0
BITMAP
E007
700E
300C
381C
1C38
0C30
0E70
07E0
03C0
03C0
07E0
0660
0E70
1C38
1818
381C
700E
E007
E007
ENDCHAR
STARTCHAR 03A8
ENCODING 936
SWIDTH 1000 0
DWIDTH 24 0
BBX 18 19 3 0
BITMAP
E0C1C0
E0C1C0
E0C1C0
E0C1C0
E0C1C0
E0C1C0
E0C1C0
E0C1C0
E0C1C0
E0C1C0
60C180
70C380
38C700
1FFE00
07F800
00C000
00C000
00C000
00C000
ENDCHAR
STARTCHAR 03A9
ENCODING 937
SWIDTH 1000 0
DWIDTH 24 0
BBX 18 19 3 0
BITMAP
07F800
1FFE00
3C0F00
300300
700380
600180
600180
600180
600180
600180
600180
600180
600180
700180
300300
380700
1C0E00
FE1FC0
FE1FC0
ENDCHAR
STARTCHAR 03B1
ENCODING 945
SWIDTH 1000 0
DWIDTH 24 0
BBX 18 14 4 0
BITMAP
07E1C0
1FF180
383B00
301B00
701E00
601E00
601C00
C01C00
C01800
C03800
E07800
E0F800
7FDE00
1F1E00
ENDCHAR
STARTCHAR 03B2
ENCODING 946
SWIDTH 1000 0
DWIDTH 24 0
BBX 15 22 4 -3
BITMAP
01F8
03FE
070E
0606
0E06
0C06
0C06
0C0C
1DFC
19F8
1818
180C
300C
300C
301C
7018
7838
7FF0
67E0
E000
C000
C000
ENDCHAR
STARTCHAR 03B3
ENCODING 947
SWIDTH 1000 0
DWIDTH 24 0
BBX 14 17 6 -3
BITMAP
E01C
E018
7038
3070
30E0
30C0
3980
1B80
1F00
1E00
1C00
1C00
1800
1800
1800
3800
3000
ENDCHAR
STARTCHAR 03B4
ENCODING 948
SWIDTH 1000 0
DWIDTH 24 0
BBX 15 19 5 0
BITMAP
07FE
0FFE
0700
0380
01C0
07E0
1FF0
3838
3018
6018
6018
6018
C018
C030
C030
C070
E0E0
7FC0
3F80
ENDCHAR
STARTCHAR 03B5
ENCODING 949
SWIDTH 1000 0
DWIDTH 24 0
BBX 12 14 6 0
BITMAP
0FE0
3FF0
3030
7030
6030
7000
3F00
7F00
E000
C000
C060
C0E0
FFC0
7F80
ENDCHAR
STARTCHAR 03B6
ENCODING 950
SWIDTH 1000 0
DWIDTH 24 0
BBX 13 23 6 -4
BITMAP
1FF8
1FF0
01E0
0380
0700
1C00
1800
3000
7000
6000
E000
C000
C000
C000
C000
C000
FF00
7F80
0180
0180
0180
0300
0300
ENDCHAR
STARTCHAR 03B7
ENCODING 951
SWIDTH 1000 0
DWIDTH 24 0
BBX 15 18 4 -4
BITMAP
79F8
7FFC
1E0E
1C06
1806
180E
300C
300C
300C
701C
6018
6018
6018
E030
0030
0030
0070
0060
ENDCHAR
STARTCHAR 03B8
ENCODING 952
SWIDTH 1000 0
DWIDTH 24 0
BBX 14 19 5 0
BITMAP
03F0
0FFC
0C1C
180C
380C
300C
300C
701C
7FF8
7FF8
6018
C030
C030
C030
C060
C060
E0C0
FFC0
3F00
ENDCHAR
STARTCHAR 03B9
ENCODING 953
SWIDTH 1000 0
DWIDTH 24 0
BBX 6 14 9 0
BITMAP
1C
18
18
38
30
30
30
70
60
60
E0
E0
F8
78
ENDCHAR
STARTCHAR 03BA
ENCODING 954
SWIDTH 1000 0
DWIDTH 24 0
BBX 15 14 5 0
BITMAP
0C1E
0C38
0C70
18E0
19C0
1F00
3E00
3700
3300
3180
71C0
60C0
6060
E070
ENDCHAR
STARTCHAR 03BB
ENCODING 955
SWIDTH 1000 0
DWIDTH 24 0
BBX 15 19 4 0
BITMAP
03C0
03C0
00E0
0060
0060
0060
00E0
00E0
01E0
03F0
0330
0730
0E30
0C30
1C30
3830
3038
703E
E01C
ENDCHAR
STARTCHAR 03BC
ENCODING 956
SWIDTH 1000 0
DWIDTH 24 0
BBX 16 17 4 -3
BITMAP
0C03
0C03
0C07
1806
1806
1806
380E
300C
300C
301C
7018
7838
7FFF
6FCE
C000
C000
C000
ENDCHAR
STARTCHAR 03BD
ENCODING 957
SWIDTH 1000 0
DWIDTH 24 0
BBX 14 14 6 0
BITMAP
C01C
E038
E030
6070
60E0
60C0
61C0
6180
6300
6700
7600
3C00
3C00
3800
ENDCHAR
STARTCHAR 03BE
ENCODING 958
SWIDTH 1000 0
DWIDTH 24 0
BBX 13 22 5 -3
BITMAP
1FF8
1FF8
0600
0C00
0C00
0C00
0C00
0C00
0FE0
3FE0
3000
6000
6000
E000
E000
E000
7F80
3FC0
00E0
00C0
00C0
00C0
ENDCHAR
STARTCHAR 03BF
ENCODING 959
SWIDTH 1000 0
DWIDTH 24 0
BBX 14 14 5 0
BITMAP
07F0
1FF8
381C
300C
700C
600C
601C
E018
C018
C018
C030
E070
7FE0
3F80
ENDCHAR
STARTCHAR 03C0
ENCODING 960
SWIDTH 1000 0
DWIDTH 24 0
BBX 15 14 5 0
BITMAP
7FFE
FFFE
1830
3830
3030
3070
7060
6060
6060
60C0
E0C0
C0C0
C0F0
C0F0
ENDCHAR
STARTCHAR 03C1
ENCODING 961
SWIDTH 1000 0
DWIDTH 24 0
BBX 16 17 4 -3
BITMAP
01F8
07FE
0E0E
0C07
1C07
1807
1806
1806
3806
380C
380C
7C38
6FF8
67E0
6000
E000
C000
ENDCHAR
STARTCHAR 03C3
ENCODING 963
SWIDTH 1000 0
DWIDTH 24 0
BBX 16 14 5 0
BITMAP
07FF
1FFF
3818
3018
601C
6018
E018
C018
C018
C030
C030
E0E0
7FE0
3F80
ENDCHAR
STARTCHAR 03C4
ENCODING 964
SWIDTH 1000 0
DWIDTH 24 0
BBX 11 14 7 0
BITMAP
FFE0
FFE0
0C00
1C00
1800
1800
1800
3000
3000
3000
7000
7000
7C00
3C00
ENDCHAR
STARTCHAR 03C5
ENCODING 965
SWIDTH 1000 0
DWIDTH 24 0
BBX 15 14 5 0
BITMAP
380E
300C
300C
301C
7018
6018
6018
6038
C030
C030
C070
E0E0
7FE0
3F80
ENDCHAR
STARTCHAR 03C6
ENCODING 966
SWIDTH 1000 0
DWIDTH 24 0
BBX 16 21 4 -3
BITMAP
0010
0070
0060
0060
07F8
1FFE
3CC6
30C7
60C3
61C3
6183
C187
C386
C306
E30C
731C
7FF8
1FE0
0600
0600
0C00
ENDCHAR
STARTCHAR 03C7
ENCODING 967
SWIDTH 1000 0
DWIDTH 24 0
BBX 15 17 4 -3
BITMAP
1C06
1E0E
061C
0638
0770
0360
03E0
01C0
0380
07C0
06C0
0EE0
1C60
3860
7030
603C
E01C
ENDCHAR
STARTCHAR 03C8
ENCODING 968
SWIDTH 1000 0
DWIDTH 24 0
BBX 16 21 4 -3
BITMAP
0070
0060
0060
0060
38E3
30C3
30C3
31C7
7186
6186
6186
638E
C30C
C30C
C31C
E738
7FF8
1FE0
0E00
0C00
0C00
ENDCHAR
STARTCHAR 03C9
ENCODING 969
SWIDTH 1000 0
DWIDTH 24 0
BBX 16 14 4 0
BITMAP
1C07
1803
3003
70C3
60C3
60C3
C183
C183
C183
C383
C386
C78E
FFFC
7CF8
ENDCHAR
STARTCHAR 03D0
ENCODING 976
SWIDTH 1000 0
DWIDTH 24 0
BBX 15 20 5 -1
BITMAP
03F8
0FFC
1C0E
180C
3FFC
3FE0
3000
67C0
7FE0
7070
E030
E030
C030
C030
C030
C030
C060
E0E0
7FC0
3F00
ENDCHAR
STARTCHAR 03D1
ENCODING 977
SWIDTH 1000 0
DWIDTH 24 0
BBX 15 20 4 -1
BITMAP
01F8
03FE
070E
0E06
0C06
0C06
0C06
0C06
0E06
070C
03CC
70FC
F03E
301E
7018
6038
6030
7070
3FE0
1F80
ENDCHAR
STARTCHAR 03DB
ENCODING 987
SWIDTH 1000 0
DWIDTH 24 0
BBX 12 18 6 -4
BITMAP
1FC0
3FE0
7070
6030
E030
C030
C000
C000
C000
C000
F000
7E00
1F80
03C0
00C0
00C0
01C0
0180
ENDCHAR
STARTCHAR 0401
ENCODING 1025
SWIDTH 1000 0
DWIDTH 24 0
BBX 13 23 6 0
BITMAP
39C0
39C0
0000
0000
FFF8
FFF8
C000
C000
C000
C000
C000
C000
FFF8
FFF8
C000
C000
C000
C000
C000
C000
C000
FFF8
FFF8
ENDCHAR
STARTCHAR 0410
ENCODING 1040
SWIDTH 1000 0
DWIDTH 24 0
BBX 16 19 4 0
BITMAP
03C0
03C0
03C0
07E0
0660
0E70
0C30
0C30
1C38
1818
1818
381C
3FFC
7FFC
700E
6006
E007
E007
C003
ENDCHAR
STARTCHAR 0411
ENCODING 1041
SWIDTH 1000 0
DWIDTH 24 0
BBX 14 19 5 0
BITMAP
FFFC
FFFC
C000
C000
C000
C000
C000
C000
FFF0
FFF8
C01C
C00C
C00C
C00C
C00C
C00C
C01C
FFF8
FFF0
ENDCHAR
STARTCHAR 0412
ENCODING 1042
SWIDTH 1000 0
DWIDTH 24 0
BBX 15 19 5 0
BITMAP
FFF0
FFF8
C01C
C01C
C00C
C00C
C01C
C018
FFF0
FFF8
C01C
C00C
C00E
C00E
C00E
C00C
C01C
FFF8
FFF0
ENDCHAR
STARTCHAR 0413
ENCODING 1043
SWIDTH 1000 0
DWIDTH 24 0
BBX 13 19 6 0
BITMAP
FFF8
FFF8
E000
E000
E000
E000
E000
E000
E000
E000
E000
E000
E000
E000
E000
E000
E000
E000
E000
ENDCHAR
STARTCHAR 0414
ENCODING 1044
SWIDTH 1000 0
DWIDTH 24 0
BBX 18 22 3 -3
BITMAP
0FFF00
0FFF00
0C0300
0C0300
0C0300
0C0300
0C0300
0C0300
0C0300
0C0300
0C0300
1C0300
1C0300
180300
180300
380300
300300
FFFFC0
FFFFC0
C000C0
C000C0
C000C0
ENDCHAR
STARTCHAR 0415
ENCODING 1045
SWIDTH 1000 0
DWIDTH 24 0
BBX 13 19 6 0
BITMAP
FFF8
FFF8
C000
C000
C000
C000
C000
C000
FFF8
FFF8
C000
C000
C000
C000
C000
C000
C000
FFF8
FFF8
ENDCHAR
STARTCHAR 0416
ENCODING 1046
SWIDTH 1000 0
DWIDTH 24 0
BBX 22 19 1 0
BITMAP
E0301C
703038
383070
183060
1C30E0
0E31C0
073380
03B700
01B600
01FE00
01B600
033300
073380
0E31C0
1C30E0
183060
303070
703038
E0301C
ENDCHAR
STARTCHAR 0417
ENCODING 1047
SWIDTH 1000 0
DWIDTH 24 0
BBX 16 19 4 0
BITMAP
0FF0
3FFC
381E
7006
6006
6006
0006
000E
03FC
03FC
000E
0006
E007
6007
6006
6006
781E
3FFC
0FF0
ENDCHAR
STARTCHAR 0418
ENCODING 1048
SWIDTH 1000 0
DWIDTH 24 0
BBX 16 19 4 0
BITMAP
C00F
C01F
C01B
C03B
C033
C073
C063
C0C3
C1C3
C183
C383
C303
C603
CE03
CC03
DC03
D803
F003
F003
ENDCHAR
STARTCHAR 0419
ENCODING 1049
SWIDTH 1000 0
DWIDTH 24 0
BBX 16 23 4 0
BITMAP
0420
07E0
0000
0000
C00F
C01F
C01B
C03B
C033
C073
C063
C0C3
C1C3
C183
C383
C303
C603
CE03
CC03
DC03
D803
F003
F003
ENDCHAR
STARTCHAR 041A
ENCODING 1050
SWIDTH 1000 0
DWIDTH 24 0
BBX 15 19 5 0
BITMAP
C01E
C038
C070
C0E0
C1C0
C380
C700
CE00
DC00
F800
DC00
CE00
C780
C3C0
C0E0
C070
C038
C01C
C00E
ENDCHAR
STARTCHAR 041B
ENCODING 1051
SWIDTH 1000 0
DWIDTH 24 0
BBX 18 19 2 0
BITMAP
07FFC0
07FFC0
0601C0
0601C0
0601C0
0601C0
0601C0
0601C0
0601C0
0601C0
0601C0
0601C0
0601C0
0601C0
0601C0
0601C0
C601C0
FE01C0
7C01C0
ENDCHAR
STARTCHAR 041C
ENCODING 1052
SWIDTH 1000 0
DWIDTH 24 0
BBX 18 19 3 0
BITMAP
E001C0
F003C0
F003C0
F003C0
D806C0
D806C0
D806C0
CC0CC0
CC0CC0
CC0CC0
C618C0
C618C0
C618C0
C330C0
C330C0
C330C0
C1E0C0
C1E0C0
C1E0C0
ENDCHAR
STARTCHAR 041D
ENCODING 1053
SWIDTH 1000 0
DWIDTH 24 0
BBX 16 19 4 0
BITMAP
C003
C003
C003
C003
C003
C003
C003
C003
FFFF
FFFF
C003
C003
C003
C003
C003
C003
C003
C003
C003
ENDCHAR
STARTCHAR 041E
ENCODING 1054
SWIDTH 1000 0
DWIDTH 24 0
BBX 16 19 4 0
BITMAP
0FF0
3FFC
781E
6006
E007
C003
C003
C003
C003
C003
C003
C003
C003
C003
E007
6006
781E
3FFC
0FF0
ENDCHAR
STARTCHAR 041F
ENCODING 1055
SWIDTH 1000 0
DWIDTH 24 0
BBX 16 19 4 0
BITMAP
FFFF
FFFF
C003
C003
C003
C003
C003
C003
C003
C003
C003
C003
C003
C003
C003
C003
C003
C003
C003
ENDCHAR
STARTCHAR 0420
ENCODING 1056
SWIDTH 1000 0
DWIDTH 24 0
BBX 15 19 5 0
BITMAP
FFF8
FFFC
C00E
C006
C006
C006
C006
C006
C006
C00E
FFFC
FFF0
C000
C000
C000
C000
C000
C000
C000
ENDCHAR
STARTCHAR 0421
ENCODING 1057
SWIDTH 1000 0
DWIDTH 24 0
BBX 16 19 4 0
BITMAP
07F0
1FFC
381E
700E
6006
6006
6000
E000
E000
E000
E000
E000
6007
6007
6006
7006
381E
1FFC
0FF0
ENDCHAR
STARTCHAR 0422
ENCODING 1058
SWIDTH 1000 0
DWIDTH 24 0
BBX 16 19 4 0
BITMAP
FFFF
FFFF
0180
0180
0180
0180
0180
0180
0180
0180
0180
0180
0180
0180
0180
0180
0180
0180
0180
ENDCHAR
STARTCHAR 0423
ENCODING 1059
SWIDTH 1000 0
DWIDTH 24 0
BBX 13 19 6 0
BITMAP
E018
E018
6038
7030
3070
3060
3860
18E0
18C0
1DC0
0D80
0F80
0780
0700
0700
0600
0E00
FC00
F800
ENDCHAR
STARTCHAR 0424
ENCODING 1060
SWIDTH 1000 0
DWIDTH 24 0
BBX 16 19 4 0
BITMAP
0180
0180
0FF0
3FFC
799E
E187
E187
C183
C183
C183
C183
C183
C183
E187
718E
3FFC
0FF0
0180
0180
ENDCHAR
STARTCHAR 0425
ENCODING 1061
SWIDTH 1000 0
DWIDTH 24 0
BBX 16 19 4 0
BITMAP
E007
700E
300C
381C
1C38
0C30
0E70
07E0
03C0
03C0
07E0
0660
0E70
1C38
1818
381C
700E
E007
E007
ENDCHAR
STARTCHAR 0426
ENCODING 1062
SWIDTH 1000 0
DWIDTH 24 0
BBX 18 22 4 -3
BITMAP
E00600
E00600
E00600
E00600
E00600
E00600
E00600
E00600
E00600
E00600
E00600
E00600
E00600
E00600
E00600
E00600
E00600
FFFFC0
FFFFC0
0001C0
0001C0
0001C0
ENDCHAR
STARTCHAR 0427
ENCODING 1063
SWIDTH 1000 0
DWIDTH 24 0
BBX 14 19 5 0
BITMAP
C00C
C00C
C00C
C00C
C00C
C00C
C00C
C00C
E01C
E07C
7FEC
3F8C
000C
000C
000C
000C
000C
000C
000C
ENDCHAR
STARTCHAR 0428
ENCODING 1064
SWIDTH 1000 0
DWIDTH 24 0
BBX 20 19 2 0
BITMAP
C06030
C06030
C06030
C06030
C06030
C06030
C06030
C06030
C06030
C06030
C06030
C06030
C06030
C06030
C06030
C06030
C06030
FFFFF0
FFFFF0
ENDCHAR
STARTCHAR 0429
ENCODING 1065
SWIDTH 1000 0
DWIDTH 24 0
BBX 21 22 2 -3
BITMAP
C0E060
C0E060
C0E060
C0E060
C0E060
C0E060
C0E060
C0E060
C0E060
C0E060
C0E060
C0E060
C0E060
C0E060
C0E060
C0E060
C0E060
FFFFF8
FFFFF8
000018
000018
000018
ENDCHAR
STARTCHAR 042A
ENCODING 1066
SWIDTH 1000 0
DWIDTH 24 0
BBX 18 19 3 0
BITMAP
FE0000
FE0000
060000
060000
060000
060000
060000
060000
07FF00
07FF80
0601C0
0600C0
0600C0
0600C0
0600C0
0600C0
0601C0
07FF80
07FE00
ENDCHAR
STARTCHAR 042B
ENCODING 1067
SWIDTH 1000 0
DWIDTH 24 0
BBX 18 19 3 0
BITMAP
C000C0
C000C0
C000C0
C000C0
C000C0
C000C0
C000C0
C000C0
FFE0C0
FFF0C0
C038C0
C018C0
C018C0
C018C0
C018C0
C018C0
C038C0
FFF0C0
FFE0C0
ENDCHAR
STARTCHAR 042C
ENCODING 1068
SWIDTH 1000 0
DWIDTH 24 0
BBX 14 19 6 0
BITMAP
C000
C000
C000
C000
C000
C000
C000
C000
FFE0
FFF8
C038
C01C
C01C
C01C
C01C
C01C
C038
FFF8
FFE0
ENDCHAR
STARTCHAR 042D
ENCODING 1069
SWIDTH 1000 0
DWIDTH 24 0
BBX 16 19 4 0
BITMAP
0FF0
3FFC
701E
600E
E006
E007
E007
0003
0003
03FF
03FF
0003
0003
E007
E007
6006
700E
3FFC
0FF0
ENDCHAR
STARTCHAR 042E
ENCODING 1070
SWIDTH 1000 0
DWIDTH 24 0
BBX 19 19 3 0
BITMAP
E07F00
E1FF80
E1C1C0
E380C0
E300E0
E30060
E30060
E30060
FF0060
FF0060
E30060
E30060
E30060
E30060
E300E0
E380C0
E1C1C0
E1FF80
E07F00
ENDCHAR
STARTCHAR 042F
ENCODING 1071
SWIDTH 1000 0
DWIDTH 24 0
BBX 15 19 4 0
BITMAP
1FFE
3FFE
7006
6006
E006
E006
E006
6006
7006
3FFE
3FFE
7006
6006
6006
6006
6006
6006
6006
E006
ENDCHAR
STARTCHAR 0430
ENCODING 1072
SWIDTH 1000 0
DWIDTH 24 0
BBX 12 14 6 0
BITMAP
1FC0
7FE0
E070
C030
0030
1FF0
7FF0
E030
C030
C030
C070
C070
FFF0
3F30
ENDCHAR
STARTCHAR 0431
ENCODING 1073
SWIDTH 1000 0
DWIDTH 24 0
BBX 12 19 6 0
BITMAP
00E0
3FE0
7F80
E000
C000
DF80
FFE0
E070
C030
C030
C030
C030
C030
C030
C030
C030
6070
7FE0
1F80
ENDCHAR
STARTCHAR 0432
ENCODING 1074
SWIDTH 1000 0
DWIDTH 24 0
BBX 11 14 7 0
BITMAP
FF80
FFC0
C0E0
C060
C060
C0C0
FF80
FFC0
C060
C060
C060
C060
FFE0
FFC0
ENDCHAR
STARTCHAR 0433
ENCODING 1075
SWIDTH 1000 0
DWIDTH 24 0
BBX 10 14 7 0
BITMAP
FFC0
FFC0
E000
E000
E000
E000
E000
E000
E000
E000
E000
E000
E000
E000
ENDCHAR
STARTCHAR 0434
ENCODING 1076
SWIDTH 1000 0
DWIDTH 24 0
BBX 14 17 5 -3
BITMAP
1FF0
1FF0
1830
1830
1830
1830
1830
1830
1830
1830
3030
3030
FFFC
FFFC
C00C
C00C
C00C
ENDCHAR
STARTCHAR 0435
ENCODING 1077
SWIDTH 1000 0
DWIDTH 24 0
BBX 12 14 6 0
BITMAP
1FC0
7FE0
E070
C030
C030
C030
FFF0
FFF0
C000
C000
C030
E070
7FE0
1FC0
ENDCHAR
STARTCHAR 0436
ENCODING 1078
SWIDTH 1000 0
DWIDTH 24 0
BBX 16 14 4 0
BITMAP
E187
6186
318C
1998
1DB8
0DB0
07E0
0DB0
1DB8
1998
318C
618E
E187
C183
ENDCHAR
STARTCHAR 0437
ENCODING 1079
SWIDTH 1000 0
DWIDTH 24 0
BBX 12 14 6 0
BITMAP
1FC0
7FE0
6070
C030
0030
0060
07E0
07E0
0070
C030
C030
E070
7FE0
3FC0
ENDCHAR
STARTCHAR 0438
ENCODING 1080
SWIDTH 1000 0
DWIDTH 24 0
BBX 10 14 7 0
BITMAP
C1C0
C1C0
C3C0
C3C0
C6C0
C6C0
CCC0
CCC0
D8C0
D8C0
F0C0
F0C0
E0C0
E0C0
ENDCHAR
STARTCHAR 0439
ENCODING 1081
SWIDTH 1000 0
DWIDTH 24 0
BBX 10 19 7 0
BITMAP
6180
3F00
1E00
0000
0000
C1C0
C3C0
C3C0
C7C0
C6C0
C6C0
CCC0
CCC0
D8C0
D8C0
F0C0
F0C0
E0C0
E0C0
ENDCHAR
STARTCHAR 043A
ENCODING 1082
SWIDTH 1000 0
DWIDTH 24 0
BBX 11 14 7 0
BITMAP
C1C0
C380
C300
C600
CC00
D800
F000
D800
CC00
C600
C700
C380
C1C0
C0E0
ENDCHAR
STARTCHAR 043B
ENCODING 1083
SWIDTH 1000 0
DWIDTH 24 0
BBX 13 14 4 0
BITMAP
0FF8
0FF8
0C18
0C18
0C18
0C18
0C18
0C18
0C18
0C18
0C18
1C18
F818
F818
ENDCHAR
STARTCHAR 043C
ENCODING 1084
SWIDTH 1000 0
DWIDTH 24 0
BBX 14 14 5 0
BITMAP
E01C
F03C
F03C
F03C
D86C
D86C
D86C
CCCC
CCCC
CCCC
C78C
C78C
C78C
C30C
ENDCHAR
STARTCHAR 043D
ENCODING 1085
SWIDTH 1000 0
DWIDTH 24 0
BBX 10 14 7 0
BITMAP
C0C0
C0C0
C0C0
C0C0
C0C0
C0C0
FFC0
FFC0
C0C0
C0C0
C0C0
C0C0
C0C0
C0C0
ENDCHAR
STARTCHAR 043E
ENCODING 1086
SWIDTH 1000 0
DWIDTH 24 0
BBX 12 14 6 0
BITMAP
3FC0
7FE0
E070
C030
C030
C030
C030
C030
C030
C030
C030
E070
7FE0
3FC0
ENDCHAR
STARTCHAR 043F
ENCODING 1087
SWIDTH 1000 0
DWIDTH 24 0
BBX 10 14 7 0
BITMAP
FFC0
FFC0
C0C0
C0C0
C0C0
C0C0
C0C0
C0C0
C0C0
C0C0
C0C0
C0C0
C0C0
C0C0
ENDCHAR
STARTCHAR 0440
ENCODING 1088
SWIDTH 1000 0
DWIDTH 24 0
BBX 12 17 6 -3
BITMAP
CFC0
FFE0
F070
E030
C030
C030
C030
C030
C030
C030
E030
F070
FFE0
CFC0
C000
C000
C000
ENDCHAR
STARTCHAR 0441
ENCODING 1089
SWIDTH 1000 0
DWIDTH 24 0
BBX 12 14 6 0
BITMAP
1FC0
7FE0
E070
C030
C030
C000
C000
C000
C000
C030
C030
E070
7FE0
1FC0
ENDCHAR
STARTCHAR 0442
ENCODING 1090
SWIDTH 1000 0
DWIDTH 24 0
BBX 12 14 6 0
BITMAP
FFF0
FFF0
0600
0600
0600
0600
0600
0600
0600
0600
0600
0600
0600
0600
ENDCHAR
STARTCHAR 0443
ENCODING 1091
SWIDTH 1000 0
DWIDTH 24 0
BBX 12 17 6 -3
BITMAP
E030
E070
6060
7060
30C0
30C0
38C0
1980
1980
0D80
0F00
0F00
0700
0600
0E00
7C00
7800
ENDCHAR
STARTCHAR 0444
ENCODING 1092
SWIDTH 1000 0
DWIDTH 24 0
BBX 16 22 4 -3
BITMAP
0180
0180
0180
0180
0180
3DBC
7FFE
E3C7
C3C3
C183
C183
C183
C183
C183
C183
C3C3
E3C7
7FFE
3DBC
0180
0180
0180
ENDCHAR
STARTCHAR 0445
ENCODING 1093
SWIDTH 1000 0
DWIDTH 24 0
BBX 12 14 6 0
BITMAP
6060
70E0
30C0
39C0
1980
0F00
0F00
0F00
1F80
1980
30C0
70E0
6060
E070
ENDCHAR
STARTCHAR 0446
ENCODING 1094
SWIDTH 1000 0
DWIDTH 24 0
BBX 13 17 6 -3
BITMAP
C060
C060
C060
C060
C060
C060
C060
C060
C060
C060
C060
C060
FFF8
FFF8
0018
0018
0018
ENDCHAR
STARTCHAR 0447
ENCODING 1095
SWIDTH 1000 0
DWIDTH 24 0
BBX 10 15 7 0
BITMAP
C0C0
C0C0
C0C0
C0C0
C0C0
C0C0
C0C0
C3C0
FFC0
7CC0
00C0
00C0
00C0
00C0
00C0
ENDCHAR
STARTCHAR 0448
ENCODING 1096
SWIDTH 1000 0
DWIDTH 24 0
BBX 16 14 4 0
BITMAP
C183
C183
C183
C183
C183
C183
C183
C183
C183
C183
C183
C183
FFFF
FFFF
ENDCHAR
STARTCHAR 0449
ENCODING 1097
SWIDTH 1000 0
DWIDTH 24 0
BBX 17 17 4 -3
BITMAP
C18600
C18600
C18600
C18600
C18600
C18600
C18600
C18600
C18600
C18600
C18600
C18600
FFFF80
FFFF80
000180
000180
000180
ENDCHAR
STARTCHAR 044A
ENCODING 1098
SWIDTH 1000 0
DWIDTH 24 0
BBX 14 14 5 0
BITMAP
F800
F800
1800
1800
1800
1FF0
1FF8
181C
180C
180C
180C
181C
1FF8
1FF0
ENDCHAR
STARTCHAR 044B
ENCODING 1099
SWIDTH 1000 0
DWIDTH 24 0
BBX 16 14 4 0
BITMAP
C003
C003
C003
C003
C003
FF83
FFC3
C0E3
C063
C063
C063
C0E3
FFC3
FF83
ENDCHAR
STARTCHAR 044C
ENCODING 1100
SWIDTH 1000 0
DWIDTH 24 0
BBX 12 14 7 0
BITMAP
C000
C000
C000
C000
C000
FFC0
FFE0
C060
C070
C030
C070
C060
FFE0
FFC0
ENDCHAR
STARTCHAR 044D
ENCODING 1101
SWIDTH 1000 0
DWIDTH 24 0
BBX 12 14 6 0
BITMAP
3F80
7FE0
E070
C030
C030
0030
07F0
07F0
0030
C030
C030
E070
7FE0
3F80
ENDCHAR
STARTCHAR 044E
ENCODING 1102
SWIDTH 1000 0
DWIDTH 24 0
BBX 15 14 5 0
BITMAP
C1F8
C3FC
C70C
C60E
C606
C606
FE06
FE06
C606
C606
C60E
C70C
C3FC
C1F8
ENDCHAR
STARTCHAR 044F
ENCODING 1103
SWIDTH 1000 0
DWIDTH 24 0
BBX 11 14 6 0
BITMAP
3FE0
7FE0
E060
C060
C060
E060
7FE0
7FE0
6060
E060
C060
C060
C060
C060
ENDCHAR
STARTCHAR 0451
ENCODING 1105
SWIDTH 1000 0
DWIDTH 24 0
BBX 12 18 6 0
BITMAP
39C0
39C0
0000
0000
1FC0
7FE0
E070
C030
C030
C030
FFF0
FFF0
C000
C000
C030
E070
7FE0
1FC0
ENDCHAR
STARTCHAR 045B
ENCODING 1115
SWIDTH 1000 0
DWIDTH 24 0
BBX 14 20 5 -1
BITMAP
1D00
1A00
1E00
1C00
3800
7BF0
F7F8
3C1C
381C
3018
7018
6018
6018
6038
6030
E030
C030
C030
C070
C060
ENDCHAR
STARTCHAR 1EBC
ENCODING 7868
SWIDTH 666 0
DWIDTH 16 0
BBX 14 23 2 0
BITMAP
1F40
2380
0000
0000
FFF8
FFF8
C000
C000
C000
C000
C000
C000
FFF8
FFF8
C000
C000
C000
C000
C000
C000
C000
FFFC
FFFC
ENDCHAR
STARTCHAR 1EBD
ENCODING 7869
SWIDTH 625 0
DWIDTH 15 0
BBX 13 18 1 0
BITMAP
0F40
17C0
0000
0000
1FC0
3FF0
7070
6038
C018
C018
FFF8
FFF8
C000
C000
E018
7038
3FF0
1FC0
ENDCHAR
STARTCHAR 2002
ENCODING 8194
SWIDTH 500 0
DWIDTH 12 0
BBX 0 0 0 0
BITMAP
ENDCHAR
STARTCHAR 2003
ENCODING 8195
SWIDTH 1000 0
DWIDTH 24 0
BBX 0 0 0 0
BITMAP
ENDCHAR
STARTCHAR 2010
ENCODING 8208
SWIDTH 1000 0
DWIDTH 24 0
BBX 6 2 9 8
BITMAP
FC
FC
ENDCHAR
STARTCHAR 2011
ENCODING 8209
SWIDTH 333 0
DWIDTH 8 0
BBX 6 2 1 6
BITMAP
FC
FC
ENDCHAR
STARTCHAR 2012
ENCODING 8210
SWIDTH 500 0
DWIDTH 12 0
BBX 10 2 1 6
BITMAP
FFC0
FFC0
ENDCHAR
STARTCHAR 2013
ENCODING 8211
SWIDTH 500 0
DWIDTH 12 0
BBX 10 2 1 6
BITMAP
FFC0
FFC0
ENDCHAR
STARTCHAR 2014
ENCODING 8212
SWIDTH 1000 0
DWIDTH 24 0
BBX 24 2 0 6
BITMAP
FFFFFF
FFFFFF
ENDCHAR
STARTCHAR 2015
ENCODING 8213
SWIDTH 1000 0
DWIDTH 24 0
BBX 24 2 0 8
BITMAP
FFFFFF
FFFFFF
ENDCHAR
STARTCHAR 2016
ENCODING 8214
SWIDTH 1000 0
DWIDTH 24 0
BBX 6 24 9 -3
BITMAP
CC
CC
CC
CC
CC
CC
CC
CC
CC
CC
CC
CC
CC
CC
CC
CC
CC
CC
CC
CC
CC
CC
CC
CC
ENDCHAR
STARTCHAR 2018
ENCODING 8216
SWIDTH 1000 0
DWIDTH 24 0
BBX 3 6 20 15
BITMAP
60
C0
80
E0
E0
E0
ENDCHAR
STARTCHAR 2019
ENCODING 8217
SWIDTH 1000 0
DWIDTH 24 0
BBX 3 5 1 16
BITMAP
E0
E0
E0
20
E0
ENDCHAR
STARTCHAR 201A
ENCODING 8218
SWIDTH 250 0
DWIDTH 6 0
BBX 2 5 2 -2
BITMAP
C0
C0
C0
40
C0
ENDCHAR
STARTCHAR 201C
ENCODING 8220
SWIDTH 1000 0
DWIDTH 24 0
BBX 7 6 16 15
BITMAP
66
CC
C8
EE
EE
EE
ENDCHAR
STARTCHAR 201D
ENCODING 8221
SWIDTH 1000 0
DWIDTH 24 0
BBX 7 5 1 16
BITMAP
EE
EE
EE
26
EC
ENDCHAR
STARTCHAR 201E
ENCODING 8222
SWIDTH 375 0
DWIDTH 9 0
BBX 7 5 1 -2
BITMAP
EE
EE
EE
66
CC
ENDCHAR
STARTCHAR 2020
ENCODING 8224
SWIDTH 1000 0
DWIDTH 24 0
BBX 12 23 6 -2
BITMAP
0600
0600
0600
0600
0600
FFF0
FFF0
0600
0600
0600
0600
0600
0600
0600
0600
0600
0600
0600
0600
0600
0600
0600
0600
ENDCHAR
STARTCHAR 2021
ENCODING 8225
SWIDTH 1000 0
DWIDTH 24 0
BBX 12 23 6 -2
BITMAP
0600
0600
0600
0600
0600
FFF0
FFF0
0600
0600
0600
0600
0600
0600
0600
0600
0600
FFF0
FFF0
0600
0600
0600
0600
0600
ENDCHAR
STARTCHAR 2022
ENCODING 8226
SWIDTH 416 0
DWIDTH 10 0
BBX 6 7 2 6
BITMAP
30
7C
FC
FC
FC
FC
78
ENDCHAR
STARTCHAR 2025
ENCODING 8229
SWIDTH 1000 0
DWIDTH 24 0
BBX 16 3 4 7
BITMAP
6006
F00F
6006
ENDCHAR
STARTCHAR 2026
ENCODING 8230
SWIDTH 1000 0
DWIDTH 24 0
BBX 20 3 2 7
BITMAP
606060
F0F0F0
606060
ENDCHAR
STARTCHAR 2030
ENCODING 8240
SWIDTH 1000 0
DWIDTH 24 0
BBX 22 21 1 -1
BITMAP
300000
FC1800
CC3000
CC3000
C46000
846000
C44000
CCC000
CC8000
FD8000
311830
037EFC
0266CC
0666CC
0446CC
0C468C
0846CC
1866CC
1866CC
307CFC
001830
ENDCHAR
STARTCHAR 2032
ENCODING 8242
SWIDTH 1000 0
DWIDTH 24 0
BBX 4 5 2 14
BITMAP
20
70
60
C0
80
ENDCHAR
STARTCHAR 2033
ENCODING 8243
SWIDTH 1000 0
DWIDTH 24 0
BBX 7 5 2 14
BITMAP
24
66
CC
88
90
ENDCHAR
STARTCHAR 2039
ENCODING 8249
SWIDTH 333 0
DWIDTH 8 0
BBX 4 10 2 2
BITMAP
30
60
60
C0
C0
C0
60
60
30
30
ENDCHAR
STARTCHAR 203A
ENCODING 8250
SWIDTH 333 0
DWIDTH 8 0
BBX 4 10 2 2
BITMAP
C0
C0
60
60
30
30
60
40
C0
80
ENDCHAR
STARTCHAR 203B
ENCODING 8251
SWIDTH 1000 0
DWIDTH 24 0
BBX 16 18 4 0
BITMAP
8181
C3C3
63C6
318C
1008
0810
0420
E247
E187
E187
E247
0420
0810
1008
318C
63C6
C3C3
8181
ENDCHAR
STARTCHAR 203C
ENCODING 8252
SWIDTH 1000 0
DWIDTH 24 0
BBX 8 20 8 -1
BITMAP
E7
E7
E7
E7
E7
E7
E7
E7
E7
E7
E6
E6
66
66
00
00
00
E7
E7
E7
ENDCHAR
STARTCHAR 203E
ENCODING 8254
SWIDTH 500 0
DWIDTH 12 0
BBX 12 1 0 20
BITMAP
FFF0
ENDCHAR
STARTCHAR 2044
ENCODING 8260
SWIDTH 41 0
DWIDTH 1 0
BBX 14 19 -6 0
BITMAP
0004
0008
0010
0020
0020
0040
0080
0080
0100
0200
0400
0400
0800
1000
1000
2000
4000
8000
8000
ENDCHAR
STARTCHAR 2049
ENCODING 8265
SWIDTH 1000 0
DWIDTH 24 0
BBX 16 20 5 -1
BITMAP
C3FC
C7FE
CE07
CC03
CC03
DC03
C003
C003
C00E
C03C
C078
C0E0
C0C0
C0C0
0000
0000
0000
C0C0
C0C0
C0C0
ENDCHAR
STARTCHAR 2070
ENCODING 8304
SWIDTH 458 0
DWIDTH 11 0
BBX 8 11 1 8
BITMAP
3E
77
43
43
C3
C3
C3
43
63
7E
08
ENDCHAR
STARTCHAR 2074
ENCODING 8308
SWIDTH 458 0
DWIDTH 11 0
BBX 9 10 1 9
BITMAP
0600
0E00
1A00
3200
6200
4200
C200
FF80
0200
0200
ENDCHAR
STARTCHAR 2075
ENCODING 8309
SWIDTH 458 0
DWIDTH 11 0
BBX 8 10 1 8
BITMAP
7F
7F
40
40
7F
43
01
C1
C3
7F
ENDCHAR
STARTCHAR 2076
ENCODING 8310
SWIDTH 458 0
DWIDTH 11 0
BBX 8 10 1 9
BITMAP
3E
7F
43
40
5E
F7
C3
43
63
7F
ENDCHAR
STARTCHAR 2077
ENCODING 8311
SWIDTH 458 0
DWIDTH 11 0
BBX 8 10 1 9
BITMAP
FF
FF
03
06
06
0C
0C
18
10
30
ENDCHAR
STARTCHAR 2078
ENCODING 8312
SWIDTH 458 0
DWIDTH 11 0
BBX 8 10 1 9
BITMAP
3E
7F
43
43
77
7E
43
C1
C3
7F
ENDCHAR
STARTCHAR 2079
ENCODING 8313
SWIDTH 458 0
DWIDTH 11 0
BBX 8 10 1 8
BITMAP
3E
77
43
C3
63
7F
01
03
63
7E
ENDCHAR
STARTCHAR 2080
ENCODING 8320
SWIDTH 458 0
DWIDTH 11 0
BBX 8 10 1 0
BITMAP
7E
63
43
43
C3
C3
43
43
7F
3E
ENDCHAR
STARTCHAR 2081
ENCODING 8321
SWIDTH 458 0
DWIDTH 11 0
BBX 4 10 3 0
BITMAP
F0
F0
30
30
30
30
30
30
30
30
ENDCHAR
STARTCHAR 2082
ENCODING 8322
SWIDTH 458 0
DWIDTH 11 0
BBX 8 10 1 0
BITMAP
3E
7F
43
41
03
3E
60
C0
C0
FF
ENDCHAR
STARTCHAR 2083
ENCODING 8323
SWIDTH 458 0
DWIDTH 11 0
BBX 8 10 1 1
BITMAP
7F
63
43
03
0E
07
01
C1
7F
3E
ENDCHAR
STARTCHAR 2084
ENCODING 8324
SWIDTH 458 0
DWIDTH 11 0
BBX 9 10 1 0
BITMAP
0600
0E00
1A00
3200
6200
4200
FF80
FF80
0200
0200
ENDCHAR
STARTCHAR 2085
ENCODING 8325
SWIDTH 458 0
DWIDTH 11 0
BBX 8 10 1 0
BITMAP
7F
7F
40
5E
7F
03
01
C3
7F
3E
ENDCHAR
STARTCHAR 2086
ENCODING 8326
SWIDTH 458 0
DWIDTH 11 0
BBX 8 10 1 1
BITMAP
7F
63
40
40
FF
E3
C3
43
77
3E
ENDCHAR
STARTCHAR 2087
ENCODING 8327
SWIDTH 458 0
DWIDTH 11 0
BBX 8 10 1 0
BITMAP
FF
FF
03
06
06
0C
0C
18
10
30
ENDCHAR
STARTCHAR 2088
ENCODING 8328
SWIDTH 458 0
DWIDTH 11 0
BBX 8 10 1 1
BITMAP
7F
63
43
63
3E
7F
C1
C1
77
3E
ENDCHAR
STARTCHAR 2089
ENCODING 8329
SWIDTH 458 0
DWIDTH 11 0
BBX 8 10 1 0
BITMAP
7E
63
C3
C3
77
3D
01
43
7F
3E
ENDCHAR
STARTCHAR 20AC
ENCODING 8364
SWIDTH 791 0
DWIDTH 19 0
BBX 18 19 0 0
BITMAP
01FC00
07FF00
0E0780
1C0380
180180
1801C0
180000
7FFE00
FFFC00
180000
7FFC00
FFF800
1801C0
1801C0
1801C0
1C0180
0F0780
07FF00
01FC00
ENDCHAR
STARTCHAR 20DD
ENCODING 8413
SWIDTH 1000 0
DWIDTH 24 0
BBX 22 24 1 -3
BITMAP
00FC00
030300
0C00C0
100020
200010
200018
400008
800004
800004
800004
800004
800004
800004
800004
800004
800004
800004
400008
600008
200010
100020
0C00C0
030300
00FC00
ENDCHAR
STARTCHAR 2100
ENCODING 8448
SWIDTH 1000 0
DWIDTH 24 0
BBX 21 21 1 -2
BITMAP
3F0008
7F8010
618030
408060
0180C0
7E8180
408100
C18200
C18400
7E8800
001000
0027F0
004C30
008C18
010800
020800
040800
080818
100C18
200C10
4007F0
ENDCHAR
STARTCHAR 2103
ENCODING 8451
SWIDTH 1000 0
DWIDTH 24 0
BBX 20 22 1 -1
BITMAP
700000
980000
887F00
89FFC0
9B81E0
7700E0
070060
060070
060070
060000
060000
060000
060000
060000
060000
060070
060070
070060
070060
03C1E0
01FFC0
007F00
ENDCHAR
STARTCHAR 2105
ENCODING 8453
SWIDTH 1000 0
DWIDTH 24 0
BBX 20 21 2 -2
BITMAP
3F0010
7F8020
418060
C080C0
C00180
C00300
C00200
C08400
618800
7F1000
002000
004FE0
009860
011030
021030
041030
081030
101030
201030
401860
800FE0
ENDCHAR
STARTCHAR 2109
ENCODING 8457
SWIDTH 1000 0
DWIDTH 24 0
BBX 19 22 1 -1
BITMAP
700000
980000
8BFFE0
8BFFE0
930000
730000
030000
030000
030000
030000
030000
03FFC0
03FFC0
030000
030000
030000
030000
030000
030000
030000
030000
030000
ENDCHAR
STARTCHAR 210A
ENCODING 8458
SWIDTH 1000 0
DWIDTH 24 0
BBX 15 19 5 -4
BITMAP
0006
1FEE
3FF8
7038
6018
6018
7018
3FF0
EFE0
C000
E000
FFF0
7FF8
C01C
C00C
C00C
E01C
7FF8
1FE0
ENDCHAR
STARTCHAR 210F
ENCODING 8463
SWIDTH 1000 0
DWIDTH 24 0
BBX 14 20 5 -1
BITMAP
1D00
1A00
1E00
1C00
3800
7BF0
F7F8
3C1C
381C
3018
7018
6018
6018
6038
6030
E030
C030
C030
C070
C060
ENDCHAR
STARTCHAR 2113
ENCODING 8467
SWIDTH 1000 0
DWIDTH 24 0
BBX 11 20 6 -1
BITMAP
0F80
1FC0
38E0
30E0
3060
3060
30E0
30C0
30C0
31C0
3380
3300
3E00
3C00
7800
F060
F060
30E0
3FC0
0F80
ENDCHAR
STARTCHAR 2116
ENCODING 8470
SWIDTH 1000 0
DWIDTH 24 0
BBX 23 20 1 -1
BITMAP
F0C000
F0C000
F0C000
D8C000
D8C000
D8C3E0
D8CFF0
CCCC30
CCCC30
CCD838
CCD818
C6D818
C6D818
C6D818
C2D818
C3D830
C3CC30
E3CC36
E1CFF6
E1C7C0
ENDCHAR
STARTCHAR 2121
ENCODING 8481
SWIDTH 1000 0
DWIDTH 24 0
BBX 22 19 1 0
BITMAP
FF0000
FF0000
180000
180000
180000
18FEC0
18FEC0
18C0C0
18C0C0
18C0C0
18C0C0
18FCC0
18FCC0
18C0C0
18C0C0
18C0C0
18C0C0
18FEFC
18FEFC
ENDCHAR
STARTCHAR 2122
ENCODING 8482
SWIDTH 875 0
DWIDTH 21 0
BBX 19 9 1 10
BITMAP
FF70E0
1F70E0
1078E0
1079E0
106960
106960
106F60
106660
106660
ENDCHAR
STARTCHAR 2126
ENCODING 8486
SWIDTH 833 0
DWIDTH 20 0
BBX 17 19 1 0
BITMAP
07F800
1FFE00
3C0F00
700700
600380
600380
600180
600180
600180
600180
600180
600180
600380
600380
700300
300700
1C0C00
FE3F80
FE3F80
ENDCHAR
STARTCHAR 212B
ENCODING 8491
SWIDTH 1000 0
DWIDTH 24 0
BBX 16 25 4 0
BITMAP
03C0
0240
0240
03C0
0000
0000
03C0
03C0
03C0
0660
0660
0E70
0C30
0C30
1C38
1818
1818
381C
3FFC
3FFC
700E
6006
6006
E007
C003
ENDCHAR
STARTCHAR 2135
ENCODING 8501
SWIDTH 1000 0
DWIDTH 24 0
BBX 17 19 3 0
BITMAP
103F80
383F80
381800
1C1800
0E1800
073000
0FB000
19F000
31F000
30E000
307000
303800
301C00
380E00
180700
1C0700
1C0380
FC0180
FC0080
ENDCHAR
STARTCHAR 2153
ENCODING 8531
SWIDTH 958 0
DWIDTH 23 0
BBX 19 19 2 0
BITMAP
F00200
F00200
300400
300800
300800
301000
302000
304000
304200
309FC0
0118C0
011040
0200C0
040380
0800C0
080060
101060
201FC0
200F80
ENDCHAR
STARTCHAR 2154
ENCODING 8532
SWIDTH 958 0
DWIDTH 23 0
BBX 20 19 1 0
BITMAP
3E0080
7F0080
430100
410200
030400
3E0400
600800
C01000
C01000
FF27F0
004630
008430
008030
0100E0
020070
020010
040C10
0807F0
1003E0
ENDCHAR
STARTCHAR 215B
ENCODING 8539
SWIDTH 958 0
DWIDTH 23 0
BBX 18 19 3 0
BITMAP
F00200
F00200
300400
300800
301000
301000
302000
304000
304000
309FC0
0118C0
0210C0
0218C0
040F80
081FC0
083040
103040
201DC0
400F80
ENDCHAR
STARTCHAR 215C
ENCODING 8540
SWIDTH 958 0
DWIDTH 23 0
BBX 20 19 1 0
BITMAP
3E0080
7F0100
430100
030200
0E0400
070400
010800
C11000
431000
7F27F0
084630
008430
008630
0103E0
0207F0
020C10
040C10
080770
1003E0
ENDCHAR
STARTCHAR 215D
ENCODING 8541
SWIDTH 958 0
DWIDTH 23 0
BBX 20 19 1 0
BITMAP
7F0080
7F0080
400100
400200
7F0400
430400
010800
C11000
7F1000
7E27F0
004630
008430
008630
0103E0
0207F0
020C10
040C10
080770
1003E0
ENDCHAR
STARTCHAR 215E
ENCODING 8542
SWIDTH 958 0
DWIDTH 23 0
BBX 20 19 1 0
BITMAP
FF0080
FF0080
030100
060200
060400
0C0400
080800
181000
301000
3027F0
004630
008430
008630
0103E0
0207F0
020C10
040C10
080770
1003E0
ENDCHAR
STARTCHAR 2160
ENCODING 8544
SWIDTH 1000 0
DWIDTH 24 0
BBX 6 20 9 -1
BITMAP
FC
FC
30
30
30
30
30
30
30
30
30
30
30
30
30
30
30
30
FC
FC
ENDCHAR
STARTCHAR 2161
ENCODING 8545
SWIDTH 1000 0
DWIDTH 24 0
BBX 14 20 5 -1
BITMAP
FFFC
FFFC
3870
3870
3870
3870
3870
3870
3870
3870
3870
3870
3870
3870
3870
3870
3870
3870
FFFC
FFFC
ENDCHAR
STARTCHAR 2162
ENCODING 8546
SWIDTH 1000 0
DWIDTH 24 0
BBX 16 20 4 -1
BITMAP
FFFF
FFFF
318C
318C
318C
318C
318C
318C
318C
318C
318C
318C
318C
318C
318C
318C
318C
318C
FFFF
FFFF
ENDCHAR
STARTCHAR 2163
ENCODING 8547
SWIDTH 1000 0
DWIDTH 24 0
BBX 20 20 2 -1
BITMAP
FF83F0
FF83F0
7700C0
7300C0
7301C0
738180
718180
718180
718380
71C300
70C300
70C700
70C600
70E600
706600
706E00
707C00
703C00
FC3C00
FC3C00
ENDCHAR
STARTCHAR 2164
ENCODING 8548
SWIDTH 1000 0
DWIDTH 24 0
BBX 20 20 2 -1
BITMAP
FE07F0
FE07F0
380180
180180
1C0380
1C0300
0C0300
0E0700
060600
060600
070E00
030C00
030C00
039C00
019800
019800
01F800
00F000
00F000
00F000
ENDCHAR
STARTCHAR 2165
ENCODING 8549
SWIDTH 1000 0
DWIDTH 24 0
BBX 20 20 2 -1
BITMAP
FC3FF0
FC3FF0
300EE0
300CE0
380CE0
181CE0
1818E0
1818E0
1C18E0
0C38E0
0C30E0
0E30E0
0630E0
0660E0
0660E0
0760E0
03E0E0
03C0E0
03C3F0
03C3F0
ENDCHAR
STARTCHAR 2166
ENCODING 8550
SWIDTH 1000 0
DWIDTH 24 0
BBX 22 20 1 -1
BITMAP
F87FFC
F87FFC
701B18
303B18
303318
303318
383318
187318
186318
186318
186318
0C6318
0CC318
0CC318
0CC318
0EC318
078318
078318
0787FC
0787FC
ENDCHAR
STARTCHAR 2167
ENCODING 8551
SWIDTH 1000 0
DWIDTH 24 0
BBX 24 20 0 -1
BITMAP
F87FFF
F87FFF
30366C
30366C
30666C
30666C
18666C
18666C
18666C
18466C
18C66C
0CC66C
0CC66C
0CC66C
0C866C
0D866C
07866C
07866C
078FFF
070FFF
ENDCHAR
STARTCHAR 2168
ENCODING 8552
SWIDTH 1000 0
DWIDTH 24 0
BBX 20 20 2 -1
BITMAP
FFE3F0
FFE3F0
3181C0
31C380
30C300
30E700
306600
307E00
303C00
303C00
303C00
307E00
306600
30E700
30C300
31C380
318180
3381C0
FFC3F0
FFC3F0
ENDCHAR
STARTCHAR 2169
ENCODING 8553
SWIDTH 1000 0
DWIDTH 24 0
BBX 18 20 3 -1
BITMAP
7E1F80
7E1F80
1C0E00
0C0C00
0E1C00
061800
073800
03F000
01E000
01E000
01E000
03F000
033000
063800
0E1C00
0C0C00
1C0E00
380700
FC0FC0
FC0FC0
ENDCHAR
STARTCHAR 216A
ENCODING 8554
SWIDTH 1000 0
DWIDTH 24 0
BBX 20 20 2 -1
BITMAP
FC7FF0
FC7FF0
3818C0
1838C0
0C30C0
0C70C0
0660C0
06E0C0
03C0C0
03C0C0
03C0C0
07E0C0
0660C0
0E70C0
0C30C0
1C38C0
1818C0
381CC0
FC3FF0
FC3FF0
ENDCHAR
STARTCHAR 216B
ENCODING 8555
SWIDTH 1000 0
DWIDTH 24 0
BBX 22 20 1 -1
BITMAP
FCFFFC
FCFFFC
303318
187318
1C6318
0CE318
0EC318
078318
078318
030318
078318
078318
0EC318
0CC318
1C6318
187318
383318
303B18
F87FFC
F87FFC
ENDCHAR
STARTCHAR 2170
ENCODING 8560
SWIDTH 1000 0
DWIDTH 24 0
BBX 2 20 11 -1
BITMAP
C0
C0
C0
00
00
C0
C0
C0
C0
C0
C0
C0
C0
C0
C0
C0
C0
C0
C0
C0
ENDCHAR
STARTCHAR 2171
ENCODING 8561
SWIDTH 1000 0
DWIDTH 24 0
BBX 8 20 8 -1
BITMAP
C3
C3
C3
00
00
C3
C3
C3
C3
C3
C3
C3
C3
C3
C3
C3
C3
C3
C3
C3
ENDCHAR
STARTCHAR 2172
ENCODING 8562
SWIDTH 1000 0
DWIDTH 24 0
BBX 12 20 6 -1
BITMAP
C630
C630
C630
0000
0000
C630
C630
C630
C630
C630
C630
C630
C630
C630
C630
C630
C630
C630
C630
C630
ENDCHAR
STARTCHAR 2173
ENCODING 8563
SWIDTH 1000 0
DWIDTH 24 0
BBX 15 19 5 0
BITMAP
C000
C000
C000
0000
0000
CC06
CE06
C60E
C60C
C70C
C31C
C318
C318
C398
C1B0
C1B0
C1B0
C0F0
C0E0
ENDCHAR
STARTCHAR 2174
ENCODING 8564
SWIDTH 1000 0
DWIDTH 24 0
BBX 12 14 6 0
BITMAP
C030
E070
6060
6060
70E0
30C0
30C0
39C0
1980
1980
1980
0F00
0F00
0F00
ENDCHAR
STARTCHAR 2175
ENCODING 8565
SWIDTH 1000 0
DWIDTH 24 0
BBX 15 19 4 0
BITMAP
000E
000E
000E
0000
0000
C066
C0E6
E0C6
60C6
61C6
7186
3186
3186
3306
1B06
1B06
1B06
1E06
0E06
ENDCHAR
STARTCHAR 2176
ENCODING 8566
SWIDTH 1000 0
DWIDTH 24 0
BBX 17 19 3 0
BITMAP
001980
001980
001980
000000
000000
C0D980
C19980
C19980
619980
619980
631980
631980
331980
331980
361980
361980
1E1980
1E1980
1C1980
ENDCHAR
STARTCHAR 2177
ENCODING 8567
SWIDTH 1000 0
DWIDTH 24 0
BBX 19 20 2 -1
BITMAP
0037E0
0037E0
0037E0
000000
000000
E1B260
61B260
61B260
61B260
63B260
733260
333260
333260
333260
363260
1E3260
1E3260
1E3260
1C3260
0C3260
ENDCHAR
STARTCHAR 2178
ENCODING 8568
SWIDTH 1000 0
DWIDTH 24 0
BBX 15 20 5 -1
BITMAP
C000
C000
C000
0000
0000
CE0E
C60C
C718
C318
C3B0
C1F0
C0E0
C1E0
C1B0
C3B8
C318
C71C
C60C
CE0E
DC06
ENDCHAR
STARTCHAR 2179
ENCODING 8569
SWIDTH 1000 0
DWIDTH 24 0
BBX 12 14 6 0
BITMAP
E060
70E0
30C0
39C0
1980
0F00
0F00
0F00
1F80
1980
30C0
70E0
6060
E070
ENDCHAR
STARTCHAR 217A
ENCODING 8570
SWIDTH 1000 0
DWIDTH 24 0
BBX 15 20 4 -1
BITMAP
0006
0006
0006
0000
0000
E0E6
60C6
31C6
3186
1B06
1F06
0E06
0F06
1B06
3B86
3186
71C6
60C6
E0E6
C076
ENDCHAR
STARTCHAR 217B
ENCODING 8571
SWIDTH 1000 0
DWIDTH 24 0
BBX 19 20 2 -1
BITMAP
000EE0
000EE0
000EE0
000000
000000
60CEC0
70CEC0
318EC0
398EC0
1B0EC0
1F0EC0
0E0EC0
0F0EC0
1B0EC0
1B8EC0
318EC0
31CEC0
60CEC0
E0EEC0
C06EC0
ENDCHAR
STARTCHAR 217F
ENCODING 8575
SWIDTH 1000 0
DWIDTH 24 0
BBX 20 15 2 -1
BITMAP
CF87C0
DFDFE0
F0F060
E06070
E06030
C06030
C06030
C06030
C06030
C06030
C06030
C06030
C06030
C06030
C06030
ENDCHAR
STARTCHAR 2190
ENCODING 8592
SWIDTH 1000 0
DWIDTH 24 0
BBX 22 8 1 5
BITMAP
020000
0E0000
1E0000
7E0000
FFFFFC
3E0000
0E0000
060000
ENDCHAR
STARTCHAR 2191
ENCODING 8593
SWIDTH 1000 0
DWIDTH 24 0
BBX 8 22 8 -2
BITMAP
10
18
18
3C
7E
7E
FF
18
18
18
18
18
18
18
18
18
18
18
18
18
18
18
ENDCHAR
STARTCHAR 2192
ENCODING 8594
SWIDTH 1000 0
DWIDTH 24 0
BBX 22 8 1 5
BITMAP
000100
0001C0
0001E0
0001F8
FFFFFC
0001F0
0001C0
000180
ENDCHAR
STARTCHAR 2193
ENCODING 8595
SWIDTH 1000 0
DWIDTH 24 0
BBX 8 22 8 -2
BITMAP
18
18
18
18
18
18
18
18
18
18
18
18
18
18
18
FF
7E
7E
3C
18
18
10
ENDCHAR
STARTCHAR 2194
ENCODING 8596
SWIDTH 1000 0
DWIDTH 24 0
BBX 22 7 1 6
BITMAP
020100
0C00C0
100030
FFFFFC
300030
0C00C0
020100
ENDCHAR
STARTCHAR 2195
ENCODING 8597
SWIDTH 1000 0
DWIDTH 24 0
BBX 8 22 8 -2
BITMAP
10
18
1C
3C
7E
7E
FF
18
18
18
18
18
18
18
18
FF
7E
7E
3C
3C
18
10
ENDCHAR
STARTCHAR 2196
ENCODING 8598
SWIDTH 1000 0
DWIDTH 24 0
BBX 15 15 5 2
BITMAP
C000
FC00
A000
5000
4800
4400
4200
0100
0080
0040
0020
0010
0008
0004
0002
ENDCHAR
STARTCHAR 2197
ENCODING 8599
SWIDTH 1000 0
DWIDTH 24 0
BBX 15 15 4 2
BITMAP
0006
007E
000A
0014
0024
0044
0084
0100
0200
0400
0800
1000
2000
4000
8000
ENDCHAR
STARTCHAR 2198
ENCODING 8600
SWIDTH 1000 0
DWIDTH 24 0
BBX 15 15 4 1
BITMAP
8000
4000
2000
1000
0800
0400
0200
0100
0084
0044
0024
0014
000A
0076
000E
ENDCHAR
STARTCHAR 2199
ENCODING 8601
SWIDTH 1000 0
DWIDTH 24 0
BBX 15 15 5 1
BITMAP
0002
0004
0008
0010
0020
0040
0080
0100
4200
4400
4800
5000
A000
FC00
C000
ENDCHAR
STARTCHAR 21C4
ENCODING 8644
SWIDTH 1000 0
DWIDTH 24 0
BBX 22 16 1 1
BITMAP
000100
0000C0
000030
FFFFFC
000030
0000C0
000100
000000
000000
020000
0C0000
300000
FFFFFC
300000
0C0000
020000
ENDCHAR
STARTCHAR 21C5
ENCODING 8645
SWIDTH 1000 0
DWIDTH 24 0
BBX 16 22 4 -2
BITMAP
0008
1008
1808
3808
3408
5408
9208
1008
1008
1008
1008
1008
1008
1008
1008
1049
104A
102A
101C
1018
1008
1008
ENDCHAR
STARTCHAR 21C6
ENCODING 8646
SWIDTH 1000 0
DWIDTH 24 0
BBX 22 16 1 1
BITMAP
020000
0C0000
100000
FFFFFC
300000
0C0000
020000
000000
000000
000100
0000C0
000030
FFFFFC
000030
0000C0
000100
ENDCHAR
STARTCHAR 21CC
ENCODING 8652
SWIDTH 1000 0
DWIDTH 24 0
BBX 22 16 1 2
BITMAP
000200
000180
000060
FFFFF8
000000
000000
000000
000000
000000
000000
000000
000000
7FFFFC
080000
060000
010000
ENDCHAR
STARTCHAR 21D0
ENCODING 8656
SWIDTH 1000 0
DWIDTH 24 0
BBX 22 15 1 2
BITMAP
030000
070000
060000
0C0000
1FFFFC
3FFFFC
600000
C00000
600000
3FFFFC
1FFFFC
1C0000
0E0000
070000
030000
ENDCHAR
STARTCHAR 21D2
ENCODING 8658
SWIDTH 1000 0
DWIDTH 24 0
BBX 22 15 1 2
BITMAP
000300
000380
000180
0000C0
FFFFE0
FFFFF0
000018
00000C
000018
FFFFF0
FFFFE0
0000E0
0001C0
000380
000300
ENDCHAR
STARTCHAR 21D4
ENCODING 8660
SWIDTH 1000 0
DWIDTH 24 0
BBX 24 15 0 2
BITMAP
010080
0381C0
0700E0
0E0070
1FFFF8
3FFFFC
70000E
E00007
70000E
3FFFFC
1FFFF8
0E0070
0700E0
0300C0
010080
ENDCHAR
STARTCHAR 21E6
ENCODING 8678
SWIDTH 1000 0
DWIDTH 24 0
BBX 22 20 1 -1
BITMAP
004000
00C000
014000
024000
044000
084000
107FFC
300004
600004
C00004
C00004
600004
300004
107FFC
084000
044000
024000
014000
00C000
004000
ENDCHAR
STARTCHAR 21E7
ENCODING 8679
SWIDTH 1000 0
DWIDTH 24 0
BBX 18 22 3 -1
BITMAP
00C000
012000
021000
040800
080400
180600
300300
600180
C000C0
FC0FC0
040800
040800
040800
040800
040800
040800
040800
040800
040800
040800
040800
07F800
ENDCHAR
STARTCHAR 21E8
ENCODING 8680
SWIDTH 1000 0
DWIDTH 24 0
BBX 22 20 1 -1
BITMAP
000800
000C00
000A00
000900
000880
000840
FFF860
800030
800018
80000C
80000C
800018
800010
FFF820
000840
000880
000900
000A00
000C00
000800
ENDCHAR
STARTCHAR 21E9
ENCODING 8681
SWIDTH 1000 0
DWIDTH 24 0
BBX 18 22 3 -3
BITMAP
07F800
040800
040800
040800
040800
040800
040800
040800
040800
040800
040800
040800
FC0FC0
C000C0
600180
300300
180600
080400
040800
021000
012000
00C000
ENDCHAR
STARTCHAR 2200
ENCODING 8704
SWIDTH 1000 0
DWIDTH 24 0
BBX 14 17 5 0
BITMAP
C00C
C00C
6018
6018
2010
3FF0
3FF0
1860
1860
0C40
0CC0
0CC0
0780
0780
0300
0300
0200
ENDCHAR
STARTCHAR 2202
ENCODING 8706
SWIDTH 1000 0
DWIDTH 24 0
BBX 14 20 5 -1
BITMAP
07F0
0FF8
1C1C
380C
300C
000C
0F8C
3FEC
387C
6038
6038
C038
C030
C030
C030
C060
C060
E0E0
7FC0
3F00
ENDCHAR
STARTCHAR 2203
ENCODING 8707
SWIDTH 1000 0
DWIDTH 24 0
BBX 12 17 6 1
BITMAP
FFF0
FFF0
0030
0030
0030
0030
0030
0030
FFF0
FFF0
0030
0030
0030
0030
0030
FFF0
FFF0
ENDCHAR
STARTCHAR 2205
ENCODING 8709
SWIDTH 1000 0
DWIDTH 24 0
BBX 14 14 5 2
BITMAP
0788
1FFC
3878
7078
60F8
41CC
C38C
C70C
CE0C
7C18
7838
7870
FFE0
4780
ENDCHAR
STARTCHAR 2207
ENCODING 8711
SWIDTH 1000 0
DWIDTH 24 0
BBX 16 20 4 -1
BITMAP
FFFF
FFFF
E007
6006
700E
700E
300C
381C
3818
1818
1C38
0C30
0C30
0E70
0660
0660
07E0
03C0
03C0
03C0
ENDCHAR
STARTCHAR 2208
ENCODING 8712
SWIDTH 1000 0
DWIDTH 24 0
BBX 16 14 4 2
BITMAP
1FFF
3FFF
6000
C000
C000
8000
FFFF
FFFF
8000
C000
C000
7000
3FFF
0FFF
ENDCHAR
STARTCHAR 220A
ENCODING 8714
SWIDTH 1000 0
DWIDTH 24 0
BBX 13 14 6 0
BITMAP
0FF8
1FF0
3800
3000
7000
6000
7FC0
FFC0
C000
C000
C000
E000
7FC0
3FC0
ENDCHAR
STARTCHAR 220B
ENCODING 8715
SWIDTH 1000 0
DWIDTH 24 0
BBX 16 14 4 2
BITMAP
FFF8
FFFE
0006
0003
0003
0001
FFFF
FFFF
0001
0003
0003
000E
FFFC
FFF0
ENDCHAR
STARTCHAR 2211
ENCODING 8721
SWIDTH 1000 0
DWIDTH 24 0
BBX 16 19 4 0
BITMAP
FFFF
FFFF
7000
3800
1C00
0E00
0700
0380
01C0
00E0
01C0
0380
0700
0E00
1C00
3800
7000
FFFF
FFFF
ENDCHAR
STARTCHAR 2212
ENCODING 8722
SWIDTH 1000 0
DWIDTH 24 0
BBX 16 2 4 8
BITMAP
FFFF
FFFF
ENDCHAR
STARTCHAR 2213
ENCODING 8723
SWIDTH 1000 0
DWIDTH 24 0
BBX 16 19 4 -1
BITMAP
FFFF
FFFF
0000
0180
0180
0180
0180
0180
0180
0180
FFFF
FFFF
0180
0180
0180
0180
0180
0180
0180
ENDCHAR
STARTCHAR 221A
ENCODING 8730
SWIDTH 1000 0
DWIDTH 24 0
BBX 24 25 0 -3
BITMAP
0000FF
0000FF
000100
000100
000200
000200
000400
000400
000400
000800
000800
001000
001000
081000
182000
382000
7C4000
DC4000
0E4000
0E8000
078000
070000
070000
020000
020000
ENDCHAR
STARTCHAR 221D
ENCODING 8733
SWIDTH 1000 0
DWIDTH 24 0
BBX 18 11 3 4
BITMAP
1C0380
7F0FC0
E39C00
C1F800
80F000
806000
80F000
C1F800
E39C00
7F0FC0
1C0780
ENDCHAR
STARTCHAR 221E
ENCODING 8734
SWIDTH 1000 0
DWIDTH 24 0
BBX 20 11 2 4
BITMAP
1C0380
7F0FE0
639C70
C1F830
C0F030
806010
C0F030
C1F830
E39C70
7F0FE0
1C0380
ENDCHAR
STARTCHAR 221F
ENCODING 8735
SWIDTH 1000 0
DWIDTH 24 0
BBX 18 17 3 1
BITMAP
C00000
C00000
C00000
C00000
C00000
C00000
C00000
C00000
C00000
C00000
C00000
C00000
C00000
C00000
C00000
FFFFC0
FFFFC0
ENDCHAR
STARTCHAR 2220
ENCODING 8736
SWIDTH 1000 0
DWIDTH 24 0
BBX 18 19 3 1
BITMAP
000100
000300
000700
000E00
000C00
001800
003000
006000
00E000
01C000
038000
030000
060000
0C0000
1C0000
380000
700000
7FFFC0
FFFFC0
ENDCHAR
STARTCHAR 2225
ENCODING 8741
SWIDTH 1000 0
DWIDTH 24 0
BBX 6 24 9 -3
BITMAP
CC
CC
CC
CC
CC
CC
CC
CC
CC
CC
CC
CC
CC
CC
CC
CC
CC
CC
CC
CC
CC
CC
CC
CC
ENDCHAR
STARTCHAR 2227
ENCODING 8743
SWIDTH 1000 0
DWIDTH 24 0
BBX 18 18 3 1
BITMAP
008000
00C000
00C000
01E000
01E000
033000
033000
061800
041800
0C0C00
180600
180600
300300
300300
600180
600180
C000C0
C000C0
ENDCHAR
STARTCHAR 2228
ENCODING 8744
SWIDTH 1000 0
DWIDTH 24 0
BBX 18 18 3 0
BITMAP
C000C0
C000C0
600180
600180
300300
300300
180600
180600
0C0C00
0C0C00
061800
061800
033000
033000
01E000
01E000
00C000
008000
ENDCHAR
STARTCHAR 2229
ENCODING 8745
SWIDTH 1000 0
DWIDTH 24 0
BBX 14 17 5 1
BITMAP
0FC0
3FF0
7038
6018
400C
C00C
C00C
C00C
C00C
C00C
C00C
C00C
C00C
C00C
C00C
C00C
C00C
ENDCHAR
STARTCHAR 222A
ENCODING 8746
SWIDTH 1000 0
DWIDTH 24 0
BBX 14 18 5 0
BITMAP
C00C
C00C
C00C
C00C
C00C
C00C
C00C
C00C
C00C
C00C
C00C
C00C
C00C
6008
6018
7030
3FF0
0780
ENDCHAR
STARTCHAR 222B
ENCODING 8747
SWIDTH 1000 0
DWIDTH 24 0
BBX 10 24 7 -3
BITMAP
03C0
07C0
0E00
0C00
0C00
0C00
0C00
0C00
0C00
0C00
0C00
0C00
0C00
0C00
0C00
0C00
0C00
0C00
0C00
0C00
0C00
1C00
F800
F000
ENDCHAR
STARTCHAR 222C
ENCODING 8748
SWIDTH 1000 0
DWIDTH 24 0
BBX 16 24 4 -3
BITMAP
078F
0F9F
1C18
1818
1818
1818
1818
1818
1818
1818
1818
1818
1818
1818
1818
1818
1818
1818
1818
1818
1818
1838
F9F0
E1E0
ENDCHAR
STARTCHAR 222D
ENCODING 8749
SWIDTH 1000 0
DWIDTH 24 0
BBX 22 24 1 -3
BITMAP
078F3C
0F9F7C
0C38E0
0C30C0
0C30C0
0C30C0
0C30C0
0C30C0
0C30C0
0C30C0
0C30C0
0C30C0
0C30C0
0C30C0
0C30C0
0C30C0
0C30C0
0C30C0
0C30C0
0C30C0
0C30C0
1C70C0
FBE7C0
F3C700
ENDCHAR
STARTCHAR 222E
ENCODING 8750
SWIDTH 1000 0
DWIDTH 24 0
BBX 10 24 7 -3
BITMAP
03C0
07C0
0E00
0C00
0C00
0C00
0C00
0C00
1F00
3F00
6D80
4C80
4C80
6D80
3F00
3E00
0C00
0C00
0C00
0C00
0C00
1C00
F800
F000
ENDCHAR
STARTCHAR 2234
ENCODING 8756
SWIDTH 1000 0
DWIDTH 24 0
BBX 18 16 3 1
BITMAP
00C000
01E000
00C000
000000
000000
000000
000000
000000
000000
000000
000000
000000
000000
6001C0
E001C0
600180
ENDCHAR
STARTCHAR 2235
ENCODING 8757
SWIDTH 1000 0
DWIDTH 24 0
BBX 18 16 3 1
BITMAP
6001C0
E001C0
600180
000000
000000
000000
000000
000000
000000
000000
000000
000000
000000
00C000
01E000
00C000
ENDCHAR
STARTCHAR 223C
ENCODING 8764
SWIDTH 1000 0
DWIDTH 24 0
BBX 22 6 1 6
BITMAP
070000
3FE008
70F01C
C03C38
400FF0
000380
ENDCHAR
STARTCHAR 223D
ENCODING 8765
SWIDTH 1000 0
DWIDTH 24 0
BBX 20 11 2 4
BITMAP
1C0380
7E0FE0
601C70
C03830
C03030
806010
C0C030
C1C030
E38070
7F07E0
1C0380
ENDCHAR
STARTCHAR 2243
ENCODING 8771
SWIDTH 1000 0
DWIDTH 24 0
BBX 16 10 4 5
BITMAP
3E00
7F01
C3C3
80FE
007C
0000
0000
0000
FFFF
FFFF
ENDCHAR
STARTCHAR 2252
ENCODING 8786
SWIDTH 1000 0
DWIDTH 24 0
BBX 16 18 4 0
BITMAP
1C00
1C00
1C00
0000
0000
FFFF
FFFF
0000
0000
0000
0000
FFFF
FFFF
0000
0000
0038
0038
0038
ENDCHAR
STARTCHAR 2260
ENCODING 8800
SWIDTH 1000 0
DWIDTH 24 0
BBX 16 18 4 1
BITMAP
0030
0030
0030
0060
0060
FFFF
FFFF
00C0
0180
0180
0300
FFFF
FFFF
0600
0600
0C00
0C00
0800
ENDCHAR
STARTCHAR 2261
ENCODING 8801
SWIDTH 1000 0
DWIDTH 24 0
BBX 16 11 4 4
BITMAP
FFFF
FFFF
0000
0000
0000
FFFF
FFFF
0000
0000
FFFF
FFFF
ENDCHAR
STARTCHAR 2266
ENCODING 8806
SWIDTH 1000 0
DWIDTH 24 0
BBX 16 19 4 0
BITMAP
0001
000F
003E
01F0
07C0
3E00
F000
3E00
0F80
01F0
007C
000F
0003
0000
FFFF
FFFF
0000
FFFF
FFFF
ENDCHAR
STARTCHAR 2267
ENCODING 8807
SWIDTH 1000 0
DWIDTH 24 0
BBX 16 19 4 0
BITMAP
8000
F000
7C00
0F80
03E0
007C
000F
007C
01F0
0F80
3E00
F000
C000
0000
FFFF
FFFF
0000
FFFF
FFFF
ENDCHAR
STARTCHAR 226A
ENCODING 8810
SWIDTH 1000 0
DWIDTH 24 0
BBX 18 18 3 0
BITMAP
0030C0
0071C0
00E380
038E00
071C00
0E3800
1C7000
31C000
E38000
738000
38E000
1C7000
0E3800
071C00
01C700
00E380
0071C0
002080
ENDCHAR
STARTCHAR 226B
ENCODING 8811
SWIDTH 1000 0
DWIDTH 24 0
BBX 18 18 3 0
BITMAP
C30000
E38000
71C000
1C7000
0E3800
071C00
038E00
00E300
0071C0
006380
01C700
038E00
071C00
0E3800
38E000
71C000
E38000
410000
ENDCHAR
STARTCHAR 2272
ENCODING 8818
SWIDTH 1000 0
DWIDTH 24 0
BBX 16 19 4 0
BITMAP
0003
000F
007C
01F0
0F80
3E00
F000
3E00
07C0
01F0
003E
000F
0001
0000
3E00
7F01
C3C3
80FE
007C
ENDCHAR
STARTCHAR 2273
ENCODING 8819
SWIDTH 1000 0
DWIDTH 24 0
BBX 16 19 4 0
BITMAP
C000
F000
3E00
0F80
01F0
007C
000F
007C
03E0
0F80
7C00
F000
8000
0000
3E00
7F01
C3C3
80FE
007C
ENDCHAR
STARTCHAR 2282
ENCODING 8834
SWIDTH 1000 0
DWIDTH 24 0
BBX 16 14 4 2
BITMAP
1FFF
3FFF
6000
C000
C000
8000
8000
8000
8000
C000
C000
7000
3FFF
0FFF
ENDCHAR
STARTCHAR 2283
ENCODING 8835
SWIDTH 1000 0
DWIDTH 24 0
BBX 16 14 4 2
BITMAP
FFF8
FFFE
0006
0003
0003
0001
0001
0001
0001
0003
0003
000E
FFFC
FFF0
ENDCHAR
STARTCHAR 2286
ENCODING 8838
SWIDTH 1000 0
DWIDTH 24 0
BBX 16 17 4 1
BITMAP
0FFF
7FFF
E000
C000
C000
8000
8000
8000
C000
C000
E000
7FFF
1FFF
0000
0000
FFFF
FFFF
ENDCHAR
STARTCHAR 2287
ENCODING 8839
SWIDTH 1000 0
DWIDTH 24 0
BBX 16 17 4 1
BITMAP
FFF0
FFFE
0007
0003
0003
0001
0001
0001
0003
0003
0007
FFFE
FFF0
0000
0000
FFFF
FFFF
ENDCHAR
STARTCHAR 2295
ENCODING 8853
SWIDTH 1000 0
DWIDTH 24 0
BBX 20 20 2 -1
BITMAP
01F800
060600
080100
106080
206040
406020
406020
406020
806010
9FFF90
9FFF90
806010
406020
406020
406020
206040
106080
080100
060600
01F800
ENDCHAR
STARTCHAR 2296
ENCODING 8854
SWIDTH 1000 0
DWIDTH 24 0
BBX 20 20 2 -1
BITMAP
01F800
060600
080100
100080
200040
400020
400020
400020
800010
9FFF90
9FFF90
800010
400020
400020
400020
200040
100080
080100
060600
01F800
ENDCHAR
STARTCHAR 2297
ENCODING 8855
SWIDTH 1000 0
DWIDTH 24 0
BBX 20 20 2 -1
BITMAP
01F800
060600
080100
100080
240240
460620
430C20
439C20
81F810
80F010
80F010
81F810
439C20
430C20
460620
240240
100080
080100
060600
01F800
ENDCHAR
STARTCHAR 2298
ENCODING 8856
SWIDTH 1000 0
DWIDTH 24 0
BBX 20 20 2 -1
BITMAP
01F800
060600
080100
100080
200240
400620
400C20
401C20
803810
807010
80E010
81C010
438020
430020
460020
240040
100080
080100
060600
01F800
ENDCHAR
STARTCHAR 229D
ENCODING 8861
SWIDTH 1000 0
DWIDTH 24 0
BBX 20 20 2 -1
BITMAP
01F800
060600
080100
100080
200040
400020
400020
400020
800010
9FFF90
9FFF90
800010
400020
400020
400020
200040
100080
080100
060600
01F800
ENDCHAR
STARTCHAR 229E
ENCODING 8862
SWIDTH 1000 0
DWIDTH 24 0
BBX 20 22 2 -2
BITMAP
FFFFF0
804010
804010
804010
804010
804010
804010
804010
804010
804010
804010
FFFFF0
804010
804010
804010
804010
804010
804010
804010
804010
804010
FFFFF0
ENDCHAR
STARTCHAR 22A0
ENCODING 8864
SWIDTH 1000 0
DWIDTH 24 0
BBX 20 22 2 -2
BITMAP
FFFFF0
800010
800010
800010
980190
8C0310
860610
870E10
839C10
81F810
80F010
80F010
81F810
839C10
870E10
860610
8C0310
980190
800010
800010
800010
FFFFF0
ENDCHAR
STARTCHAR 22A5
ENCODING 8869
SWIDTH 1000 0
DWIDTH 24 0
BBX 16 19 4 0
BITMAP
0180
0180
0180
0180
0180
0180
0180
0180
0180
0180
0180
0180
0180
0180
0180
0180
0180
FFFF
FFFF
ENDCHAR
STARTCHAR 22BF
ENCODING 8895
SWIDTH 1000 0
DWIDTH 24 0
BBX 17 19 3 0
BITMAP
000080
000080
000180
000380
000680
000C80
001880
003080
007080
00E080
01C080
038080
070080
0E0080
1C0080
180080
300080
7FFF80
FFFF80
ENDCHAR
STARTCHAR 22EE
ENCODING 8942
SWIDTH 1000 0
DWIDTH 24 0
BBX 4 20 10 -1
BITMAP
60
F0
60
00
00
00
00
00
00
60
F0
60
00
00
00
00
00
60
F0
60
ENDCHAR
STARTCHAR 22EF
ENCODING 8943
SWIDTH 1000 0
DWIDTH 24 0
BBX 20 3 2 7
BITMAP
606060
F0F0F0
606060
ENDCHAR
STARTCHAR 2300
ENCODING 8960
SWIDTH 1000 0
DWIDTH 24 0
BBX 14 14 5 2
BITMAP
0788
1FFC
3878
7078
60F8
41CC
C38C
C70C
CE0C
7C18
7838
7870
FFE0
4780
ENDCHAR
STARTCHAR 2307
ENCODING 8967
SWIDTH 1000 0
DWIDTH 24 0
BBX 6 24 9 -3
BITMAP
80
40
70
18
0C
04
04
08
18
60
40
80
80
40
60
18
08
04
04
08
18
60
40
80
ENDCHAR
STARTCHAR 2312
ENCODING 8978
SWIDTH 1000 0
DWIDTH 24 0
BBX 24 7 0 14
BITMAP
007E00
03FFC0
0E0070
180018
30000E
600007
C00003
ENDCHAR
STARTCHAR 244A
ENCODING 9290
SWIDTH 1000 0
DWIDTH 24 0
BBX 22 22 1 -2
BITMAP
000080
0001C0
000380
000700
000E08
001C1C
003838
007070
00E0E0
01C1C0
038380
070700
0E0E00
1C1C00
383800
707000
E0E000
41C000
038000
070000
0E0000
040000
ENDCHAR
STARTCHAR 2460
ENCODING 9312
SWIDTH 1000 0
DWIDTH 24 0
BBX 22 24 1 -3
BITMAP
00FC00
030300
0C00C0
100020
200010
20F010
40F008
803008
803004
803004
803004
803004
803004
803004
803004
803004
803004
403008
603008
200010
100020
0C00C0
030300
00FC00
ENDCHAR
STARTCHAR 2461
ENCODING 9313
SWIDTH 1000 0
DWIDTH 24 0
BBX 22 24 1 -3
BITMAP
00FC00
030300
0C00C0
100020
200010
40FC08
40C608
808604
818604
800604
800604
800E04
803C04
807004
80C004
808004
818004
418008
41FE08
21FE10
100020
0C00C0
030300
00FC00
ENDCHAR
STARTCHAR 2462
ENCODING 9314
SWIDTH 1000 0
DWIDTH 24 0
BBX 22 24 1 -3
BITMAP
00FC00
030300
0C00C0
100020
200010
40FC08
40C608
808604
818604
800604
800404
803804
801C04
800604
800604
818604
818604
40C608
60FC08
200010
100020
0C00C0
030300
00FC00
ENDCHAR
STARTCHAR 2463
ENCODING 9315
SWIDTH 1000 0
DWIDTH 24 0
BBX 22 24 1 -3
BITMAP
00FC00
030300
0C00C0
100020
200010
201810
403808
802808
806804
804804
80C804
808804
818804
810804
830804
83FE04
800804
400808
600808
200010
100020
0C00C0
030300
00FC00
ENDCHAR
STARTCHAR 2464
ENCODING 9316
SWIDTH 1000 0
DWIDTH 24 0
BBX 22 24 1 -3
BITMAP
00FC00
030300
0C00C0
100020
200010
20FE18
40FE08
808004
808004
808004
80FC04
81C604
818604
800604
800604
818604
818604
408608
60FC08
200010
100020
0C00C0
030300
00FC00
ENDCHAR
STARTCHAR 2465
ENCODING 9317
SWIDTH 1000 0
DWIDTH 24 0
BBX 22 24 1 -3
BITMAP
00FC00
030300
0C00C0
100020
200010
40FC08
40C608
808604
818004
818004
81F804
81FC04
818604
818604
818604
818604
818604
40C608
60FC08
200010
100020
0C00C0
030300
00FC00
ENDCHAR
STARTCHAR 2466
ENCODING 9318
SWIDTH 1000 0
DWIDTH 24 0
BBX 22 24 1 -3
BITMAP
00FC00
030300
0C00C0
100020
200010
21FE10
41FE08
800608
800404
800C04
800C04
800804
801804
801804
803004
803004
802004
406008
606008
200010
100020
0C00C0
030300
00FC00
ENDCHAR
STARTCHAR 2467
ENCODING 9319
SWIDTH 1000 0
DWIDTH 24 0
BBX 22 24 1 -3
BITMAP
00FC00
030300
0C00C0
100020
200010
40FC08
408408
818604
818604
818604
808404
807804
80FC04
818604
818604
818604
818604
418608
60FC08
200010
100020
0C00C0
030300
00FC00
ENDCHAR
STARTCHAR 2468
ENCODING 9320
SWIDTH 1000 0
DWIDTH 24 0
BBX 22 24 1 -3
BITMAP
00FC00
030300
0C00C0
100020
200010
20FC18
408408
818604
818604
818604
818604
818604
80FE04
807E04
800604
800604
818604
408408
60FC08
200010
100020
0C00C0
030300
00FC00
ENDCHAR
STARTCHAR 2469
ENCODING 9321
SWIDTH 1000 0
DWIDTH 24 0
BBX 22 24 1 -3
BITMAP
00FC00
030300
0C00C0
100020
200010
2F0F90
431FC8
8318C4
8310C4
831044
831044
831044
831044
831044
831044
831044
8318C4
431FC8
230F90
200010
100020
0C00C0
030300
00FC00
ENDCHAR
STARTCHAR 246A
ENCODING 9322
SWIDTH 1000 0
DWIDTH 24 0
BBX 22 24 1 -3
BITMAP
00FC00
030300
0C00C0
100020
200010
2F0F18
430108
830104
830104
830104
830104
830104
830104
830104
830104
830104
830104
430108
630108
200010
100020
0C00C0
030300
00FC00
ENDCHAR
STARTCHAR 246B
ENCODING 9323
SWIDTH 1000 0
DWIDTH 24 0
BBX 22 24 1 -3
BITMAP
00FC00
030300
0C00C0
100020
200010
2F0F98
431FC8
8318C4
831044
831044
8300C4
8300C4
830784
830E04
831804
831004
831004
431008
631FC8
200010
100020
0C00C0
030300
00FC00
ENDCHAR
STARTCHAR 246C
ENCODING 9324
SWIDTH 1000 0
DWIDTH 24 0
BBX 22 24 1 -3
BITMAP
00FC00
030300
0C00C0
100020
200010
2F0F98
431FC8
8318C4
831044
8300C4
8300C4
830784
8303C4
8300C4
831044
831044
8310C8
431DC8
230F90
200010
180020
0C00C0
030300
00FC00
ENDCHAR
STARTCHAR 246D
ENCODING 9325
SWIDTH 1000 0
DWIDTH 24 0
BBX 22 24 1 -3
BITMAP
00FC00
030300
0C00C0
100020
200010
2F0198
430388
830284
830684
830484
830C84
830884
831884
831084
831084
831FC4
830084
430088
630088
200010
100020
0C00C0
030300
00FC00
ENDCHAR
STARTCHAR 246E
ENCODING 9326
SWIDTH 1000 0
DWIDTH 24 0
BBX 22 24 1 -3
BITMAP
00FC00
030300
0C00C0
100020
200010
2F1FD8
431FC8
831804
831804
831004
831F84
8318C4
8310C4
830044
830044
831044
8318C8
431DC8
230F90
200010
180020
0C00C0
030300
00FC00
ENDCHAR
STARTCHAR 246F
ENCODING 9327
SWIDTH 1000 0
DWIDTH 24 0
BBX 22 24 1 -3
BITMAP
00FC00
030300
0C00C0
100020
200010
4F0F98
431DC8
8318C4
8310C4
831004
831784
831DC4
8318C4
831044
831044
831044
4318C8
431DC8
230F90
200010
180020
0C00C0
030300
00FC00
ENDCHAR
STARTCHAR 2470
ENCODING 9328
SWIDTH 1000 0
DWIDTH 24 0
BBX 22 24 1 -3
BITMAP
00FC00
030300
0C00C0
100020
200010
2F1FF8
430068
830044
8300C4
830084
830184
830184
830104
830304
830304
830204
830604
430608
630C08
200010
100020
0C00C0
030300
00FC00
ENDCHAR
STARTCHAR 2471
ENCODING 9329
SWIDTH 1000 0
DWIDTH 24 0
BBX 22 24 1 -3
BITMAP
00FC00
030300
0C00C0
100020
200010
2F0F98
431FC8
8318C4
8310C4
8310C4
8318C4
830F84
831FC4
8310C4
831044
831044
8310C4
431DC8
230F90
200010
100020
0C00C0
030300
00FC00
ENDCHAR
STARTCHAR 2472
ENCODING 9330
SWIDTH 1000 0
DWIDTH 24 0
BBX 22 24 1 -3
BITMAP
00FC00
030300
0C00C0
100020
200010
2F0F90
431DC8
8318C8
831044
831044
831044
8318C4
831DC4
830F44
830044
831044
8318C4
431DC8
630F90
200010
100020
0C00C0
030300
00FC00
ENDCHAR
STARTCHAR 2473
ENCODING 9331
SWIDTH 1000 0
DWIDTH 24 0
BBX 22 24 1 -3
BITMAP
00FC00
030300
0C00C0
100020
200010
2787D0
4FCFC8
984864
986864
986824
804824
80C824
838824
8E0824
880824
980864
980864
580FC8
7FC7C8
200010
100020
0C00C0
030300
00FC00
ENDCHAR
STARTCHAR 2474
ENCODING 9332
SWIDTH 1000 0
DWIDTH 24 0
BBX 22 24 1 -3
BITMAP
100020
100030
200010
400018
40F008
40F008
801004
801004
801004
801004
801004
801004
801004
801004
801004
801004
801004
801004
401008
401008
600008
200010
100020
100020
ENDCHAR
STARTCHAR 2475
ENCODING 9333
SWIDTH 1000 0
DWIDTH 24 0
BBX 22 24 1 -3
BITMAP
100020
100020
200010
200018
401008
40FC08
808604
818604
818604
800604
800604
800E04
803C04
80F004
80C004
818004
818004
818004
41FE08
41FE08
600008
200010
100020
100020
ENDCHAR
STARTCHAR 2476
ENCODING 9334
SWIDTH 1000 0
DWIDTH 24 0
BBX 22 24 1 -3
BITMAP
100020
100020
200010
200018
401008
40FC08
818604
818604
818604
800604
800404
803C04
803C04
800604
800604
818604
818604
818604
40FC08
403008
600018
200010
100020
100020
ENDCHAR
STARTCHAR 2477
ENCODING 9335
SWIDTH 1000 0
DWIDTH 24 0
BBX 22 24 1 -3
BITMAP
100020
100030
200010
400008
401808
403808
802804
806804
804804
80C804
808804
818804
810804
830804
83FC04
83FC04
800804
800804
400808
400808
600008
200010
100020
100020
ENDCHAR
STARTCHAR 2478
ENCODING 9336
SWIDTH 1000 0
DWIDTH 24 0
BBX 22 24 1 -3
BITMAP
100020
100030
200010
400018
41FE08
41FE08
818004
818004
818004
818004
81FC04
818604
818604
800604
800604
818604
818604
818604
40FC08
403008
600018
200010
100020
100020
ENDCHAR
STARTCHAR 2479
ENCODING 9337
SWIDTH 1000 0
DWIDTH 24 0
BBX 22 24 1 -3
BITMAP
100020
100020
200010
200018
400008
40FC08
808604
818604
818004
818004
81F804
81FC04
818604
818604
818604
818604
818604
818604
40FC08
401008
600018
200010
100020
100020
ENDCHAR
STARTCHAR 247A
ENCODING 9338
SWIDTH 1000 0
DWIDTH 24 0
BBX 22 24 1 -3
BITMAP
100020
100030
200010
400018
41FE08
41FE08
800604
800604
800404
800C04
800C04
800804
801804
801804
803004
803004
802004
806004
406008
404008
600008
200010
100020
100020
ENDCHAR
STARTCHAR 247B
ENCODING 9339
SWIDTH 1000 0
DWIDTH 24 0
BBX 22 24 1 -3
BITMAP
100020
100020
200010
200018
403008
40FC08
818604
818604
818604
818604
808404
80FC04
80FC04
818604
818604
818604
818604
818604
40FC08
403008
600010
200010
100020
100020
ENDCHAR
STARTCHAR 247C
ENCODING 9340
SWIDTH 1000 0
DWIDTH 24 0
BBX 22 24 1 -3
BITMAP
100020
100020
200010
200018
402008
40FC08
818604
818604
818604
818604
818604
818604
80FE04
807E04
800604
800604
818604
818404
40FC08
402008
600018
200010
100020
100020
ENDCHAR
STARTCHAR 247D
ENCODING 9341
SWIDTH 1000 0
DWIDTH 24 0
BBX 22 24 1 -3
BITMAP
100020
100030
200010
400018
4F0208
4F0F88
8318C4
831044
831044
831044
831044
833044
831044
831044
831044
831044
831044
8318C4
430F88
400208
600008
200010
100020
100020
ENDCHAR
STARTCHAR 247E
ENCODING 9342
SWIDTH 1000 0
DWIDTH 24 0
BBX 22 24 1 -3
BITMAP
100020
100030
200010
400008
4F0788
4F0788
830184
830184
830184
830184
830184
830184
830184
830184
830184
830184
830184
830184
430188
400008
600008
200010
100020
100020
ENDCHAR
STARTCHAR 247F
ENCODING 9343
SWIDTH 1000 0
DWIDTH 24 0
BBX 22 24 1 -3
BITMAP
100020
100030
200010
400008
5E0208
5E0FC8
8218C4
821844
821844
820044
820044
8200C4
820384
820E04
821804
821804
821004
821004
421FC8
421FC8
600008
200010
100020
100020
ENDCHAR
STARTCHAR 2480
ENCODING 9344
SWIDTH 1000 0
DWIDTH 24 0
BBX 22 24 1 -3
BITMAP
100020
100030
200010
400008
5E0208
5E0FC8
8218C4
821844
821844
820044
8200C4
820784
8203C4
820044
820044
821064
821844
8218C4
420FC8
400208
600008
200010
100020
100020
ENDCHAR
STARTCHAR 2481
ENCODING 9345
SWIDTH 1000 0
DWIDTH 24 0
BBX 22 24 1 -3
BITMAP
100020
100020
200010
200018
5E0008
5E0188
820384
820384
820684
820684
820C84
820C84
821884
821884
821084
821FE4
820084
820084
420088
400008
600008
200010
100020
100020
ENDCHAR
STARTCHAR 2482
ENCODING 9346
SWIDTH 1000 0
DWIDTH 24 0
BBX 22 24 1 -3
BITMAP
100020
100030
200010
400008
5E1FC8
5E1FC8
821804
821804
821804
821804
821FC4
8218C4
821844
820044
820044
821044
821844
8218C4
420FC8
400208
600008
200010
100020
100020
ENDCHAR
STARTCHAR 2483
ENCODING 9347
SWIDTH 1000 0
DWIDTH 24 0
BBX 22 24 1 -3
BITMAP
100020
100030
200010
400008
5E0008
5E0FC8
8218C4
821844
821004
821004
821784
821FC4
821844
821844
821064
821064
821844
8218C4
420FC8
400008
600008
200010
100020
100020
ENDCHAR
STARTCHAR 2484
ENCODING 9348
SWIDTH 1000 0
DWIDTH 24 0
BBX 22 24 1 -3
BITMAP
100020
100030
200010
400008
5E1FE8
5E1FE8
820064
820044
8200C4
8200C4
820084
820184
820104
820304
820304
820204
820604
820604
420408
400008
600008
200010
100020
100020
ENDCHAR
STARTCHAR 2485
ENCODING 9349
SWIDTH 1000 0
DWIDTH 24 0
BBX 22 24 1 -3
BITMAP
100020
100030
200010
400008
5E0208
5E0FC8
8218C4
821844
821844
821844
8218C4
820F84
820FC4
821844
821064
821064
821044
8218C4
420FC8
400208
600008
200010
100020
100020
ENDCHAR
STARTCHAR 2486
ENCODING 9350
SWIDTH 1000 0
DWIDTH 24 0
BBX 22 24 1 -3
BITMAP
100020
100020
200010
200018
5E0008
5E0FC8
8218C4
821844
821044
821044
821044
8218C4
821FC4
820F44
820044
820044
821844
8218C4
420F88
400208
600008
200010
100020
100020
ENDCHAR
STARTCHAR 2487
ENCODING 9351
SWIDTH 1000 0
DWIDTH 24 0
BBX 22 24 1 -3
BITMAP
100020
100030
200010
400018
420108
4FC7C8
98CC64
984864
904824
804824
804824
80D824
839824
8E1824
980824
980824
900824
900C64
5FCFC8
5FC108
600008
200010
100020
100020
ENDCHAR
STARTCHAR 2488
ENCODING 9352
SWIDTH 1000 0
DWIDTH 24 0
BBX 15 20 8 -1
BITMAP
FC00
FC00
0C00
0C00
0C00
0C00
0C00
0C00
0C00
0C00
0C00
0C00
0C00
0C00
0C00
0C00
0C00
0C0E
0C0E
0C0E
ENDCHAR
STARTCHAR 2489
ENCODING 9353
SWIDTH 1000 0
DWIDTH 24 0
BBX 18 19 5 0
BITMAP
1FE000
7FF800
703C00
E00C00
C00E00
C00E00
000E00
000C00
001C00
007800
1FF000
7F8000
F00000
C00000
C00000
C00000
C001C0
FFFFC0
FFFFC0
ENDCHAR
STARTCHAR 248A
ENCODING 9354
SWIDTH 1000 0
DWIDTH 24 0
BBX 19 20 4 -1
BITMAP
0FF000
3FFC00
381E00
700600
600600
600600
000600
000E00
03FC00
03FC00
000E00
000600
000600
E00700
E00700
600600
700600
781EE0
3FFCE0
0FF0E0
ENDCHAR
STARTCHAR 248B
ENCODING 9355
SWIDTH 1000 0
DWIDTH 24 0
BBX 19 20 4 -1
BITMAP
003800
007800
00D800
01D800
039800
071800
061800
0C1800
181800
381800
701800
E01800
C01800
FFFF00
FFFF00
001800
001800
0018E0
0018E0
0018E0
ENDCHAR
STARTCHAR 248C
ENCODING 9356
SWIDTH 1000 0
DWIDTH 24 0
BBX 18 20 5 -1
BITMAP
FFFC00
FFFC00
C00000
C00000
C00000
C00000
CFE000
FFF800
F03C00
E01C00
000C00
000C00
000E00
000E00
C00C00
C00C00
C01C00
F03DC0
7FF9C0
1FE1C0
ENDCHAR
STARTCHAR 248D
ENCODING 9357
SWIDTH 1000 0
DWIDTH 24 0
BBX 19 20 4 -1
BITMAP
0FF000
1FFC00
381E00
700600
600600
600000
600000
67F000
6FFC00
F81E00
700600
600600
600700
600700
600700
600600
700600
381EE0
1FFCE0
0FF0E0
ENDCHAR
STARTCHAR 248E
ENCODING 9358
SWIDTH 1000 0
DWIDTH 24 0
BBX 19 20 4 -1
BITMAP
FFFF00
FFFF00
000600
000E00
000C00
001C00
001800
003800
003000
007000
006000
00E000
01C000
01C000
038000
030000
070000
0600E0
0E00E0
1C00E0
ENDCHAR
STARTCHAR 248F
ENCODING 9359
SWIDTH 1000 0
DWIDTH 24 0
BBX 19 20 4 -1
BITMAP
0FF000
3FFC00
701E00
600600
600600
600600
600600
700C00
3FF800
3FFC00
781E00
600600
E00700
E00700
E00700
E00700
600600
780EE0
3FFCE0
0FF0E0
ENDCHAR
STARTCHAR 2490
ENCODING 9360
SWIDTH 1000 0
DWIDTH 24 0
BBX 19 20 4 -1
BITMAP
0FF000
3FFC00
381C00
700E00
600600
600600
600700
600700
700700
781F00
3FFF00
0FE700
000700
000600
E00600
E00600
600E00
781CE0
3FF8E0
0FF0E0
ENDCHAR
STARTCHAR 249C
ENCODING 9372
SWIDTH 1000 0
DWIDTH 24 0
BBX 22 24 1 -3
BITMAP
100020
100030
200010
400008
400008
40FC08
81FF04
830304
830184
830184
800384
81FF84
83FD84
860184
860184
860384
870784
83FF84
40F188
400008
600008
200010
100020
100020
ENDCHAR
STARTCHAR 249D
ENCODING 9373
SWIDTH 1000 0
DWIDTH 24 0
BBX 22 24 1 -3
BITMAP
100020
100020
200010
430018
430008
430008
830004
833804
83FF04
838304
830184
830184
830184
830184
830184
830184
830184
830184
438308
43FF08
427C08
200010
300010
100020
ENDCHAR
STARTCHAR 249E
ENCODING 9374
SWIDTH 1000 0
DWIDTH 24 0
BBX 22 24 1 -3
BITMAP
100020
100030
200010
400008
400008
40FC08
83FF04
830304
860384
860184
860004
860004
860004
860004
860184
860184
830304
83FF04
40FC08
400008
400008
200010
100020
100020
ENDCHAR
STARTCHAR 249F
ENCODING 9375
SWIDTH 1000 0
DWIDTH 24 0
BBX 22 24 1 -3
BITMAP
100020
100020
200010
400318
400308
400308
800304
80F304
83FF04
830704
860304
860304
860304
860304
860304
860304
860304
860304
430708
43FF08
40F308
200010
300010
100020
ENDCHAR
STARTCHAR 24A0
ENCODING 9376
SWIDTH 1000 0
DWIDTH 24 0
BBX 22 24 1 -3
BITMAP
100020
100030
200010
400008
400008
407C08
81FF04
830704
860384
860184
860184
87FF84
87FF84
860004
860184
860184
830304
83FF04
40FC08
400008
400008
200010
100020
100020
ENDCHAR
STARTCHAR 24A1
ENCODING 9377
SWIDTH 1000 0
DWIDTH 24 0
BBX 22 24 1 -3
BITMAP
100020
100030
200010
400E08
403E08
403008
803004
807004
81FE04
81FE04
807004
807004
807004
807004
807004
807004
807004
807004
407008
407008
607008
200010
100020
100020
ENDCHAR
STARTCHAR 24A2
ENCODING 9378
SWIDTH 1000 0
DWIDTH 24 0
BBX 22 24 1 -3
BITMAP
100020
100020
200010
400058
41FFC8
43FF08
870304
860184
860184
870304
83FF04
84FC04
8C0004
87F804
83FF84
840384
8C00C4
8C0184
47FF88
43FE08
600018
200010
100020
100020
ENDCHAR
STARTCHAR 24A3
ENCODING 9379
SWIDTH 1000 0
DWIDTH 24 0
BBX 22 24 1 -3
BITMAP
100020
100030
200010
460008
460008
460008
860004
867C04
86FF04
878704
870304
860384
860384
860384
860384
860384
860384
860384
460388
460388
600008
200010
100020
100020
ENDCHAR
STARTCHAR 24A4
ENCODING 9380
SWIDTH 1000 0
DWIDTH 24 0
BBX 22 24 1 -3
BITMAP
100020
100020
200010
200018
403008
403008
800004
800004
803004
803004
803004
803004
803004
803004
803004
803004
803004
803004
403008
403008
603008
200010
100020
100020
ENDCHAR
STARTCHAR 24A5
ENCODING 9381
SWIDTH 1000 0
DWIDTH 24 0
BBX 22 24 1 -3
BITMAP
100020
100020
200010
403818
403808
400008
800004
801804
801804
801804
801804
801804
801804
801804
801804
801804
801804
801804
401808
403808
20F018
20E010
100020
100020
ENDCHAR
STARTCHAR 24A6
ENCODING 9382
SWIDTH 1000 0
DWIDTH 24 0
BBX 22 23 1 -3
BITMAP
100020
100030
200010
430008
430008
43000C
830004
830304
830604
830C04
831804
833004
836004
83E004
833004
833804
831C04
430E08
430708
630388
200010
100020
100020
ENDCHAR
STARTCHAR 24A7
ENCODING 9383
SWIDTH 1000 0
DWIDTH 24 0
BBX 22 23 1 -3
BITMAP
100020
100030
200010
403008
403008
40300C
803004
803004
803004
803004
803004
803004
803004
803004
803004
803004
803004
403008
403008
603008
200010
100020
100020
ENDCHAR
STARTCHAR 24A8
ENCODING 9384
SWIDTH 1000 0
DWIDTH 24 0
BBX 22 24 1 -3
BITMAP
100020
100030
200010
400008
400008
59C388
9FEFC4
9C78E4
983064
983064
983064
983064
983064
983064
983064
983064
983064
983064
400008
400008
600008
200010
100020
100020
ENDCHAR
STARTCHAR 24A9
ENCODING 9385
SWIDTH 1000 0
DWIDTH 24 0
BBX 22 24 1 -3
BITMAP
100020
100030
200010
400008
400008
433C08
83FF04
838384
830184
830184
830184
830184
830184
830184
830184
830184
830184
830184
400008
400008
600008
200010
100020
100020
ENDCHAR
STARTCHAR 24AA
ENCODING 9386
SWIDTH 1000 0
DWIDTH 24 0
BBX 22 24 1 -3
BITMAP
100020
100030
200010
400008
400008
40FC08
83FF04
830304
860184
860184
860184
860184
860184
860184
860184
870184
830304
83FF04
40FC08
400008
400008
200010
100020
100020
ENDCHAR
STARTCHAR 24AB
ENCODING 9387
SWIDTH 1000 0
DWIDTH 24 0
BBX 22 24 1 -3
BITMAP
100020
100020
200010
200018
437E08
43FF08
838384
830184
830184
830184
830184
830184
830184
838184
838384
83FF04
833C04
830004
430008
430008
600008
200010
100020
100020
ENDCHAR
STARTCHAR 24AC
ENCODING 9388
SWIDTH 1000 0
DWIDTH 24 0
BBX 22 24 1 -3
BITMAP
100020
100020
200010
200018
41FB08
43FF08
870704
860304
860304
860304
860304
860304
860304
860304
870704
83FF04
80F304
800304
400308
400308
600008
200010
100020
100020
ENDCHAR
STARTCHAR 24AD
ENCODING 9389
SWIDTH 1000 0
DWIDTH 24 0
BBX 22 24 1 -3
BITMAP
100020
100030
200010
400008
400008
406E0C
807E04
807004
806004
806004
806004
806004
806004
806004
806004
806004
806004
806004
400008
400008
600010
200010
100020
100020
ENDCHAR
STARTCHAR 24AE
ENCODING 9390
SWIDTH 1000 0
DWIDTH 24 0
BBX 22 24 1 -3
BITMAP
100020
100030
200010
400008
400008
40FC08
83FF04
830704
820304
820004
838004
83FE04
80FF04
800384
860184
860184
830304
83FF04
40FC08
400008
600008
200010
100020
100020
ENDCHAR
STARTCHAR 24AF
ENCODING 9391
SWIDTH 1000 0
DWIDTH 24 0
BBX 22 24 1 -3
BITMAP
100020
100030
200010
400018
406008
406008
806004
83FE04
83FE04
806004
806004
806004
806004
806004
806004
806004
806004
806004
407E08
403E08
600018
200010
100020
100020
ENDCHAR
STARTCHAR 24B0
ENCODING 9392
SWIDTH 1000 0
DWIDTH 24 0
BBX 22 24 1 -3
BITMAP
100020
100020
200010
200018
400008
400008
870304
870304
870304
870304
870304
870304
870304
870304
870304
830304
838704
83FF04
40F908
400008
600008
200010
100020
100020
ENDCHAR
STARTCHAR 24B1
ENCODING 9393
SWIDTH 1000 0
DWIDTH 24 0
BBX 22 24 1 -3
BITMAP
100020
100020
200010
200018
400008
400008
870384
830304
830304
838704
818604
818604
81CE04
80CC04
80CC04
807804
807804
807804
403008
400008
600008
200010
100020
100020
ENDCHAR
STARTCHAR 24B2
ENCODING 9394
SWIDTH 1000 0
DWIDTH 24 0
BBX 22 24 1 -3
BITMAP
100020
100020
200010
200018
400008
400008
B87874
987864
987864
987864
984864
8CCCC4
8CCCC4
8CCCC4
8CCCC4
868584
878784
878784
478788
400008
600008
200010
100020
100020
ENDCHAR
STARTCHAR 24B3
ENCODING 9395
SWIDTH 1000 0
DWIDTH 24 0
BBX 22 23 1 -3
BITMAP
100020
100030
200010
400008
400008
43030C
838704
818604
80CC04
80FC04
807804
807804
807804
80CC04
81CE04
818604
830304
470388
400008
600008
200010
100020
100020
ENDCHAR
STARTCHAR 24B4
ENCODING 9396
SWIDTH 1000 0
DWIDTH 24 0
BBX 22 24 1 -3
BITMAP
100020
100030
200010
400008
470388
430308
830304
838704
818604
818604
80CC04
80CC04
806C04
807804
807804
803804
803004
803004
43E008
43C008
600018
200010
100020
100020
ENDCHAR
STARTCHAR 24B5
ENCODING 9397
SWIDTH 1000 0
DWIDTH 24 0
BBX 22 24 1 -3
BITMAP
100020
100030
200010
400008
400008
43FF08
83FF04
800704
800E04
800C04
801C04
803804
807004
80E004
80C004
81C004
838004
83FF04
43FF08
400008
400008
200010
300010
100020
ENDCHAR
STARTCHAR 24B6
ENCODING 9398
SWIDTH 1000 0
DWIDTH 24 0
BBX 22 24 1 -3
BITMAP
00FC00
030300
0C00C0
100020
203010
207818
407808
80CC04
80CC04
80CC04
818604
818604
830704
83FF04
83FF04
860184
860184
4E01C8
6C00C8
200010
100020
0C00C0
030300
00FC00
ENDCHAR
STARTCHAR 24B7
ENCODING 9399
SWIDTH 1000 0
DWIDTH 24 0
BBX 22 24 1 -3
BITMAP
00FC00
030300
0C00C0
100020
200010
23FE10
43FF88
830184
830184
830184
830184
83FF04
83FF84
830184
8300C4
8300C4
8301C8
43FF88
23FF10
200010
180020
0C00C0
030300
00FC00
ENDCHAR
STARTCHAR 24B8
ENCODING 9400
SWIDTH 1000 0
DWIDTH 24 0
BBX 22 24 1 -3
BITMAP
00FC00
030300
0C00C0
100020
207C10
41FF08
430388
860184
860184
860004
860004
860004
860004
860004
8601C4
860184
860184
438388
61FF08
207C10
100020
0C00C0
030300
00FC00
ENDCHAR
STARTCHAR 24B9
ENCODING 9401
SWIDTH 1000 0
DWIDTH 24 0
BBX 22 24 1 -3
BITMAP
00FC00
030300
0C00C0
100020
200010
27FF18
47FF88
8601C4
8600C4
8600C4
8600C4
8600C4
8600C4
8600C4
8600C4
8600C4
4601C8
47FF88
27FE10
200010
180020
0C00C0
030300
00FC00
ENDCHAR
STARTCHAR 24BA
ENCODING 9402
SWIDTH 1000 0
DWIDTH 24 0
BBX 22 24 1 -3
BITMAP
00FC00
030300
0C00C0
100020
200010
23FF90
43FF88
830004
830004
830004
830004
83FF04
83FF04
830004
830004
830004
830008
43FF88
23FF90
200010
180020
0C00C0
030300
00FC00
ENDCHAR
STARTCHAR 24BB
ENCODING 9403
SWIDTH 1000 0
DWIDTH 24 0
BBX 22 24 1 -3
BITMAP
00FC00
030300
0C00C0
100020
200010
21FF98
41FF88
818004
818004
818004
818004
818004
81FF04
81FF04
818004
818004
818004
418008
418008
218010
100020
0C00C0
030300
00FC00
ENDCHAR
STARTCHAR 24BC
ENCODING 9404
SWIDTH 1000 0
DWIDTH 24 0
BBX 22 24 1 -3
BITMAP
00FC00
030300
0C00C0
100020
207C10
43FF08
470388
860184
860184
860004
8C0004
8C0004
8C1F84
8C1F84
8C0084
860184
860184
470388
43FF08
20FC10
100020
0C0040
030300
00FC00
ENDCHAR
STARTCHAR 24BD
ENCODING 9405
SWIDTH 1000 0
DWIDTH 24 0
BBX 22 24 1 -3
BITMAP
00FC00
030300
0C00C0
100020
200010
260198
460188
860184
860184
860184
860184
87FF84
87FF84
860184
860184
860184
860184
460188
660188
200010
100020
0C00C0
030300
00FC00
ENDCHAR
STARTCHAR 24BE
ENCODING 9406
SWIDTH 1000 0
DWIDTH 24 0
BBX 22 24 1 -3
BITMAP
00FC00
030300
0C00C0
100020
200010
203018
403008
803004
803004
803004
803004
803004
803004
803004
803004
803004
803004
403008
603008
200010
100020
0C00C0
030300
00FC00
ENDCHAR
STARTCHAR 24BF
ENCODING 9407
SWIDTH 1000 0
DWIDTH 24 0
BBX 22 24 1 -3
BITMAP
00FC00
030300
0C00C0
100020
200610
400608
400608
800604
800604
800604
800604
800604
800604
860604
860604
860604
860608
47FC08
21F810
200010
180020
0C00C0
030300
00FC00
ENDCHAR
STARTCHAR 24C0
ENCODING 9408
SWIDTH 1000 0
DWIDTH 24 0
BBX 22 24 1 -3
BITMAP
00FC00
030300
0C00C0
100020
200010
230398
430708
830E04
831C04
833804
837004
83E004
836004
833004
831804
830C04
830604
430308
630188
200050
100020
0C00C0
030300
00FC00
ENDCHAR
STARTCHAR 24C1
ENCODING 9409
SWIDTH 1000 0
DWIDTH 24 0
BBX 22 24 1 -3
BITMAP
00FC00
030300
0C00C0
100020
218010
218018
418008
818004
818004
818004
818004
818004
818004
818004
818004
818004
818004
41FF88
41FF88
200010
100020
0C0040
030300
00FC00
ENDCHAR
STARTCHAR 24C2
ENCODING 9410
SWIDTH 1000 0
DWIDTH 24 0
BBX 22 24 1 -3
BITMAP
00FC00
030300
0C00C0
100020
200010
4E01C8
4E01C8
8F03C4
8F03C4
8D02C4
8D86C4
8D86C4
8C84C4
8CCCC4
8CCCC4
8C48C4
4C78C8
4C78C8
2C30D0
200010
180020
0C00C0
030300
00FC00
ENDCHAR
STARTCHAR 24C3
ENCODING 9411
SWIDTH 1000 0
DWIDTH 24 0
BBX 22 24 1 -3
BITMAP
00FC00
030300
0C00C0
100020
200010
270198
478188
878184
86C184
86E184
866184
863184
863184
861984
861984
860D84
860F84
460788
660388
200010
100020
0C00C0
030300
00FC00
ENDCHAR
STARTCHAR 24C4
ENCODING 9412
SWIDTH 1000 0
DWIDTH 24 0
BBX 22 24 1 -3
BITMAP
00FC00
030300
0C00C0
100020
207C10
41FF08
430708
860184
860184
860184
860184
860184
860184
860184
860184
860184
860184
438308
43FF08
20F810
100020
0C0040
030300
00FC00
ENDCHAR
STARTCHAR 24C5
ENCODING 9413
SWIDTH 1000 0
DWIDTH 24 0
BBX 22 24 1 -3
BITMAP
00FC00
030300
0C00C0
100020
200010
43FF08
43FF88
8301C4
8300C4
8300C4
8300C4
8301C4
83FF84
83FF04
830004
830004
830008
430008
230010
230010
100020
0C00C0
030300
00FC00
ENDCHAR
STARTCHAR 24C6
ENCODING 9414
SWIDTH 1000 0
DWIDTH 24 0
BBX 22 24 1 -3
BITMAP
00FC00
030300
0C00C0
100020
207810
41FF08
430708
860184
860184
860184
860184
860184
860184
860184
861984
861D84
860F84
438708
43FF88
207D90
100020
0C0040
030300
00FC00
ENDCHAR
STARTCHAR 24C7
ENCODING 9415
SWIDTH 1000 0
DWIDTH 24 0
BBX 22 24 1 -3
BITMAP
00FC00
030300
0C00C0
100020
200010
23FE10
43FF08
830384
830184
830184
830304
83FF04
83FE04
830304
830304
830104
830104
430188
630188
200010
100020
0C00C0
030300
00FC00
ENDCHAR
STARTCHAR 24C8
ENCODING 9416
SWIDTH 1000 0
DWIDTH 24 0
BBX 22 24 1 -3
BITMAP
00FC00
030300
0C00C0
100020
207810
41FE08
430708
830304
860304
830004
838004
83FE04
807F04
800304
800184
860184
870184
430308
43FF08
20FC10
100020
0C0040
030300
00FC00
ENDCHAR
STARTCHAR 24C9
ENCODING 9417
SWIDTH 1000 0
DWIDTH 24 0
BBX 22 24 1 -3
BITMAP
00FC00
030300
0C00C0
100020
200010
47FF88
47FF88
803004
803004
803004
803004
803004
803004
803004
803004
803004
803008
403008
203010
203010
100020
0C00C0
030300
00FC00
ENDCHAR
STARTCHAR 24CA
ENCODING 9418
SWIDTH 1000 0
DWIDTH 24 0
BBX 22 24 1 -3
BITMAP
00FC00
030300
0C00C0
100020
200010
260198
460188
860184
860184
860184
860184
860184
860184
860184
860184
860184
870184
438308
43FE08
20F810
100020
0C0040
030300
00FC00
ENDCHAR
STARTCHAR 24CB
ENCODING 9419
SWIDTH 1000 0
DWIDTH 24 0
BBX 22 24 1 -3
BITMAP
00FC00
030300
0C00C0
100020
200010
260198
460188
870384
830304
830304
838704
818604
818604
81CC04
80CC04
80CC04
807804
407808
607808
203010
100020
0C00C0
030300
00FC00
ENDCHAR
STARTCHAR 24CC
ENCODING 9420
SWIDTH 1000 0
DWIDTH 24 0
BBX 22 24 1 -3
BITMAP
00FC00
030300
0C00C0
100020
200010
383078
587868
987864
987864
987864
8C48C4
8CCCC4
8CCCC4
8CCCC4
84CC84
868584
878784
478788
678708
238710
100020
0C00C0
030300
00FC00
ENDCHAR
STARTCHAR 24CD
ENCODING 9421
SWIDTH 1000 0
DWIDTH 24 0
BBX 22 24 1 -3
BITMAP
00FC00
030300
0C00C0
100020
200010
270398
430308
818604
81CE04
80CC04
807804
807804
807804
80FC04
80CC04
818604
838704
430308
670388
200010
100020
0C00C0
030300
00FC00
ENDCHAR
STARTCHAR 24CE
ENCODING 9422
SWIDTH 1000 0
DWIDTH 24 0
BBX 22 24 1 -3
BITMAP
00FC00
030300
0C00C0
100020
200010
260198
470388
830304
838704
818604
80CC04
80FC04
807804
803004
803004
803004
803004
403008
603008
203010
100020
0C00C0
030300
00FC00
ENDCHAR
STARTCHAR 24CF
ENCODING 9423
SWIDTH 1000 0
DWIDTH 24 0
BBX 22 24 1 -3
BITMAP
00FC00
030300
0C00C0
100020
200010
27FF90
47FF88
800704
800604
800C04
801804
803804
807004
80E004
81C004
818004
830008
47FF88
27FF90
200010
180020
0C00C0
030300
00FC00
ENDCHAR
STARTCHAR 24D0
ENCODING 9424
SWIDTH 1000 0
DWIDTH 24 0
BBX 22 24 1 -3
BITMAP
00FC00
030300
0C00C0
100020
200010
200018
403008
81FE04
818304
830304
800304
80FF04
83FB04
830304
830304
830704
81FF04
402008
600008
200010
100020
0C00C0
030300
00FC00
ENDCHAR
STARTCHAR 24D1
ENCODING 9425
SWIDTH 1000 0
DWIDTH 24 0
BBX 22 24 1 -3
BITMAP
00FC00
030300
0C00C0
100020
218010
218018
418008
818004
81FC04
81FF04
818304
818104
818104
818104
818104
818104
818304
41FF08
617C08
200010
100020
0C00C0
030300
00FC00
ENDCHAR
STARTCHAR 24D2
ENCODING 9426
SWIDTH 1000 0
DWIDTH 24 0
BBX 22 24 1 -3
BITMAP
00FC00
030300
0C00C0
100020
200010
400008
407808
81FE04
838704
830304
830004
830004
830004
830304
830304
838704
81FE04
407808
600008
200010
100020
0C00C0
030300
00FC00
ENDCHAR
STARTCHAR 24D3
ENCODING 9427
SWIDTH 1000 0
DWIDTH 24 0
BBX 22 24 1 -3
BITMAP
00FC00
030300
0C00C0
100020
200610
200618
400608
800604
80FE04
83FE04
830604
820604
820604
860604
820604
820604
830604
43FE08
60FA08
200010
100020
0C00C0
030300
00FC00
ENDCHAR
STARTCHAR 24D4
ENCODING 9428
SWIDTH 1000 0
DWIDTH 24 0
BBX 22 24 1 -3
BITMAP
00FC00
030300
0C00C0
100020
200010
400008
407008
81FE04
838704
830304
830304
83FF04
83FF04
830004
830304
838304
81FE04
403008
600008
200010
100020
0C00C0
030300
00FC00
ENDCHAR
STARTCHAR 24D5
ENCODING 9429
SWIDTH 1000 0
DWIDTH 24 0
BBX 22 24 1 -3
BITMAP
00FC00
030300
0C00C0
100020
200010
201C18
403C08
803004
803004
80FC04
80FC04
803004
803004
803004
803004
803004
803004
403008
603008
203010
100020
0C00C0
030300
00FC00
ENDCHAR
STARTCHAR 24D6
ENCODING 9430
SWIDTH 1000 0
DWIDTH 24 0
BBX 22 24 1 -3
BITMAP
00FC00
030300
0C00C0
100020
200010
201198
41FF88
830304
830304
830304
81FE04
83FC04
860004
83FE04
831F04
860184
860104
43FF08
21FE10
200010
100020
0C00C0
030300
00FC00
ENDCHAR
STARTCHAR 24D7
ENCODING 9431
SWIDTH 1000 0
DWIDTH 24 0
BBX 22 24 1 -3
BITMAP
00FC00
030300
0C00C0
100020
230010
230018
430008
830004
837C04
83FE04
838704
830304
830304
830304
830304
830304
830304
430308
630308
200010
100020
0C00C0
030300
00FC00
ENDCHAR
STARTCHAR 24D8
ENCODING 9432
SWIDTH 1000 0
DWIDTH 24 0
BBX 22 24 1 -3
BITMAP
00FC00
030300
0C00C0
100020
200010
203018
403008
800004
803004
803004
803004
803004
803004
803004
803004
803004
803004
403008
603008
200010
100020
0C00C0
030300
00FC00
ENDCHAR
STARTCHAR 24D9
ENCODING 9433
SWIDTH 1000 0
DWIDTH 24 0
BBX 22 24 1 -3
BITMAP
00FC00
030300
0C00C0
100020
203810
203818
400008
800004
801004
801004
801004
801004
801004
801004
801004
801004
801004
401008
403008
207010
104020
0C00C0
030300
00FC00
ENDCHAR
STARTCHAR 24DA
ENCODING 9434
SWIDTH 1000 0
DWIDTH 24 0
BBX 22 24 1 -3
BITMAP
00FC00
030300
0C00C0
100020
20C010
20C018
40C008
80C004
80C604
80CE04
80DC04
80D804
80F004
80F004
80F804
80D804
80CC04
40C608
60C308
200010
100020
0C00C0
030300
00FC00
ENDCHAR
STARTCHAR 24DB
ENCODING 9435
SWIDTH 1000 0
DWIDTH 24 0
BBX 22 24 1 -3
BITMAP
00FC00
030300
0C00C0
100020
200010
203018
403008
803004
803004
803004
803004
803004
803004
803004
803004
803004
803004
403008
603008
200010
100020
0C00C0
030300
00FC00
ENDCHAR
STARTCHAR 24DC
ENCODING 9436
SWIDTH 1000 0
DWIDTH 24 0
BBX 22 24 1 -3
BITMAP
00FC00
030300
0C00C0
100020
200010
400018
4C8308
8FEFC4
8C38C4
8C30C4
8C30C4
8C30C4
8C30C4
8C30C4
8C30C4
8C30C4
8C30C4
400008
600008
200010
100020
0C00C0
030300
00FC00
ENDCHAR
STARTCHAR 24DD
ENCODING 9437
SWIDTH 1000 0
DWIDTH 24 0
BBX 22 24 1 -3
BITMAP
00FC00
030300
0C00C0
100020
200010
200018
400008
817E04
818604
818604
810204
810204
810204
810204
810204
810204
810204
410208
600008
200010
100020
0C00C0
030300
00FC00
ENDCHAR
STARTCHAR 24DE
ENCODING 9438
SWIDTH 1000 0
DWIDTH 24 0
BBX 22 24 1 -3
BITMAP
00FC00
030300
0C00C0
100020
200010
400018
403008
81FE04
818604
830304
830304
830304
830304
830304
830304
818604
81FE04
403808
600008
200010
100020
0C00C0
030300
00FC00
ENDCHAR
STARTCHAR 24DF
ENCODING 9439
SWIDTH 1000 0
DWIDTH 24 0
BBX 22 24 1 -3
BITMAP
00FC00
030300
0C00C0
100020
200010
200010
417C08
81FE08
818704
818304
810304
810304
810304
818304
818604
81FE04
817C04
410008
610008
200010
100020
0C00C0
030300
00FC00
ENDCHAR
STARTCHAR 24E0
ENCODING 9440
SWIDTH 1000 0
DWIDTH 24 0
BBX 22 24 1 -3
BITMAP
00FC00
030300
0C00C0
100020
200010
200010
40FA08
81FE08
818604
830604
830204
830204
830204
830604
818604
81FE04
80FA04
400208
600208
200010
100020
0C00C0
030300
00FC00
ENDCHAR
STARTCHAR 24E1
ENCODING 9441
SWIDTH 1000 0
DWIDTH 24 0
BBX 22 24 1 -3
BITMAP
00FC00
030300
0C00C0
100020
200010
200018
400008
806C04
807C04
806004
806004
806004
806004
806004
806004
806004
806004
406008
600008
200010
100020
0C00C0
030300
00FC00
ENDCHAR
STARTCHAR 24E2
ENCODING 9442
SWIDTH 1000 0
DWIDTH 24 0
BBX 22 24 1 -3
BITMAP
00FC00
030300
0C00C0
100020
200010
200018
403008
81FE04
818604
810604
818004
81FC04
807E04
800304
830304
818604
81FE04
403008
600008
200010
100020
0C00C0
030300
00FC00
ENDCHAR
STARTCHAR 24E3
ENCODING 9443
SWIDTH 1000 0
DWIDTH 24 0
BBX 22 24 1 -3
BITMAP
00FC00
030300
0C00C0
100020
200010
202018
402008
802004
81FC04
81FC04
802004
802004
802004
802004
802004
802004
803004
403E08
601E08
200010
100020
0C00C0
030300
00FC00
ENDCHAR
STARTCHAR 24E4
ENCODING 9444
SWIDTH 1000 0
DWIDTH 24 0
BBX 22 24 1 -3
BITMAP
00FC00
030300
0C00C0
100020
200010
400008
410208
810204
810204
810204
810204
810204
810204
810204
818604
818604
81FA04
400008
200010
200010
100020
0C00C0
030300
00FC00
ENDCHAR
STARTCHAR 24E5
ENCODING 9445
SWIDTH 1000 0
DWIDTH 24 0
BBX 22 24 1 -3
BITMAP
00FC00
030300
0C00C0
100020
200010
200018
400008
830304
818604
818604
818604
80CC04
80CC04
80CC04
807804
807804
807804
403008
600008
200010
100020
0C00C0
030300
00FC00
ENDCHAR
STARTCHAR 24E6
ENCODING 9446
SWIDTH 1000 0
DWIDTH 24 0
BBX 22 24 1 -3
BITMAP
00FC00
030300
0C00C0
100020
200010
200018
400008
8C30C4
8C30C4
847884
867984
865984
864984
82CD04
83CF04
83CF04
838704
418608
600008
200010
100020
0C00C0
030300
00FC00
ENDCHAR
STARTCHAR 24E7
ENCODING 9447
SWIDTH 1000 0
DWIDTH 24 0
BBX 22 24 1 -3
BITMAP
00FC00
030300
0C00C0
100020
200010
200018
400008
818604
80CC04
80CC04
807804
807804
807804
807804
80CC04
81CE04
818604
438708
600008
200010
100020
0C00C0
030300
00FC00
ENDCHAR
STARTCHAR 24E8
ENCODING 9448
SWIDTH 1000 0
DWIDTH 24 0
BBX 22 24 1 -3
BITMAP
00FC00
030300
0C00C0
100020
200010
400008
418608
818604
818604
80CC04
80CC04
804C04
806804
807804
803804
803004
403008
41E008
21E010
200010
180020
0C00C0
030300
00FC00
ENDCHAR
STARTCHAR 24E9
ENCODING 9449
SWIDTH 1000 0
DWIDTH 24 0
BBX 22 24 1 -3
BITMAP
00FC00
030300
0C00C0
100020
200010
400008
41FE08
81FE04
800C04
800C04
801804
803004
803004
806004
80C004
80C004
81FE04
41FE08
600008
200010
100020
0C00C0
030300
00FC00
ENDCHAR
STARTCHAR 24EA
ENCODING 9450
SWIDTH 1000 0
DWIDTH 24 0
BBX 22 24 1 -3
BITMAP
00FC00
030300
0C00C0
100020
200010
40FC08
408408
818604
818604
818604
818604
818604
818604
818604
818604
818604
818604
40C408
60FC08
200010
100020
0C00C0
030300
00FC00
ENDCHAR
STARTCHAR 2500
ENCODING 9472
SWIDTH 1000 0
DWIDTH 24 0
BBX 24 1 0 8
BITMAP
FFFFFF
ENDCHAR
STARTCHAR 2501
ENCODING 9473
SWIDTH 1000 0
DWIDTH 24 0
BBX 24 3 0 7
BITMAP
FFFFFF
FFFFFF
FFFFFF
ENDCHAR
STARTCHAR 2502
ENCODING 9474
SWIDTH 1000 0
DWIDTH 24 0
BBX 1 24 11 -3
BITMAP
80
80
80
80
80
80
80
80
80
80
80
80
80
80
80
80
80
80
80
80
80
80
80
80
ENDCHAR
STARTCHAR 2503
ENCODING 9475
SWIDTH 1000 0
DWIDTH 24 0
BBX 2 24 11 -3
BITMAP
C0
C0
C0
C0
C0
C0
C0
C0
C0
C0
C0
C0
C0
C0
C0
C0
C0
C0
C0
C0
C0
C0
C0
C0
ENDCHAR
STARTCHAR 2504
ENCODING 9476
SWIDTH 1000 0
DWIDTH 24 0
BBX 23 1 0 8
BITMAP
EEEEEE
ENDCHAR
STARTCHAR 2505
ENCODING 9477
SWIDTH 1000 0
DWIDTH 24 0
BBX 23 3 0 7
BITMAP
EEEEEE
EEEEEE
EEEEEE
ENDCHAR
STARTCHAR 2506
ENCODING 9478
SWIDTH 1000 0
DWIDTH 24 0
BBX 1 23 11 -2
BITMAP
80
80
00
00
80
80
00
00
80
80
00
00
80
80
00
00
00
80
80
00
00
80
80
ENDCHAR
STARTCHAR 2507
ENCODING 9479
SWIDTH 1000 0
DWIDTH 24 0
BBX 2 23 11 -2
BITMAP
C0
C0
C0
00
C0
C0
C0
00
C0
C0
C0
00
C0
C0
C0
00
C0
C0
C0
00
C0
C0
C0
ENDCHAR
STARTCHAR 2508
ENCODING 9480
SWIDTH 1000 0
DWIDTH 24 0
BBX 22 1 0 8
BITMAP
CCCCCC
ENDCHAR
STARTCHAR 2509
ENCODING 9481
SWIDTH 1000 0
DWIDTH 24 0
BBX 22 3 0 7
BITMAP
CCCCCC
CCCCCC
CCCCCC
ENDCHAR
STARTCHAR 250A
ENCODING 9482
SWIDTH 1000 0
DWIDTH 24 0
BBX 1 22 11 -1
BITMAP
80
80
00
00
80
80
00
00
80
80
00
00
00
80
00
00
00
80
00
00
00
80
ENDCHAR
STARTCHAR 250B
ENCODING 9483
SWIDTH 1000 0
DWIDTH 24 0
BBX 2 22 11 -1
BITMAP
C0
C0
00
00
C0
C0
00
00
C0
C0
00
00
C0
C0
00
00
C0
C0
00
00
C0
C0
ENDCHAR
STARTCHAR 250C
ENCODING 9484
SWIDTH 1000 0
DWIDTH 24 0
BBX 12 11 12 -3
BITMAP
FFF0
8000
8000
8000
8000
8000
8000
8000
8000
8000
8000
ENDCHAR
STARTCHAR 250D
ENCODING 9485
SWIDTH 1000 0
DWIDTH 24 0
BBX 12 12 12 -3
BITMAP
FFF0
FFF0
FFF0
8000
8000
8000
8000
8000
8000
8000
8000
8000
ENDCHAR
STARTCHAR 250E
ENCODING 9486
SWIDTH 1000 0
DWIDTH 24 0
BBX 13 12 11 -3
BITMAP
FFF8
C000
C000
C000
C000
C000
C000
C000
C000
C000
C000
C000
ENDCHAR
STARTCHAR 250F
ENCODING 9487
SWIDTH 1000 0
DWIDTH 24 0
BBX 13 13 11 -3
BITMAP
FFF8
FFF8
FFF8
C000
C000
C000
C000
C000
C000
C000
C000
C000
C000
ENDCHAR
STARTCHAR 2510
ENCODING 9488
SWIDTH 1000 0
DWIDTH 24 0
BBX 12 11 0 -3
BITMAP
FFF0
0010
0010
0010
0010
0010
0010
0010
0010
0010
0010
ENDCHAR
STARTCHAR 2511
ENCODING 9489
SWIDTH 1000 0
DWIDTH 24 0
BBX 12 12 0 -3
BITMAP
FFF0
FFF0
FFF0
0010
0010
0010
0010
0010
0010
0010
0010
0010
ENDCHAR
STARTCHAR 2512
ENCODING 9490
SWIDTH 1000 0
DWIDTH 24 0
BBX 13 12 0 -3
BITMAP
FFF8
0018
0018
0018
0018
0018
0018
0018
0018
0018
0018
0018
ENDCHAR
STARTCHAR 2513
ENCODING 9491
SWIDTH 1000 0
DWIDTH 24 0
BBX 13 13 0 -3
BITMAP
FFF8
FFF8
FFF8
0018
0018
0018
0018
0018
0018
0018
0018
0018
0018
ENDCHAR
STARTCHAR 2514
ENCODING 9492
SWIDTH 1000 0
DWIDTH 24 0
BBX 12 13 12 9
BITMAP
8000
8000
8000
8000
8000
8000
8000
8000
8000
8000
8000
8000
FFF0
ENDCHAR
STARTCHAR 2515
ENCODING 9493
SWIDTH 1000 0
DWIDTH 24 0
BBX 12 14 12 8
BITMAP
8000
8000
8000
8000
8000
8000
8000
8000
8000
8000
8000
FFF0
FFF0
FFF0
ENDCHAR
STARTCHAR 2516
ENCODING 9494
SWIDTH 1000 0
DWIDTH 24 0
BBX 13 14 11 8
BITMAP
C000
C000
C000
C000
C000
C000
C000
C000
C000
C000
C000
C000
C000
FFF8
ENDCHAR
STARTCHAR 2517
ENCODING 9495
SWIDTH 1000 0
DWIDTH 24 0
BBX 13 15 11 7
BITMAP
C000
C000
C000
C000
C000
C000
C000
C000
C000
C000
C000
C000
FFF8
FFF8
FFF8
ENDCHAR
STARTCHAR 2518
ENCODING 9496
SWIDTH 1000 0
DWIDTH 24 0
BBX 12 13 0 9
BITMAP
0010
0010
0010
0010
0010
0010
0010
0010
0010
0010
0010
0010
FFF0
ENDCHAR
STARTCHAR 2519
ENCODING 9497
SWIDTH 1000 0
DWIDTH 24 0
BBX 12 14 0 8
BITMAP
0010
0010
0010
0010
0010
0010
0010
0010
0010
0010
0010
FFF0
FFF0
FFF0
ENDCHAR
STARTCHAR 251A
ENCODING 9498
SWIDTH 1000 0
DWIDTH 24 0
BBX 13 14 0 8
BITMAP
0018
0018
0018
0018
0018
0018
0018
0018
0018
0018
0018
0018
0018
FFF8
ENDCHAR
STARTCHAR 251B
ENCODING 9499
SWIDTH 1000 0
DWIDTH 24 0
BBX 13 15 0 7
BITMAP
0018
0018
0018
0018
0018
0018
0018
0018
0018
0018
0018
0018
FFF8
FFF8
FFF8
ENDCHAR
STARTCHAR 251C
ENCODING 9500
SWIDTH 1000 0
DWIDTH 24 0
BBX 12 23 12 -2
BITMAP
8000
8000
8000
8000
8000
8000
8000
8000
8000
8000
8000
8000
FFF0
8000
8000
8000
8000
8000
8000
8000
8000
8000
8000
ENDCHAR
STARTCHAR 251D
ENCODING 9501
SWIDTH 1000 0
DWIDTH 24 0
BBX 12 23 12 -2
BITMAP
8000
8000
8000
8000
8000
8000
8000
8000
8000
8000
8000
FFF0
FFF0
FFF0
8000
8000
8000
8000
8000
8000
8000
8000
8000
ENDCHAR
STARTCHAR 251E
ENCODING 9502
SWIDTH 1000 0
DWIDTH 24 0
BBX 13 24 11 -3
BITMAP
C000
C000
C000
C000
C000
C000
C000
C000
C000
C000
C000
C000
C000
FFF8
8000
8000
8000
8000
8000
8000
8000
8000
8000
8000
ENDCHAR
STARTCHAR 251F
ENCODING 9503
SWIDTH 1000 0
DWIDTH 24 0
BBX 13 24 11 -2
BITMAP
8000
8000
8000
8000
8000
8000
8000
8000
8000
8000
8000
8000
FFF8
C000
C000
C000
C000
C000
C000
C000
C000
C000
C000
C000
ENDCHAR
STARTCHAR 2520
ENCODING 9504
SWIDTH 1000 0
DWIDTH 24 0
BBX 13 25 11 -3
BITMAP
C000
C000
C000
C000
C000
C000
C000
C000
C000
C000
C000
C000
C000
FFF8
C000
C000
C000
C000
C000
C000
C000
C000
C000
C000
C000
ENDCHAR
STARTCHAR 2521
ENCODING 9505
SWIDTH 1000 0
DWIDTH 24 0
BBX 13 24 11 -3
BITMAP
C000
C000
C000
C000
C000
C000
C000
C000
C000
C000
C000
C000
FFF8
FFF8
FFF8
8000
8000
8000
8000
8000
8000
8000
8000
8000
ENDCHAR
STARTCHAR 2522
ENCODING 9506
SWIDTH 1000 0
DWIDTH 24 0
BBX 13 24 11 -2
BITMAP
8000
8000
8000
8000
8000
8000
8000
8000
8000
8000
8000
FFF8
FFF8
FFF8
C000
C000
C000
C000
C000
C000
C000
C000
C000
C000
ENDCHAR
STARTCHAR 2523
ENCODING 9507
SWIDTH 1000 0
DWIDTH 24 0
BBX 13 25 11 -3
BITMAP
C000
C000
C000
C000
C000
C000
C000
C000
C000
C000
C000
C000
FFF8
FFF8
FFF8
C000
C000
C000
C000
C000
C000
C000
C000
C000
C000
ENDCHAR
STARTCHAR 2524
ENCODING 9508
SWIDTH 1000 0
DWIDTH 24 0
BBX 12 23 0 -2
BITMAP
0010
0010
0010
0010
0010
0010
0010
0010
0010
0010
0010
0010
FFF0
0010
0010
0010
0010
0010
0010
0010
0010
0010
0010
ENDCHAR
STARTCHAR 2525
ENCODING 9509
SWIDTH 1000 0
DWIDTH 24 0
BBX 12 23 0 -2
BITMAP
0010
0010
0010
0010
0010
0010
0010
0010
0010
0010
0010
FFF0
FFF0
FFF0
0010
0010
0010
0010
0010
0010
0010
0010
0010
ENDCHAR
STARTCHAR 2526
ENCODING 9510
SWIDTH 1000 0
DWIDTH 24 0
BBX 13 24 0 -3
BITMAP
0018
0018
0018
0018
0018
0018
0018
0018
0018
0018
0018
0018
0018
FFF8
0010
0010
0010
0010
0010
0010
0010
0010
0010
0010
ENDCHAR
STARTCHAR 2527
ENCODING 9511
SWIDTH 1000 0
DWIDTH 24 0
BBX 13 24 0 -2
BITMAP
0010
0010
0010
0010
0010
0010
0010
0010
0010
0010
0010
0010
FFF8
0018
0018
0018
0018
0018
0018
0018
0018
0018
0018
0018
ENDCHAR
STARTCHAR 2528
ENCODING 9512
SWIDTH 1000 0
DWIDTH 24 0
BBX 13 25 0 -3
BITMAP
0018
0018
0018
0018
0018
0018
0018
0018
0018
0018
0018
0018
0018
FFF8
0018
0018
0018
0018
0018
0018
0018
0018
0018
0018
0018
ENDCHAR
STARTCHAR 2529
ENCODING 9513
SWIDTH 1000 0
DWIDTH 24 0
BBX 13 24 0 -3
BITMAP
0018
0018
0018
0018
0018
0018
0018
0018
0018
0018
0018
0018
FFF8
FFF8
FFF8
0010
0010
0010
0010
0010
0010
0010
0010
0010
ENDCHAR
STARTCHAR 252A
ENCODING 9514
SWIDTH 1000 0
DWIDTH 24 0
BBX 13 24 0 -2
BITMAP
0010
0010
0010
0010
0010
0010
0010
0010
0010
0010
0010
FFF8
FFF8
FFF8
0018
0018
0018
0018
0018
0018
0018
0018
0018
0018
ENDCHAR
STARTCHAR 252B
ENCODING 9515
SWIDTH 1000 0
DWIDTH 24 0
BBX 13 25 0 -3
BITMAP
0018
0018
0018
0018
0018
0018
0018
0018
0018
0018
0018
0018
FFF8
FFF8
FFF8
0018
0018
0018
0018
0018
0018
0018
0018
0018
0018
ENDCHAR
STARTCHAR 252C
ENCODING 9516
SWIDTH 1000 0
DWIDTH 24 0
BBX 24 11 0 -3
BITMAP
FFFFFF
001000
001000
001000
001000
001000
001000
001000
001000
001000
001000
ENDCHAR
STARTCHAR 252D
ENCODING 9517
SWIDTH 1000 0
DWIDTH 24 0
BBX 24 12 0 -3
BITMAP
FFF000
FFFFFF
FFF000
001000
001000
001000
001000
001000
001000
001000
001000
001000
ENDCHAR
STARTCHAR 252E
ENCODING 9518
SWIDTH 1000 0
DWIDTH 24 0
BBX 24 12 0 -3
BITMAP
000FFF
FFFFFF
000FFF
001000
001000
001000
001000
001000
001000
001000
001000
001000
ENDCHAR
STARTCHAR 252F
ENCODING 9519
SWIDTH 1000 0
DWIDTH 24 0
BBX 24 12 0 -3
BITMAP
FFFFFF
FFFFFF
FFFFFF
001000
001000
001000
001000
001000
001000
001000
001000
001000
ENDCHAR
STARTCHAR 2530
ENCODING 9520
SWIDTH 1000 0
DWIDTH 24 0
BBX 24 12 0 -3
BITMAP
FFFFFF
001800
001800
001800
001800
001800
001800
001800
001800
001800
001800
001800
ENDCHAR
STARTCHAR 2531
ENCODING 9521
SWIDTH 1000 0
DWIDTH 24 0
BBX 24 13 0 -3
BITMAP
FFF800
FFFFFF
FFF800
001800
001800
001800
001800
001800
001800
001800
001800
001800
001800
ENDCHAR
STARTCHAR 2532
ENCODING 9522
SWIDTH 1000 0
DWIDTH 24 0
BBX 24 13 0 -3
BITMAP
001FFF
FFFFFF
001FFF
001800
001800
001800
001800
001800
001800
001800
001800
001800
001800
ENDCHAR
STARTCHAR 2533
ENCODING 9523
SWIDTH 1000 0
DWIDTH 24 0
BBX 24 13 0 -3
BITMAP
FFFFFF
FFFFFF
FFFFFF
001800
001800
001800
001800
001800
001800
001800
001800
001800
001800
ENDCHAR
STARTCHAR 2534
ENCODING 9524
SWIDTH 1000 0
DWIDTH 24 0
BBX 24 13 0 9
BITMAP
001000
001000
001000
001000
001000
001000
001000
001000
001000
001000
001000
001000
FFFFFF
ENDCHAR
STARTCHAR 2535
ENCODING 9525
SWIDTH 1000 0
DWIDTH 24 0
BBX 24 14 0 8
BITMAP
001000
001000
001000
001000
001000
001000
001000
001000
001000
001000
001000
FFF000
FFFFFF
FFF000
ENDCHAR
STARTCHAR 2536
ENCODING 9526
SWIDTH 1000 0
DWIDTH 24 0
BBX 24 14 0 8
BITMAP
001000
001000
001000
001000
001000
001000
001000
001000
001000
001000
001000
000FFF
FFFFFF
000FFF
ENDCHAR
STARTCHAR 2537
ENCODING 9527
SWIDTH 1000 0
DWIDTH 24 0
BBX 24 14 0 8
BITMAP
001000
001000
001000
001000
001000
001000
001000
001000
001000
001000
001000
FFFFFF
FFFFFF
FFFFFF
ENDCHAR
STARTCHAR 2538
ENCODING 9528
SWIDTH 1000 0
DWIDTH 24 0
BBX 24 14 0 8
BITMAP
001800
001800
001800
001800
001800
001800
001800
001800
001800
001800
001800
001800
001800
FFFFFF
ENDCHAR
STARTCHAR 2539
ENCODING 9529
SWIDTH 1000 0
DWIDTH 24 0
BBX 24 15 0 7
BITMAP
001800
001800
001800
001800
001800
001800
001800
001800
001800
001800
001800
001800
FFF800
FFFFFF
FFF800
ENDCHAR
STARTCHAR 253A
ENCODING 9530
SWIDTH 1000 0
DWIDTH 24 0
BBX 24 15 0 7
BITMAP
001800
001800
001800
001800
001800
001800
001800
001800
001800
001800
001800
001800
001FFF
FFFFFF
001FFF
ENDCHAR
STARTCHAR 253B
ENCODING 9531
SWIDTH 1000 0
DWIDTH 24 0
BBX 24 15 0 7
BITMAP
001800
001800
001800
001800
001800
001800
001800
001800
001800
001800
001800
001800
FFFFFF
FFFFFF
FFFFFF
ENDCHAR
STARTCHAR 253C
ENCODING 9532
SWIDTH 1000 0
DWIDTH 24 0
BBX 24 23 0 -2
BITMAP
001000
001000
001000
001000
001000
001000
001000
001000
001000
001000
001000
001000
FFFFFF
001000
001000
001000
001000
001000
001000
001000
001000
001000
001000
ENDCHAR
STARTCHAR 253D
ENCODING 9533
SWIDTH 1000 0
DWIDTH 24 0
BBX 24 23 0 -2
BITMAP
001000
001000
001000
001000
001000
001000
001000
001000
001000
001000
001000
FFF000
FFFFFF
FFF000
001000
001000
001000
001000
001000
001000
001000
001000
001000
ENDCHAR
STARTCHAR 253E
ENCODING 9534
SWIDTH 1000 0
DWIDTH 24 0
BBX 24 23 0 -2
BITMAP
001000
001000
001000
001000
001000
001000
001000
001000
001000
001000
001000
000FFF
FFFFFF
000FFF
001000
001000
001000
001000
001000
001000
001000
001000
001000
ENDCHAR
STARTCHAR 253F
ENCODING 9535
SWIDTH 1000 0
DWIDTH 24 0
BBX 24 23 0 -2
BITMAP
001000
001000
001000
001000
001000
001000
001000
001000
001000
001000
001000
FFFFFF
FFFFFF
FFFFFF
001000
001000
001000
001000
001000
001000
001000
001000
001000
ENDCHAR
STARTCHAR 2540
ENCODING 9536
SWIDTH 1000 0
DWIDTH 24 0
BBX 24 24 0 -3
BITMAP
001800
001800
001800
001800
001800
001800
001800
001800
001800
001800
001800
001800
001800
FFFFFF
001000
001000
001000
001000
001000
001000
001000
001000
001000
001000
ENDCHAR
STARTCHAR 2541
ENCODING 9537
SWIDTH 1000 0
DWIDTH 24 0
BBX 24 24 0 -2
BITMAP
001000
001000
001000
001000
001000
001000
001000
001000
001000
001000
001000
001000
FFFFFF
001800
001800
001800
001800
001800
001800
001800
001800
001800
001800
001800
ENDCHAR
STARTCHAR 2542
ENCODING 9538
SWIDTH 1000 0
DWIDTH 24 0
BBX 24 25 0 -3
BITMAP
001800
001800
001800
001800
001800
001800
001800
001800
001800
001800
001800
001800
001800
FFFFFF
001800
001800
001800
001800
001800
001800
001800
001800
001800
001800
001800
ENDCHAR
STARTCHAR 2543
ENCODING 9539
SWIDTH 1000 0
DWIDTH 24 0
BBX 24 24 0 -3
BITMAP
001800
001800
001800
001800
001800
001800
001800
001800
001800
001800
001800
001800
FFF800
FFFFFF
FFF800
001000
001000
001000
001000
001000
001000
001000
001000
001000
ENDCHAR
STARTCHAR 2544
ENCODING 9540
SWIDTH 1000 0
DWIDTH 24 0
BBX 24 24 0 -3
BITMAP
001800
001800
001800
001800
001800
001800
001800
001800
001800
001800
001800
001800
001FFF
FFFFFF
001FFF
001000
001000
001000
001000
001000
001000
001000
001000
001000
ENDCHAR
STARTCHAR 2545
ENCODING 9541
SWIDTH 1000 0
DWIDTH 24 0
BBX 24 24 0 -2
BITMAP
001000
001000
001000
001000
001000
001000
001000
001000
001000
001000
001000
FFF800
FFFFFF
FFF800
001800
001800
001800
001800
001800
001800
001800
001800
001800
001800
ENDCHAR
STARTCHAR 2546
ENCODING 9542
SWIDTH 1000 0
DWIDTH 24 0
BBX 24 24 0 -2
BITMAP
001000
001000
001000
001000
001000
001000
001000
001000
001000
001000
001000
001FFF
FFFFFF
001FFF
001800
001800
001800
001800
001800
001800
001800
001800
001800
001800
ENDCHAR
STARTCHAR 2547
ENCODING 9543
SWIDTH 1000 0
DWIDTH 24 0
BBX 24 24 0 -3
BITMAP
001800
001800
001800
001800
001800
001800
001800
001800
001800
001800
001800
001800
FFFFFF
FFFFFF
FFFFFF
001000
001000
001000
001000
001000
001000
001000
001000
001000
ENDCHAR
STARTCHAR 2548
ENCODING 9544
SWIDTH 1000 0
DWIDTH 24 0
BBX 24 24 0 -2
BITMAP
001000
001000
001000
001000
001000
001000
001000
001000
001000
001000
001000
FFFFFF
FFFFFF
FFFFFF
001800
001800
001800
001800
001800
001800
001800
001800
001800
001800
ENDCHAR
STARTCHAR 2549
ENCODING 9545
SWIDTH 1000 0
DWIDTH 24 0
BBX 24 25 0 -3
BITMAP
001800
001800
001800
001800
001800
001800
001800
001800
001800
001800
001800
001800
FFF800
FFFFFF
FFF800
001800
001800
001800
001800
001800
001800
001800
001800
001800
001800
ENDCHAR
STARTCHAR 254A
ENCODING 9546
SWIDTH 1000 0
DWIDTH 24 0
BBX 24 25 0 -3
BITMAP
001800
001800
001800
001800
001800
001800
001800
001800
001800
001800
001800
001800
001FFF
FFFFFF
001FFF
001800
001800
001800
001800
001800
001800
001800
001800
001800
001800
ENDCHAR
STARTCHAR 254B
ENCODING 9547
SWIDTH 1000 0
DWIDTH 24 0
BBX 24 25 0 -3
BITMAP
001800
001800
001800
001800
001800
001800
001800
001800
001800
001800
001800
001800
FFFFFF
FFFFFF
FFFFFF
001800
001800
001800
001800
001800
001800
001800
001800
001800
001800
ENDCHAR
STARTCHAR 2550
ENCODING 9552
SWIDTH 1000 0
DWIDTH 24 0
BBX 24 12 0 3
BITMAP
FFFFFF
FFFFFF
FFFFFF
000000
000000
000000
000000
000000
000000
FFFFFF
FFFFFF
FFFFFF
ENDCHAR
STARTCHAR 255E
ENCODING 9566
SWIDTH 1000 0
DWIDTH 24 0
BBX 13 25 11 -3
BITMAP
C000
C000
C000
C000
C000
C000
C000
FFF8
FFF8
FFF8
C000
C000
C000
C000
C000
C000
FFF8
FFF8
FFF8
C000
C000
C000
C000
C000
C000
ENDCHAR
STARTCHAR 2561
ENCODING 9569
SWIDTH 1000 0
DWIDTH 24 0
BBX 13 25 0 -3
BITMAP
0038
0038
0038
0038
0038
0038
0038
FFF8
FFF8
FFF8
0038
0038
0038
0038
0038
0038
FFF8
FFF8
FFF8
0038
0038
0038
0038
0038
0038
ENDCHAR
STARTCHAR 256A
ENCODING 9578
SWIDTH 1000 0
DWIDTH 24 0
BBX 24 25 0 -3
BITMAP
003800
003800
003800
003800
003800
003800
003800
FFFFFF
FFFFFF
FFFFFF
003800
003800
003800
003800
003800
003800
FFFFFF
FFFFFF
FFFFFF
003800
003800
003800
003800
003800
003800
ENDCHAR
STARTCHAR 256D
ENCODING 9581
SWIDTH 1000 0
DWIDTH 24 0
BBX 13 13 11 -3
BITMAP
0038
01F8
07F8
0FC0
1F00
3C00
3800
7000
7000
E000
E000
E000
E000
ENDCHAR
STARTCHAR 256E
ENCODING 9582
SWIDTH 1000 0
DWIDTH 24 0
BBX 13 13 0 -3
BITMAP
F000
FC00
FF00
1F80
07C0
01E0
00F0
0070
0078
0038
0038
0038
0038
ENDCHAR
STARTCHAR 256F
ENCODING 9583
SWIDTH 1000 0
DWIDTH 24 0
BBX 13 15 0 7
BITMAP
0038
0038
0038
0038
0038
0038
0070
00F0
00E0
01E0
07C0
1F80
FF00
FC00
E000
ENDCHAR
STARTCHAR 2570
ENCODING 9584
SWIDTH 1000 0
DWIDTH 24 0
BBX 13 15 11 7
BITMAP
C000
E000
E000
E000
E000
F000
7000
7800
3800
3E00
1F00
0FC0
07F8
01F8
0038
ENDCHAR
STARTCHAR 2571
ENCODING 9585
SWIDTH 1000 0
DWIDTH 24 0
BBX 21 21 1 -2
BITMAP
000008
000010
000020
000040
000080
000100
000200
000400
000800
001000
002000
004000
008000
010000
020000
040000
080000
100000
200000
400000
800000
ENDCHAR
STARTCHAR 2572
ENCODING 9586
SWIDTH 1000 0
DWIDTH 24 0
BBX 21 21 1 -2
BITMAP
C00000
600000
300000
180000
0C0000
060000
030000
018000
00C000
006000
003000
001800
000C00
000600
000300
000180
0000C0
000060
000030
000018
000008
ENDCHAR
STARTCHAR 2573
ENCODING 9587
SWIDTH 1000 0
DWIDTH 24 0
BBX 16 15 4 1
BITMAP
C003
6006
300C
1818
0C30
0660
03C0
0180
03C0
0660
0C30
1818
300C
6006
4002
ENDCHAR
STARTCHAR 2581
ENCODING 9601
SWIDTH 1000 0
DWIDTH 24 0
BBX 24 3 0 -3
BITMAP
FFFFFF
FFFFFF
FFFFFF
ENDCHAR
STARTCHAR 2582
ENCODING 9602
SWIDTH 1000 0
DWIDTH 24 0
BBX 24 6 0 -3
BITMAP
FFFFFF
FFFFFF
FFFFFF
FFFFFF
FFFFFF
FFFFFF
ENDCHAR
STARTCHAR 2583
ENCODING 9603
SWIDTH 1000 0
DWIDTH 24 0
BBX 24 9 0 -3
BITMAP
FFFFFF
FFFFFF
FFFFFF
FFFFFF
FFFFFF
FFFFFF
FFFFFF
FFFFFF
FFFFFF
ENDCHAR
STARTCHAR 2584
ENCODING 9604
SWIDTH 1000 0
DWIDTH 24 0
BBX 24 12 0 -3
BITMAP
FFFFFF
FFFFFF
FFFFFF
FFFFFF
FFFFFF
FFFFFF
FFFFFF
FFFFFF
FFFFFF
FFFFFF
FFFFFF
FFFFFF
ENDCHAR
STARTCHAR 2585
ENCODING 9605
SWIDTH 1000 0
DWIDTH 24 0
BBX 24 15 0 -3
BITMAP
FFFFFF
FFFFFF
FFFFFF
FFFFFF
FFFFFF
FFFFFF
FFFFFF
FFFFFF
FFFFFF
FFFFFF
FFFFFF
FFFFFF
FFFFFF
FFFFFF
FFFFFF
ENDCHAR
STARTCHAR 2586
ENCODING 9606
SWIDTH 1000 0
DWIDTH 24 0
BBX 24 18 0 -3
BITMAP
FFFFFF
FFFFFF
FFFFFF
FFFFFF
FFFFFF
FFFFFF
FFFFFF
FFFFFF
FFFFFF
FFFFFF
FFFFFF
FFFFFF
FFFFFF
FFFFFF
FFFFFF
FFFFFF
FFFFFF
FFFFFF
ENDCHAR
STARTCHAR 2587
ENCODING 9607
SWIDTH 1000 0
DWIDTH 24 0
BBX 24 21 0 -3
BITMAP
FFFFFF
FFFFFF
FFFFFF
FFFFFF
FFFFFF
FFFFFF
FFFFFF
FFFFFF
FFFFFF
FFFFFF
FFFFFF
FFFFFF
FFFFFF
FFFFFF
FFFFFF
FFFFFF
FFFFFF
FFFFFF
FFFFFF
FFFFFF
FFFFFF
ENDCHAR
STARTCHAR 2588
ENCODING 9608
SWIDTH 1000 0
DWIDTH 24 0
BBX 24 24 0 -3
BITMAP
FFFFFF
FFFFFF
FFFFFF
FFFFFF
FFFFFF
FFFFFF
FFFFFF
FFFFFF
FFFFFF
FFFFFF
FFFFFF
FFFFFF
FFFFFF
FFFFFF
FFFFFF
FFFFFF
FFFFFF
FFFFFF
FFFFFF
FFFFFF
FFFFFF
FFFFFF
FFFFFF
FFFFFF
ENDCHAR
STARTCHAR 2589
ENCODING 9609
SWIDTH 1000 0
DWIDTH 24 0
BBX 21 24 0 -3
BITMAP
FFFFF8
FFFFF8
FFFFF8
FFFFF8
FFFFF8
FFFFF8
FFFFF8
FFFFF8
FFFFF8
FFFFF8
FFFFF8
FFFFF8
FFFFF8
FFFFF8
FFFFF8
FFFFF8
FFFFF8
FFFFF8
FFFFF8
FFFFF8
FFFFF8
FFFFF8
FFFFF8
FFFFF8
ENDCHAR
STARTCHAR 258A
ENCODING 9610
SWIDTH 1000 0
DWIDTH 24 0
BBX 18 24 0 -3
BITMAP
FFFFC0
FFFFC0
FFFFC0
FFFFC0
FFFFC0
FFFFC0
FFFFC0
FFFFC0
FFFFC0
FFFFC0
FFFFC0
FFFFC0
FFFFC0
FFFFC0
FFFFC0
FFFFC0
FFFFC0
FFFFC0
FFFFC0
FFFFC0
FFFFC0
FFFFC0
FFFFC0
FFFFC0
ENDCHAR
STARTCHAR 258B
ENCODING 9611
SWIDTH 1000 0
DWIDTH 24 0
BBX 15 24 0 -3
BITMAP
FFFE
FFFE
FFFE
FFFE
FFFE
FFFE
FFFE
FFFE
FFFE
FFFE
FFFE
FFFE
FFFE
FFFE
FFFE
FFFE
FFFE
FFFE
FFFE
FFFE
FFFE
FFFE
FFFE
FFFE
ENDCHAR
STARTCHAR 258C
ENCODING 9612
SWIDTH 1000 0
DWIDTH 24 0
BBX 12 24 0 -3
BITMAP
FFF0
FFF0
FFF0
FFF0
FFF0
FFF0
FFF0
FFF0
FFF0
FFF0
FFF0
FFF0
FFF0
FFF0
FFF0
FFF0
FFF0
FFF0
FFF0
FFF0
FFF0
FFF0
FFF0
FFF0
ENDCHAR
STARTCHAR 258D
ENCODING 9613
SWIDTH 1000 0
DWIDTH 24 0
BBX 9 24 0 -3
BITMAP
FF80
FF80
FF80
FF80
FF80
FF80
FF80
FF80
FF80
FF80
FF80
FF80
FF80
FF80
FF80
FF80
FF80
FF80
FF80
FF80
FF80
FF80
FF80
FF80
ENDCHAR
STARTCHAR 258E
ENCODING 9614
SWIDTH 1000 0
DWIDTH 24 0
BBX 6 24 0 -3
BITMAP
FC
FC
FC
FC
FC
FC
FC
FC
FC
FC
FC
FC
FC
FC
FC
FC
FC
FC
FC
FC
FC
FC
FC
FC
ENDCHAR
STARTCHAR 258F
ENCODING 9615
SWIDTH 1000 0
DWIDTH 24 0
BBX 3 24 0 -3
BITMAP
E0
E0
E0
E0
E0
E0
E0
E0
E0
E0
E0
E0
E0
E0
E0
E0
E0
E0
E0
E0
E0
E0
E0
E0
ENDCHAR
STARTCHAR 2594
ENCODING 9620
SWIDTH 1000 0
DWIDTH 24 0
BBX 24 3 0 18
BITMAP
FFFFFF
FFFFFF
FFFFFF
ENDCHAR
STARTCHAR 2595
ENCODING 9621
SWIDTH 1000 0
DWIDTH 24 0
BBX 3 24 21 -3
BITMAP
E0
E0
E0
E0
E0
E0
E0
E0
E0
E0
E0
E0
E0
E0
E0
E0
E0
E0
E0
E0
E0
E0
E0
E0
ENDCHAR
STARTCHAR 25A0
ENCODING 9632
SWIDTH 1000 0
DWIDTH 24 0
BBX 20 21 2 -2
BITMAP
FFFFF0
FFFFF0
FFFFF0
FFFFF0
FFFFF0
FFFFF0
FFFFF0
FFFFF0
FFFFF0
FFFFF0
FFFFF0
FFFFF0
FFFFF0
FFFFF0
FFFFF0
FFFFF0
FFFFF0
FFFFF0
FFFFF0
FFFFF0
FFFFF0
ENDCHAR
STARTCHAR 25A1
ENCODING 9633
SWIDTH 1000 0
DWIDTH 24 0
BBX 20 22 2 -2
BITMAP
FFFFF0
800010
800010
800010
800010
800010
800010
800010
800010
800010
800010
800010
800010
800010
800010
800010
800010
800010
800010
800010
800010
FFFFF0
ENDCHAR
STARTCHAR 25A2
ENCODING 9634
SWIDTH 1000 0
DWIDTH 24 0
BBX 20 22 2 -2
BITMAP
7FFFF0
800010
800010
800010
800010
800010
800010
800010
800010
800010
800010
800010
800010
800010
800010
800010
800010
800010
800010
800010
800010
FFFFF0
ENDCHAR
STARTCHAR 25AA
ENCODING 9642
SWIDTH 1000 0
DWIDTH 24 0
BBX 6 6 9 6
BITMAP
FC
FC
FC
FC
FC
FC
ENDCHAR
STARTCHAR 25AB
ENCODING 9643
SWIDTH 1000 0
DWIDTH 24 0
BBX 6 6 9 6
BITMAP
FC
84
84
84
84
FC
ENDCHAR
STARTCHAR 25B2
ENCODING 9650
SWIDTH 1000 0
DWIDTH 24 0
BBX 22 15 1 2
BITMAP
002000
003000
007800
00FC00
00FC00
01FE00
03FF00
07FF80
07FF80
0FFFC0
1FFFE0
3FFFF0
3FFFF0
7FFFF8
FFFFFC
ENDCHAR
STARTCHAR 25B3
ENCODING 9651
SWIDTH 1000 0
DWIDTH 24 0
BBX 22 15 1 3
BITMAP
003000
007800
004800
008400
010200
010200
020100
040080
040080
080040
100020
300030
200010
400008
FFFFFC
ENDCHAR
STARTCHAR 25B6
ENCODING 9654
SWIDTH 1000 0
DWIDTH 24 0
BBX 14 21 6 -1
BITMAP
C000
E000
F000
FC00
FE00
FF00
FFC0
FFE0
FFF0
FFFC
FFFC
FFF0
FFE0
FFC0
FF00
FE00
FC00
F000
E000
C000
8000
ENDCHAR
STARTCHAR 25B7
ENCODING 9655
SWIDTH 1000 0
DWIDTH 24 0
BBX 14 21 6 -1
BITMAP
C000
E000
9000
8C00
8600
8100
80C0
8060
8010
800C
800C
8010
8020
80C0
8100
8200
8C00
9000
A000
C000
8000
ENDCHAR
STARTCHAR 25BC
ENCODING 9660
SWIDTH 1000 0
DWIDTH 24 0
BBX 22 14 1 0
BITMAP
FFFFFC
7FFFF8
3FFFF0
1FFFE0
1FFFE0
0FFFC0
07FF80
03FF00
03FF00
01FE00
00FC00
007800
007800
003000
ENDCHAR
STARTCHAR 25BD
ENCODING 9661
SWIDTH 1000 0
DWIDTH 24 0
BBX 22 15 1 0
BITMAP
FFFFFC
400008
200010
300030
100020
080040
040080
040080
020100
010200
010200
008400
004800
007800
003000
ENDCHAR
STARTCHAR 25C0
ENCODING 9664
SWIDTH 1000 0
DWIDTH 24 0
BBX 14 21 4 -1
BITMAP
000C
001C
003C
00FC
01FC
03FC
0FFC
1FFC
3FFC
FFFC
FFFC
3FFC
1FFC
0FFC
03FC
01FC
00FC
003C
001C
000C
0004
ENDCHAR
STARTCHAR 25C1
ENCODING 9665
SWIDTH 1000 0
DWIDTH 24 0
BBX 14 21 4 -1
BITMAP
000C
001C
0024
00C4
0184
0204
0C04
1804
2004
C004
C004
2004
1004
0C04
0204
0104
00C4
0024
0014
000C
0004
ENDCHAR
STARTCHAR 25C6
ENCODING 9670
SWIDTH 1000 0
DWIDTH 24 0
BBX 24 23 0 -2
BITMAP
001800
003C00
007E00
00FF00
01FF80
03FFC0
07FFE0
0FFFF0
1FFFF8
3FFFFC
7FFFFE
FFFFFF
7FFFFE
3FFFFC
1FFFF8
0FFFF0
07FFE0
03FFC0
01FF80
00FF00
007E00
003C00
001000
ENDCHAR
STARTCHAR 25C7
ENCODING 9671
SWIDTH 1000 0
DWIDTH 24 0
BBX 24 23 0 -2
BITMAP
001800
002400
004200
008100
010080
020040
040020
080010
100008
200004
400002
C00003
600006
30000C
180018
0C0030
060060
0300C0
018180
00C300
006600
003C00
001000
ENDCHAR
STARTCHAR 25C9
ENCODING 9673
SWIDTH 1000 0
DWIDTH 24 0
BBX 22 22 1 -2
BITMAP
00FC00
030380
0C00C0
180060
30FE30
23FF10
47FF88
47FF88
4FFFC8
CFFFCC
8FFFC4
8FFFC4
CFFFC4
4FFFC8
47FF88
47FF88
23FF10
31FE30
180060
0C00C0
070300
00FC00
ENDCHAR
STARTCHAR 25CB
ENCODING 9675
SWIDTH 1000 0
DWIDTH 24 0
BBX 22 22 1 -2
BITMAP
00FC00
030300
0C00C0
100020
200030
200010
400008
400008
400008
800004
800004
800004
800004
400008
400008
400008
200010
300010
180020
0C00C0
030300
00FC00
ENDCHAR
STARTCHAR 25CC
ENCODING 9676
SWIDTH 1000 0
DWIDTH 24 0
BBX 24 24 0 -3
BITMAP
004200
030080
040020
080000
100008
000000
000000
400002
000000
000002
000000
000000
800001
000000
800000
000000
000000
400004
000000
100008
000000
040020
020040
004280
ENDCHAR
STARTCHAR 25CE
ENCODING 9678
SWIDTH 1000 0
DWIDTH 24 0
BBX 22 22 1 -2
BITMAP
00FC00
030380
0C00C0
107820
218610
220110
440088
480048
480048
880044
880044
880044
880044
480048
480048
440088
220110
218610
107820
0C00C0
030300
00FC00
ENDCHAR
STARTCHAR 25CF
ENCODING 9679
SWIDTH 1000 0
DWIDTH 24 0
BBX 22 21 1 -2
BITMAP
01FE00
07FF80
0FFFC0
1FFFE0
3FFFF0
3FFFF8
7FFFF8
7FFFF8
7FFFFC
FFFFFC
FFFFFC
FFFFFC
7FFFF8
7FFFF8
7FFFF8
3FFFF0
3FFFF0
1FFFE0
0FFFC0
03FF00
00FC00
ENDCHAR
STARTCHAR 25E2
ENCODING 9698
SWIDTH 1000 0
DWIDTH 24 0
BBX 24 24 0 -3
BITMAP
000001
000001
000003
000007
00000F
00001F
00003F
00007F
0000FF
0001FF
0003FF
0007FF
000FFF
001FFF
003FFF
007FFF
00FFFF
01FFFF
03FFFF
07FFFF
0FFFFF
1FFFFF
3FFFFF
FFFFFF
ENDCHAR
STARTCHAR 25E3
ENCODING 9699
SWIDTH 1000 0
DWIDTH 24 0
BBX 24 24 0 -3
BITMAP
800000
C00000
E00000
F00000
F80000
FC0000
FE0000
FF0000
FF8000
FFC000
FFE000
FFF000
FFF800
FFFC00
FFFE00
FFFF00
FFFF80
FFFFC0
FFFFE0
FFFFF0
FFFFF8
FFFFFC
FFFFFE
FFFFFF
ENDCHAR
STARTCHAR 25E4
ENCODING 9700
SWIDTH 1000 0
DWIDTH 24 0
BBX 24 24 0 -3
BITMAP
FFFFFF
FFFFFE
FFFFFC
FFFFF8
FFFFF0
FFFFE0
FFFFC0
FFFF80
FFFF00
FFFE00
FFFC00
FFF800
FFF000
FFE000
FFC000
FF8000
FF0000
FE0000
FC0000
F80000
F00000
E00000
C00000
800000
ENDCHAR
STARTCHAR 25E5
ENCODING 9701
SWIDTH 1000 0
DWIDTH 24 0
BBX 24 24 0 -3
BITMAP
FFFFFF
7FFFFF
3FFFFF
1FFFFF
0FFFFF
07FFFF
03FFFF
01FFFF
00FFFF
007FFF
003FFF
001FFF
000FFF
0007FF
0003FF
0001FF
0000FF
00007F
00003F
00001F
00000F
000007
000003
000001
ENDCHAR
STARTCHAR 25E6
ENCODING 9702
SWIDTH 1000 0
DWIDTH 24 0
BBX 6 8 9 5
BITMAP
30
CC
84
84
84
84
CC
30
ENDCHAR
STARTCHAR 25EF
ENCODING 9711
SWIDTH 1000 0
DWIDTH 24 0
BBX 22 24 1 -3
BITMAP
00FC00
030300
0C00C0
100020
200010
200018
400008
800004
800004
800004
800004
800004
800004
800004
800004
800004
800004
400008
600008
200010
100020
0C00C0
030300
00FC00
ENDCHAR
STARTCHAR 2600
ENCODING 9728
SWIDTH 1000 0
DWIDTH 24 0
BBX 22 24 1 -3
BITMAP
002000
002000
002000
102020
180060
0C00C0
04FC80
01FE00
03FF00
03FF00
07FF80
07FF80
F7FFBC
07FF80
03FF80
03FF00
01FE00
04FC80
040080
080040
102020
002000
002000
002000
ENDCHAR
STARTCHAR 2601
ENCODING 9729
SWIDTH 1000 0
DWIDTH 24 0
BBX 20 16 2 1
BITMAP
01E000
03F800
07F800
0FFC00
0FFCE0
0FFDF0
0FFFF0
3FFFF0
FFFFF0
FFFFE0
FFFFE0
FFFFF0
FFBFF0
FF3FF0
381FF0
000FE0
ENDCHAR
STARTCHAR 2602
ENCODING 9730
SWIDTH 1000 0
DWIDTH 24 0
BBX 22 22 1 -2
BITMAP
002000
002000
03FF00
0FFFC0
1FFFE0
3FFFF0
7FFFF8
7FFFFC
8E79C4
843084
843084
002000
002000
002000
002000
002000
002000
002000
002000
012000
012000
00E000
ENDCHAR
STARTCHAR 2603
ENCODING 9731
SWIDTH 1000 0
DWIDTH 24 0
BBX 22 23 1 -2
BITMAP
806004
80670C
0C0880
0C1840
001020
606040
63A058
041898
080740
08CC40
08CC40
C80040
040880
04718C
080040
900020
203010
203010
200010
203010
203010
100020
0FFFC0
ENDCHAR
STARTCHAR 2605
ENCODING 9733
SWIDTH 1000 0
DWIDTH 24 0
BBX 22 21 1 -1
BITMAP
002000
003000
003000
007800
007800
007800
00FC00
00FC00
FFFFFC
3FFFF0
1FFFE0
07FF80
03FF00
03FF00
03FF00
03FF00
07CF80
078780
070380
0C00C0
080040
ENDCHAR
STARTCHAR 2606
ENCODING 9734
SWIDTH 1000 0
DWIDTH 24 0
BBX 22 22 1 -2
BITMAP
002000
003000
003000
003000
004800
004800
004800
008400
FF87FC
600018
100020
0C00C0
060180
020100
020100
020100
043100
044880
058680
070380
0C01C0
080040
ENDCHAR
STARTCHAR 260E
ENCODING 9742
SWIDTH 1000 0
DWIDTH 24 0
BBX 22 16 1 1
BITMAP
01FE00
0FFFE0
3FFFF0
7D86F8
7DFEFC
FDFEFC
FB877C
030300
060180
0E01C0
1E01E0
1E01E0
3F03F0
3F87F0
3FFFF0
3FFFF0
ENDCHAR
STARTCHAR 2612
ENCODING 9746
SWIDTH 1000 0
DWIDTH 24 0
BBX 20 22 2 -2
BITMAP
FFFFF0
800010
800010
800010
980190
8C0310
860610
870E10
839C10
81F810
80F010
80F010
81F810
839C10
870E10
860610
8C0310
980190
800010
800010
800010
FFFFF0
ENDCHAR
STARTCHAR 261C
ENCODING 9756
SWIDTH 1000 0
DWIDTH 24 0
BBX 22 10 1 4
BITMAP
1F7C38
6083C8
8180C8
7E7828
09C724
0BA0E4
047044
04B044
0321C4
01FE78
ENDCHAR
STARTCHAR 261D
ENCODING 9757
SWIDTH 1000 0
DWIDTH 24 0
BBX 10 22 7 -2
BITMAP
6000
A000
A000
A400
BC00
9300
9500
ADC0
6D40
9A40
95C0
A340
9040
9080
8880
4880
4880
6980
FFC0
8040
8040
7FC0
ENDCHAR
STARTCHAR 261E
ENCODING 9758
SWIDTH 1000 0
DWIDTH 24 0
BBX 22 10 1 4
BITMAP
70FBC0
9F0438
8C0604
9079F8
918E40
9E1740
903880
883480
961300
79FE00
ENDCHAR
STARTCHAR 261F
ENCODING 9759
SWIDTH 1000 0
DWIDTH 24 0
BBX 10 22 7 -2
BITMAP
7FC0
8040
8040
FFC0
6980
4900
4880
8880
9080
9040
A340
95C0
9A40
6D40
ADC0
9500
9300
B400
AC00
A000
6000
6000
ENDCHAR
STARTCHAR 2640
ENCODING 9792
SWIDTH 1000 0
DWIDTH 24 0
BBX 16 22 4 -2
BITMAP
03C0
07F0
0C30
1818
1818
1818
1818
0C30
0E70
07E0
0180
0180
0180
FFFF
FFFF
0180
0180
0180
0180
0180
0180
0180
ENDCHAR
STARTCHAR 2642
ENCODING 9794
SWIDTH 1000 0
DWIDTH 24 0
BBX 17 18 3 0
BITMAP
000080
01FF80
01FF80
000780
000E80
001D80
003980
007180
1EE180
3FC180
618180
C0C000
C0C000
C0C000
C0C000
618000
3F8000
1E0000
ENDCHAR
STARTCHAR 2660
ENCODING 9824
SWIDTH 1000 0
DWIDTH 24 0
BBX 18 21 3 -1
BITMAP
004000
00C000
01E000
03F000
07F800
0FFC00
0FFE00
1FFE00
3FFF00
3FFF00
7FFF80
7FFF80
FFFFC0
FFFFC0
FFFFC0
FFFFC0
7EDF80
3CEF00
01E000
01E000
03F000
ENDCHAR
STARTCHAR 2661
ENCODING 9825
SWIDTH 1000 0
DWIDTH 24 0
BBX 20 22 2 -2
BITMAP
0F0F00
3090C0
406020
404020
800010
800010
800010
800010
400020
400020
400020
200040
200040
100080
180080
080100
040200
060600
030400
010800
009000
006000
ENDCHAR
STARTCHAR 2662
ENCODING 9826
SWIDTH 1000 0
DWIDTH 24 0
BBX 20 22 2 -3
BITMAP
004000
006000
009000
010800
020400
040200
0C0300
080100
100080
200040
400020
800010
400020
200040
100080
080100
040200
060600
020400
010800
009000
006000
ENDCHAR
STARTCHAR 2663
ENCODING 9827
SWIDTH 1000 0
DWIDTH 24 0
BBX 22 22 1 -2
BITMAP
007800
00FE00
01FE00
03FF00
03FF00
03FF00
01FE00
01FE00
0EFDE0
3FFFF0
7FFFF8
7FFFF8
FFFFFC
FFFFFC
7FFFF8
7FB7F8
3F33F0
0C38C0
007800
007800
00FC00
00FC00
ENDCHAR
STARTCHAR 2664
ENCODING 9828
SWIDTH 1000 0
DWIDTH 24 0
BBX 18 22 3 -2
BITMAP
00C000
012000
033000
021000
040800
080400
100200
100200
200100
400180
400080
400080
800040
800040
800040
800040
C120C0
633180
1E1E00
021000
040800
07F800
ENDCHAR
STARTCHAR 2665
ENCODING 9829
SWIDTH 1000 0
DWIDTH 24 0
BBX 19 21 3 -2
BITMAP
3E1F00
7F3F80
FFFFC0
FFFFC0
FFFFE0
FFFFC0
FFFFC0
FFFFC0
FFFFC0
7FFF80
7FFF80
3FFF00
3FFF00
1FFE00
1FFC00
0FFC00
07F800
03F000
01E000
00C000
008000
ENDCHAR
STARTCHAR 2666
ENCODING 9830
SWIDTH 1000 0
DWIDTH 24 0
BBX 20 22 2 -3
BITMAP
004000
006000
00F000
01F800
03FC00
07FE00
0FFF00
0FFF00
1FFF80
3FFFC0
7FFFE0
FFFFF0
7FFFE0
3FFFC0
1FFF80
0FFF00
07FE00
07FE00
03FC00
01F800
00F000
006000
ENDCHAR
STARTCHAR 2667
ENCODING 9831
SWIDTH 1000 0
DWIDTH 24 0
BBX 20 22 2 -2
BITMAP
00F000
010800
020400
040200
040200
040200
040200
040400
3E0780
410860
800010
800010
800010
800010
806010
809010
419820
3E97C0
010800
010800
010800
03FC00
ENDCHAR
STARTCHAR 2668
ENCODING 9832
SWIDTH 1000 0
DWIDTH 24 0
BBX 20 21 2 -1
BITMAP
002000
004000
064600
044400
04C400
0C4400
0C6600
066600
063300
023300
223340
423320
823210
822210
C42430
C04030
600060
7000E0
3E0780
0FFF00
03F800
ENDCHAR
STARTCHAR 2669
ENCODING 9833
SWIDTH 1000 0
DWIDTH 24 0
BBX 5 20 8 -1
BITMAP
08
08
08
08
08
08
08
08
08
08
08
08
08
08
08
08
38
78
F0
E0
ENDCHAR
STARTCHAR 266A
ENCODING 9834
SWIDTH 1000 0
DWIDTH 24 0
BBX 12 21 7 -1
BITMAP
0800
0800
0C00
0E00
0F80
0FC0
09E0
0860
0830
0830
0810
0820
0820
0840
0880
0900
0800
7800
F000
F000
C000
ENDCHAR
STARTCHAR 266C
ENCODING 9836
SWIDTH 1000 0
DWIDTH 24 0
BBX 17 20 2 -1
BITMAP
000180
003F80
03FF80
07F080
060180
083F80
07FF80
07F080
060080
080080
080080
080080
080080
080380
080780
080F00
380E00
780000
F00000
E00000
ENDCHAR
STARTCHAR 266D
ENCODING 9837
SWIDTH 1000 0
DWIDTH 24 0
BBX 11 22 7 -2
BITMAP
C000
C000
C000
C000
C000
C000
C000
C000
C000
CF80
DFC0
F0E0
E0E0
C060
C060
C0E0
C0C0
C1C0
C380
C700
FE00
F800
ENDCHAR
STARTCHAR 266F
ENCODING 9839
SWIDTH 1000 0
DWIDTH 24 0
BBX 16 22 4 -2
BITMAP
0030
0C30
0C30
0C30
0C30
0C3F
1FFF
FFFC
FE30
0C30
0C30
0C30
0C30
0C37
0FFF
FFFF
FFB0
CC30
0C30
0C30
0C30
0C00
ENDCHAR
STARTCHAR 2702
ENCODING 9986
SWIDTH 1000 0
DWIDTH 24 0
BBX 22 18 1 0
BITMAP
700000
8C0000
840004
440018
340060
0E01C0
030700
00DC00
007800
006800
00DC00
030700
0E01C0
340060
440018
840004
8C0000
700000
ENDCHAR
STARTCHAR 271A
ENCODING 10010
SWIDTH 1000 0
DWIDTH 24 0
BBX 20 20 2 -1
BITMAP
00F000
00F000
00F000
00F000
00F000
00F000
00F000
00F000
FFFFF0
FFFFF0
FFFFF0
FFFFF0
FFFFF0
00F000
00F000
00F000
00F000
00F000
00F000
00F000
ENDCHAR
STARTCHAR 2756
ENCODING 10070
SWIDTH 1000 0
DWIDTH 24 0
BBX 24 23 0 -2
BITMAP
001800
003C00
007E00
00FF00
00FF00
007E00
003C00
081810
1C0038
3E007C
7F00FE
FF81FF
7F00FC
3E0078
1C0030
081800
003C00
007E00
00FF00
007E00
007C00
003800
001000
ENDCHAR
STARTCHAR 2776
ENCODING 10102
SWIDTH 1000 0
DWIDTH 24 0
BBX 22 24 1 -3
BITMAP
00FC00
03FF80
0FFFC0
1FFFE0
3F0FF0
7F0FF8
7FCFF8
FFCFFC
FFCFFC
FFCFFC
FFCFFC
FFCFFC
FFCFFC
FFCFFC
FFCFFC
FFCFFC
FFCFFC
7FCFF8
7FCFF8
3FCFF0
1FFFE0
0FFFC0
07FF80
00FC00
ENDCHAR
STARTCHAR 2777
ENCODING 10103
SWIDTH 1000 0
DWIDTH 24 0
BBX 22 24 1 -3
BITMAP
00FC00
03FF80
0FFFC0
1FFFE0
3F87F0
7F03F8
7E79F8
FE79FC
FE79FC
FFF9FC
FFF9FC
FFF3FC
FFC3FC
FF0FFC
FF3FFC
FE7FFC
FE7FFC
7E7FF8
7E01F8
3E01F0
1FFFE0
0FFFC0
07FF80
00FC00
ENDCHAR
STARTCHAR 2778
ENCODING 10104
SWIDTH 1000 0
DWIDTH 24 0
BBX 22 24 1 -3
BITMAP
00FC00
03FF80
0FFFC0
1FFFE0
3F87F0
7F03F8
7E79F8
FE79FC
FE79FC
FFF9FC
FFFBFC
FFC3FC
FFC7FC
FFF9FC
FFF9FC
FE79FC
FE79FC
7E79F8
7F03F8
3F87F0
1FFFE0
0FFFC0
07FF80
00FC00
ENDCHAR
STARTCHAR 2779
ENCODING 10105
SWIDTH 1000 0
DWIDTH 24 0
BBX 22 24 1 -3
BITMAP
00FC00
03FF80
0FFFC0
1FFFE0
3FE7F0
7FC7F8
7FC7F8
FFA7FC
FFA7FC
FF27FC
FF67FC
FE67FC
FEE7FC
FCE7FC
FCE7FC
FC03FC
FFE7FC
7FE7F8
7FE7F8
3FE7F0
1FFFE0
0FFFC0
07FF80
00FC00
ENDCHAR
STARTCHAR 277A
ENCODING 10106
SWIDTH 1000 0
DWIDTH 24 0
BBX 22 24 1 -3
BITMAP
00FC00
03FF80
0FFFC0
1FFFE0
3E01F0
7E01F8
7E7FF8
FE7FFC
FE7FFC
FE4FFC
FE03FC
FE39FC
FE79FC
FFF9FC
FFF9FC
FE79FC
FE79FC
7E79F8
7F03F8
3F87F0
1FFFE0
0FFFC0
07FF80
00FC00
ENDCHAR
STARTCHAR 277B
ENCODING 10107
SWIDTH 1000 0
DWIDTH 24 0
BBX 22 24 1 -3
BITMAP
00FC00
03FF80
0FFFC0
1FFFE0
3F87F0
7F03F8
7F79F8
FE79FC
FE7FFC
FE7FFC
FE87FC
FE03FC
FE79FC
FE79FC
FE79FC
FE79FC
FE79FC
7E79F8
7F03F8
3F87F0
1FFFE0
0FFFC0
07FF80
00FC00
ENDCHAR
STARTCHAR 277C
ENCODING 10108
SWIDTH 1000 0
DWIDTH 24 0
BBX 22 24 1 -3
BITMAP
00FC00
03FF80
0FFFC0
1FFFE0
3E01F0
7E01F8
7FF9F8
FFF9FC
FFFBFC
FFF3FC
FFF3FC
FFF7FC
FFE7FC
FFE7FC
FFCFFC
FFCFFC
FFDFFC
7F9FF8
7F9FF8
3FBFF0
1FFFE0
0FFFC0
07FF80
00FC00
ENDCHAR
STARTCHAR 277D
ENCODING 10109
SWIDTH 1000 0
DWIDTH 24 0
BBX 22 24 1 -3
BITMAP
00FC00
03FF80
0FFFC0
1FFFE0
3F87F0
7F03F8
7E79F8
FE79FC
FE79FC
FE79FC
FF33FC
FF87FC
FF03FC
FE79FC
FE79FC
FE79FC
FE79FC
7E79F8
7F03F8
3F87F0
1FFFE0
0FFFC0
07FF80
00FC00
ENDCHAR
STARTCHAR 277E
ENCODING 10110
SWIDTH 1000 0
DWIDTH 24 0
BBX 22 24 1 -3
BITMAP
00FC00
03FF80
0FFFC0
1FFFE0
3F87F0
7F03F8
7E79F8
FE79FC
FE79FC
FE79FC
FE79FC
FE79FC
FF01FC
FF89FC
FFF9FC
FFF9FC
FE79FC
7E79F8
7F03F8
3F87F0
1FFFE0
0FFFC0
07FF80
00FC00
ENDCHAR
STARTCHAR 27A1
ENCODING 10145
SWIDTH 1000 0
DWIDTH 24 0
BBX 22 19 1 0
BITMAP
000800
000C00
000E00
000F00
000F80
FFFFC0
FFFFE0
FFFFF0
FFFFF8
FFFFFC
FFFFF8
FFFFF0
FFFFE0
000FC0
000F80
000F00
000E00
000C00
000800
ENDCHAR
STARTCHAR 2E83
ENCODING 11907
SWIDTH 1000 0
DWIDTH 24 0
BBX 18 23 4 -2
BITMAP
C00000
C00000
C00000
C00000
C00000
C00000
C00000
C00000
C00000
C00000
C00000
C00000
C00000
C00000
C00000
C00080
C000C0
C000C0
C001C0
C00180
C00180
FFFF80
7FFF00
ENDCHAR
STARTCHAR 2E85
ENCODING 11909
SWIDTH 1000 0
DWIDTH 24 0
BBX 13 22 4 -2
BITMAP
0038
0030
0070
00E0
00E0
01C0
0380
0780
0F80
1D80
7980
F180
4180
0180
0180
0180
0180
0180
0180
0180
0180
0180
ENDCHAR
STARTCHAR 2E87
ENCODING 11911
SWIDTH 1000 0
DWIDTH 24 0
BBX 23 23 1 -3
BITMAP
3FFFF0
3FFFF0
300030
300030
300030
300030
300020
300060
300060
300060
300060
300060
300030
300030
300030
600030
600030
600036
600034
E00034
C0003C
C0001C
000018
ENDCHAR
STARTCHAR 2E89
ENCODING 11913
SWIDTH 1000 0
DWIDTH 24 0
BBX 10 23 7 -2
BITMAP
00C0
00C0
C0C0
C0C0
C0C0
C0C0
C0C0
C0C0
C0C0
C0C0
C0C0
C0C0
C0C0
C0C0
C0C0
C0C0
C0C0
C0C0
00C0
00C0
00C0
1FC0
1F80
ENDCHAR
STARTCHAR 2E8B
ENCODING 11915
SWIDTH 1000 0
DWIDTH 24 0
BBX 21 22 2 -2
BITMAP
FFFFE0
FFFFE0
C00060
C00060
C00060
C00060
C00060
C00060
C00060
C00060
C00060
C01FE0
C01FC0
C00000
C00000
C00018
C00018
C00018
C00018
E00038
7FFFF0
7FFFE0
ENDCHAR
STARTCHAR 2E8C
ENCODING 11916
SWIDTH 1000 0
DWIDTH 24 0
BBX 20 11 2 4
BITMAP
006000
006000
E06070
606060
706060
3060E0
3860C0
1861C0
186180
186180
006000
ENDCHAR
STARTCHAR 2E8D
ENCODING 11917
SWIDTH 1000 0
DWIDTH 24 0
BBX 20 8 2 5
BITMAP
008000
40C030
C0C030
606060
706060
3070C0
183180
180380
ENDCHAR
STARTCHAR 2E8E
ENCODING 11918
SWIDTH 1000 0
DWIDTH 24 0
BBX 22 21 1 -2
BITMAP
FFFFFC
FFFFFC
030600
030600
030600
030600
030600
030600
030600
030600
030600
030600
030600
070600
060608
0E060C
0C060C
1C060C
78060C
F007FC
C003F8
ENDCHAR
STARTCHAR 2E8F
ENCODING 11919
SWIDTH 1000 0
DWIDTH 24 0
BBX 22 23 1 -2
BITMAP
020100
030300
070380
060180
0E01C0
1C00E0
380070
700038
E0001C
C0000C
030600
030600
030600
030600
030600
030600
070608
06060C
0E060C
1C060C
38060C
F007FC
E007F8
ENDCHAR
STARTCHAR 2E90
ENCODING 11920
SWIDTH 1000 0
DWIDTH 24 0
BBX 22 23 1 -2
BITMAP
00C000
00C000
00C000
00C000
00C000
FFFFFC
FFFFFC
00D800
00D800
00D800
00D800
019800
019800
019800
031800
031800
071808
06180C
0C180C
1C180C
38180C
F01FF8
C01FF8
ENDCHAR
STARTCHAR 2E92
ENCODING 11922
SWIDTH 1000 0
DWIDTH 24 0
BBX 21 22 2 -2
BITMAP
FFFFE0
FFFFE0
C00060
C00060
C00060
C00060
C00060
C00060
C00060
FFFFE0
FFFFE0
C00000
C00000
C00000
C00000
C00000
C00018
C00018
C00018
C00018
FFFFF0
7FFFF0
ENDCHAR
STARTCHAR 2E93
ENCODING 11923
SWIDTH 1000 0
DWIDTH 24 0
BBX 20 22 2 -1
BITMAP
006000
00E000
00C000
018100
030180
670300
3E0700
1C0E00
0E1C00
073800
03F000
01E000
00C700
018300
030180
0601C0
0C00C0
1807E0
FFFFE0
FF8030
000030
000020
ENDCHAR
STARTCHAR 2E94
ENCODING 11924
SWIDTH 1000 0
DWIDTH 24 0
BBX 22 23 1 -2
BITMAP
020000
020000
060000
060000
060000
07FFE0
07FFE0
060060
0600C0
0C00C0
0C00C0
0C00C0
0C00C0
0C00C0
1FFFC0
1FFFC0
0000C0
0000C0
0000C0
0000C0
000180
FFFFFC
FFFFFC
ENDCHAR
STARTCHAR 2E95
ENCODING 11925
SWIDTH 1000 0
DWIDTH 24 0
BBX 22 22 1 -2
BITMAP
7FFFE0
7FFFE0
0000E0
0000E0
0000E0
0000E0
0000E0
0000E0
0000E0
FFFFFC
FFFFFC
0000E0
0000E0
0000E0
0000E0
0000E0
0000E0
0000E0
0000E0
7FFFE0
7FFFE0
0000E0
ENDCHAR
STARTCHAR 2E96
ENCODING 11926
SWIDTH 1000 0
DWIDTH 24 0
BBX 10 22 7 -2
BITMAP
0C00
0C00
0C00
0C00
4D00
6D80
6D80
6C80
6CC0
4C80
CC00
4C00
0C00
0C00
0C00
0C00
0C00
0C00
0C00
0C00
0C00
0C00
ENDCHAR
STARTCHAR 2E97
ENCODING 11927
SWIDTH 1000 0
DWIDTH 24 0
BBX 22 23 1 -2
BITMAP
006000
006000
006000
006000
006000
006000
006000
006040
0060E0
0C6660
186730
186330
306318
306198
60618C
E0618C
4060C0
006000
006000
006000
006000
03E000
03E000
ENDCHAR
STARTCHAR 2E98
ENCODING 11928
SWIDTH 1000 0
DWIDTH 24 0
BBX 9 24 7 -3
BITMAP
0C00
0C00
0C00
0C00
0C00
FF80
FF80
0C00
0C00
0C00
0C00
0C80
0F80
1F00
FC00
EC00
0C00
0C00
0C00
0C00
0C00
0C00
7C00
7800
ENDCHAR
STARTCHAR 2E99
ENCODING 11929
SWIDTH 1000 0
DWIDTH 24 0
BBX 22 23 1 -2
BITMAP
020000
030000
060000
060000
07FFFC
0FFFFC
0C0060
1C00C0
3C00C0
7C00C0
E60180
460180
030300
038300
01C600
00EC00
007C00
007800
00FE00
07CF80
1F03F0
FC00FC
F0003C
ENDCHAR
STARTCHAR 2E9B
ENCODING 11931
SWIDTH 1000 0
DWIDTH 24 0
BBX 22 22 1 -2
BITMAP
7FFFF8
7FFFF8
001800
181800
181800
301800
301800
301800
3FFFFC
7FFFFC
003000
003800
007800
007800
00F800
01D800
03980C
07180C
0E180C
3C180C
F81FF8
E00FF8
ENDCHAR
STARTCHAR 2E9F
ENCODING 11935
SWIDTH 1000 0
DWIDTH 24 0
BBX 22 23 1 -3
BITMAP
1FFFF0
1FFFF0
180030
186030
187030
183830
181830
180030
FFFFFC
FFFFFC
300030
30E030
307060
303860
301860
300060
3FFFFC
7FFFFC
600060
6000C0
0000C0
001FC0
000F80
ENDCHAR
STARTCHAR 2EA0
ENCODING 11936
SWIDTH 1000 0
DWIDTH 24 0
BBX 22 23 1 -3
BITMAP
3FFFF8
3FFFF8
300018
300018
300018
3FFFF8
3FFFF8
301800
301800
301800
3FFFFC
3FFFFC
300C00
300C00
300C00
300600
300600
30070C
30330C
37F38C
FFC1DC
FC00F8
000070
ENDCHAR
STARTCHAR 2EA1
ENCODING 11937
SWIDTH 1000 0
DWIDTH 24 0
BBX 7 22 8 -2
BITMAP
30
3C
1E
06
00
00
00
70
7C
1C
04
00
00
06
06
0C
0C
18
38
70
E0
40
ENDCHAR
STARTCHAR 2EA2
ENCODING 11938
SWIDTH 1000 0
DWIDTH 24 0
BBX 22 24 1 -3
BITMAP
003000
003000
003000
703018
783038
3C3070
0E31E0
0733C0
033300
003000
003000
003000
003200
00B700
03B380
0731C0
1E31E0
3C3070
F03038
E0301C
003008
003000
07F000
03E000
ENDCHAR
STARTCHAR 2EA3
ENCODING 11939
SWIDTH 1000 0
DWIDTH 24 0
BBX 22 7 1 6
BITMAP
100020
318C70
318630
318618
618618
E1860C
C1860C
ENDCHAR
STARTCHAR 2EA4
ENCODING 11940
SWIDTH 1000 0
DWIDTH 24 0
BBX 20 11 2 4
BITMAP
000060
003FF0
FFFF80
FC0000
004070
60C060
60E060
7060C0
3061C0
304180
000080
ENDCHAR
STARTCHAR 2EA6
ENCODING 11942
SWIDTH 1000 0
DWIDTH 24 0
BBX 7 22 6 -2
BITMAP
06
06
06
06
C6
E6
66
36
36
06
06
06
06
1E
3E
F6
C6
06
06
06
06
06
ENDCHAR
STARTCHAR 2EA8
ENCODING 11944
SWIDTH 1000 0
DWIDTH 24 0
BBX 10 23 7 -2
BITMAP
0080
30C0
3980
1F80
0F00
1E00
3E00
7300
4300
0180
0380
0780
0F80
1D80
3980
E180
4180
0180
0180
0180
0300
7F00
3E00
ENDCHAR
STARTCHAR 2EA9
ENCODING 11945
SWIDTH 1000 0
DWIDTH 24 0
BBX 10 20 7 -1
BITMAP
7FC0
7FC0
0C00
0C00
0C00
0C00
0C00
0C00
7F80
7F80
0C00
0C00
0C00
0C00
0C00
0C00
0DC0
1FC0
FE00
7000
ENDCHAR
STARTCHAR 2EAA
ENCODING 11946
SWIDTH 1000 0
DWIDTH 24 0
BBX 12 22 6 -2
BITMAP
7FF0
7FF0
0060
00E0
01C0
0780
6700
6600
6600
6600
67E0
67E0
6600
6600
6600
6600
6600
6600
66E0
7FE0
FE00
E000
ENDCHAR
STARTCHAR 2EAB
ENCODING 11947
SWIDTH 1000 0
DWIDTH 24 0
BBX 20 9 2 4
BITMAP
FFFFF0
FFFFF0
C30C30
C30C30
C30C30
C30C30
FFFFF0
FFFFF0
C00030
ENDCHAR
STARTCHAR 2EAC
ENCODING 11948
SWIDTH 1000 0
DWIDTH 24 0
BBX 22 23 1 -3
BITMAP
7FFFF8
7FFFF8
000000
000000
000000
000000
000000
FFFFFC
FFFFFC
003000
003000
083040
0C30C0
1830E0
183060
183060
303030
303038
603018
E0301C
C0300C
03F000
03E000
ENDCHAR
STARTCHAR 2EAD
ENCODING 11949
SWIDTH 1000 0
DWIDTH 24 0
BBX 20 24 2 -3
BITMAP
006000
006000
006000
006000
FFFFE0
FFFFE0
0000E0
0001C0
000380
000700
001E00
003800
00FC00
03EF00
1F67C0
FC61F0
F06070
806010
006000
006000
006000
006000
006000
006000
ENDCHAR
STARTCHAR 2EAE
ENCODING 11950
SWIDTH 1000 0
DWIDTH 24 0
BBX 22 9 1 5
BITMAP
100000
180600
180C00
3FCFFC
3FDFFC
661980
E630C0
C630C0
0300C0
ENDCHAR
STARTCHAR 2EB1
ENCODING 11953
SWIDTH 1000 0
DWIDTH 24 0
BBX 20 9 2 4
BITMAP
FFFFF0
FFFFF0
C00630
CF0E30
C7FC30
C0FC30
C7DF30
CF0730
C00030
ENDCHAR
STARTCHAR 2EB2
ENCODING 11954
SWIDTH 1000 0
DWIDTH 24 0
BBX 20 9 2 4
BITMAP
FFFFF0
FFFFF0
C30C30
C30C30
C30C30
C30C30
FFFFF0
FFFFF0
C00030
ENDCHAR
STARTCHAR 2EB3
ENCODING 11955
SWIDTH 1000 0
DWIDTH 24 0
BBX 20 9 2 4
BITMAP
FFFFF0
FFFFF0
C31830
C21830
C619B0
CE19B0
DC1FB0
D81F30
C00030
ENDCHAR
STARTCHAR 2EB7
ENCODING 11959
SWIDTH 1000 0
DWIDTH 24 0
BBX 22 17 1 1
BITMAP
020000
0601C0
070180
030380
7FFFFC
7FFFFC
003000
003000
003000
3FFFF0
3FFFF0
003000
003000
003000
003000
FFFFFC
FFFFFC
ENDCHAR
STARTCHAR 2EB9
ENCODING 11961
SWIDTH 1000 0
DWIDTH 24 0
BBX 22 18 1 1
BITMAP
00C000
00C010
00C038
3FFF30
3FFF60
00C0E0
00C1C0
00C380
FFFFFC
FFFFFC
001C00
003800
00E000
01C000
078000
1E0000
F80000
600000
ENDCHAR
STARTCHAR 2EBC
ENCODING 11964
SWIDTH 1000 0
DWIDTH 24 0
BBX 19 23 1 -3
BITMAP
1FFFE0
1FFFE0
180060
180060
188060
19E060
18F060
183C60
181E60
180660
188060
19C060
18F060
187860
181E60
180E60
180660
380060
300060
700060
600060
E00FE0
4007C0
ENDCHAR
STARTCHAR 2EBD
ENCODING 11965
SWIDTH 1000 0
DWIDTH 24 0
BBX 20 24 2 -3
BITMAP
008000
038000
FF9FF0
F81FF0
C00030
C00030
C00030
C00030
C00030
C00030
C00030
FF9FF0
FF9FF0
C00030
C00030
C00030
C00030
C00030
C00030
C00030
FF9FF0
FF9FF0
C00030
C00030
ENDCHAR
STARTCHAR 2EBE
ENCODING 11966
SWIDTH 1000 0
DWIDTH 24 0
BBX 22 8 1 5
BITMAP
030300
030300
030300
FFFFFC
FFFFFC
030300
030300
030300
ENDCHAR
STARTCHAR 2EBF
ENCODING 11967
SWIDTH 1000 0
DWIDTH 24 0
BBX 22 8 1 5
BITMAP
060180
060180
060180
FFDFFC
FFDFFC
060180
060180
060180
ENDCHAR
STARTCHAR 2EC0
ENCODING 11968
SWIDTH 1000 0
DWIDTH 24 0
BBX 22 8 1 5
BITMAP
030300
030300
030300
FF03FC
FF03FC
030300
030300
030300
ENDCHAR
STARTCHAR 2EC1
ENCODING 11969
SWIDTH 1000 0
DWIDTH 24 0
BBX 22 23 1 -3
BITMAP
006000
006000
007FF0
007FF0
006000
3FFFFC
3FFFFC
30600C
30600C
33FFD8
3FF800
306010
307FF0
303FF0
300000
30C600
60C600
60C600
61860C
61860C
C3060C
CE07FC
8C03F8
ENDCHAR
STARTCHAR 2EC2
ENCODING 11970
SWIDTH 1000 0
DWIDTH 24 0
BBX 20 24 2 -3
BITMAP
006000
006000
006000
006000
FFFFE0
FFFFE0
0001C0
000380
000700
000E30
001C30
007860
01FCC0
07EE00
1F6780
FC63E0
F060F0
806030
006000
006000
006000
006000
006000
006000
ENDCHAR
STARTCHAR 2EC3
ENCODING 11971
SWIDTH 1000 0
DWIDTH 24 0
BBX 22 12 1 3
BITMAP
FFFFFC
FFFFFC
018600
018600
7FFFF8
7FFFF8
618618
618618
618618
7FFFF8
7FFFF8
600018
ENDCHAR
STARTCHAR 2EC4
ENCODING 11972
SWIDTH 1000 0
DWIDTH 24 0
BBX 22 22 1 -2
BITMAP
FFFFFC
FFFFFC
018C00
018C00
018C00
018C00
7FFFF8
7FFFF8
618C18
610C18
630C18
630C58
630C58
660CD8
6E0FD8
7C0F98
680018
600018
600018
7FFFF8
7FFFF8
600018
ENDCHAR
STARTCHAR 2EC6
ENCODING 11974
SWIDTH 1000 0
DWIDTH 24 0
BBX 21 24 1 -3
BITMAP
018000
018000
03FFC0
07FFC0
1C0380
380700
FFFFF8
5FFFF8
101018
101018
101018
1FFFF8
1FFFF8
101018
101018
101018
3FFFF8
3FFFF8
301018
301018
301018
601018
E011F8
4011F8
ENDCHAR
STARTCHAR 2ECA
ENCODING 11978
SWIDTH 1000 0
DWIDTH 24 0
BBX 11 22 6 -2
BITMAP
3FC0
3FC0
20C0
20C0
20C0
20C0
3FC0
3FC0
0200
0200
0200
3200
33E0
33E0
3200
3200
3200
3200
32E0
3FE0
FF00
F000
ENDCHAR
STARTCHAR 2ECC
ENCODING 11980
SWIDTH 1000 0
DWIDTH 24 0
BBX 22 22 1 -3
BITMAP
600000
700000
3C0000
1E0000
0C0000
000000
000000
000000
000000
F80000
F80000
180000
180000
180000
180000
180000
1C0000
1C0000
3C0000
770000
E3FFFC
C1FFFC
ENDCHAR
STARTCHAR 2ECD
ENCODING 11981
SWIDTH 1000 0
DWIDTH 24 0
BBX 22 22 1 -1
BITMAP
780000
3E0000
0C0000
000000
000000
600000
F80000
180000
000000
000000
000000
F80000
F80000
180000
180000
180000
180000
1C0000
3C0000
770000
E3FFFC
C0FFFC
ENDCHAR
STARTCHAR 2ECF
ENCODING 11983
SWIDTH 1000 0
DWIDTH 24 0
BBX 11 23 7 -3
BITMAP
FFC0
FFC0
E0C0
E180
E180
E300
E300
E600
E700
E380
E1C0
E0C0
E0E0
E060
E060
E0E0
EFC0
EF00
E000
E000
E000
E000
E000
ENDCHAR
STARTCHAR 2ED1
ENCODING 11985
SWIDTH 1000 0
DWIDTH 24 0
BBX 22 22 1 -2
BITMAP
1FFFF0
1FFFF0
180000
180000
1FFFE0
1FFFE0
180000
1FFFE0
1FFFE0
180000
180000
FFFFFC
FFFFFC
186070
1870E0
1839C0
181F80
180E00
180780
18F1F0
FFF0FC
FE001C
ENDCHAR
STARTCHAR 2ED2
ENCODING 11986
SWIDTH 1000 0
DWIDTH 24 0
BBX 22 22 1 -2
BITMAP
0FFFF0
0FFFF0
0C0000
0C0000
0FFFC0
0FFFC0
0C0000
0FFFC0
0FFFC0
0C0000
0C0000
FFFFFC
FFFFFC
018000
030100
030180
0300C0
0600E0
060060
0C0FF0
7FFFF8
7F0018
ENDCHAR
STARTCHAR 2ED6
ENCODING 11990
SWIDTH 1000 0
DWIDTH 24 0
BBX 11 23 7 -3
BITMAP
FFC0
FFC0
E0C0
E180
E180
E300
E300
E600
E700
E380
E1C0
E0C0
E0E0
E060
E060
E0E0
EFC0
EF00
E000
E000
E000
E000
E000
ENDCHAR
STARTCHAR 2ED7
ENCODING 11991
SWIDTH 1000 0
DWIDTH 24 0
BBX 21 13 2 2
BITMAP
FFFFE0
FFFFE0
006000
006000
FFFFF8
FFFFF8
C06038
DE6FB8
C06038
C06038
1E6F80
1E6F80
006000
ENDCHAR
STARTCHAR 2ED8
ENCODING 11992
SWIDTH 1000 0
DWIDTH 24 0
BBX 22 24 1 -3
BITMAP
003000
003000
7FFFF8
7FFFF8
003000
3FFFF0
003000
003000
FFFFFC
FFFFFC
000000
1FFFE0
1FFFE0
180060
180060
1FFFE0
180060
180060
1FFFE0
180060
180060
180060
1807E0
1807E0
ENDCHAR
STARTCHAR 2EDD
ENCODING 11997
SWIDTH 1000 0
DWIDTH 24 0
BBX 22 23 1 -2
BITMAP
003000
007800
00EE00
038700
0F03C0
7DFEF8
F8007C
E0001C
9FFFE4
1FFFE0
180060
1FFFE0
180060
180060
1FFFE0
1FFFF8
183038
183870
181DC0
180F80
18F3C0
FFF1FC
FE003C
ENDCHAR
STARTCHAR 2EDE
ENCODING 11998
SWIDTH 1000 0
DWIDTH 24 0
BBX 14 22 5 -2
BITMAP
07C0
0EE0
1C70
383C
7FD8
EFC0
C000
3FF0
3FF0
3030
3FF0
3030
3030
3FF0
3FF0
3000
3FF0
3FF0
3000
3FF0
3FF0
3000
ENDCHAR
STARTCHAR 2EDF
ENCODING 11999
SWIDTH 1000 0
DWIDTH 24 0
BBX 14 22 5 -2
BITMAP
07C0
0EE0
1C70
383C
7318
E300
BFF0
3FF0
3030
3030
3FF0
3030
3030
3FF0
3FF0
3000
3060
3060
31F0
3FF0
FE18
E010
ENDCHAR
STARTCHAR 2EE4
ENCODING 12004
SWIDTH 1000 0
DWIDTH 24 0
BBX 22 23 1 -2
BITMAP
006000
006000
3FFFF0
3FFFF0
303030
303030
303030
3FFFF0
3FFFF0
303030
303030
303030
3FFFF0
3FFFF0
031980
031990
0319B0
061918
061BF8
0C1BCC
38180C
F01FFC
E00FF8
ENDCHAR
STARTCHAR 2EE8
ENCODING 12008
SWIDTH 1000 0
DWIDTH 24 0
BBX 22 23 1 -3
BITMAP
003000
7FFFFC
7FFFFC
003000
3FFFF0
3FFFF0
003000
003000
FFFFFC
FFFFFC
018000
03FFE0
07FFE0
0E00C0
3E0180
F38300
41CE00
00FC00
00FC00
07FF80
7F87FC
FC007C
000004
ENDCHAR
STARTCHAR 2EE9
ENCODING 12009
SWIDTH 1000 0
DWIDTH 24 0
BBX 22 24 1 -3
BITMAP
030300
030300
7FFFF8
7FFFF8
030300
030300
030300
FFFFFC
FFFFFC
003000
3FFFF0
3FFFF0
303030
303030
3FFFF0
3FFFF0
303030
303030
3FFFF0
3FFFF0
060180
3E01F8
F8007C
400000
ENDCHAR
STARTCHAR 2EEB
ENCODING 12011
SWIDTH 1000 0
DWIDTH 24 0
BBX 22 23 1 -3
BITMAP
003000
003000
FFFFFC
FFFFFC
060180
030300
01CE00
00F800
07FF80
FF07FC
FC007C
0C0060
0FFFE0
0FFFE0
0C0060
0C0060
1FFFE0
1FFFE0
380060
300060
700060
E00060
000060
ENDCHAR
STARTCHAR 2EED
ENCODING 12013
SWIDTH 1000 0
DWIDTH 24 0
BBX 22 24 1 -3
BITMAP
003000
0C3000
0C3FF8
0C3FF8
0C3000
0C3000
FFFFFC
FFFFFC
000000
633118
633318
613218
6FFFD8
6FFFD8
607818
60FC18
61B718
673398
6E3198
603018
600018
7FFFF8
7FFFF8
600018
ENDCHAR
STARTCHAR 2EEF
ENCODING 12015
SWIDTH 1000 0
DWIDTH 24 0
BBX 22 24 1 -3
BITMAP
003000
003000
7FFFF8
7FFFF8
060180
060100
FFFFFC
FFFFFC
000000
3FFFE0
3FFFE0
303020
303020
3FFFE0
3FFFE0
303020
303020
3FFFE0
3FFFE8
30300C
30300C
00300C
003FFC
001FF8
ENDCHAR
STARTCHAR 2EF2
ENCODING 12018
SWIDTH 1000 0
DWIDTH 24 0
BBX 22 24 1 -3
BITMAP
038000
070000
0FFF80
3C0700
F00E00
BFFFF0
303030
3FFFF0
303030
303030
3FFFF0
003000
003000
7FFFF8
603018
603018
7FFFF8
603018
603018
7FFFFC
60300C
60300C
003FFC
001FF8
ENDCHAR
STARTCHAR 2F00
ENCODING 12032
SWIDTH 1000 0
DWIDTH 24 0
BBX 22 2 1 8
BITMAP
FFFFFC
FFFFFC
ENDCHAR
STARTCHAR 2F01
ENCODING 12033
SWIDTH 1000 0
DWIDTH 24 0
BBX 2 22 11 -2
BITMAP
C0
C0
C0
C0
C0
C0
C0
C0
C0
C0
C0
C0
C0
C0
C0
C0
C0
C0
C0
C0
C0
C0
ENDCHAR
STARTCHAR 2F02
ENCODING 12034
SWIDTH 1000 0
DWIDTH 24 0
BBX 10 12 7 3
BITMAP
4000
E000
7000
3800
1C00
0C00
0600
0700
0380
0180
01C0
0080
ENDCHAR
STARTCHAR 2F03
ENCODING 12035
SWIDTH 1000 0
DWIDTH 24 0
BBX 11 22 4 -2
BITMAP
0060
0060
0060
0060
0060
0060
0060
00C0
00C0
00C0
00C0
00C0
0180
0180
0380
0300
0700
0E00
1C00
7800
E000
C000
ENDCHAR
STARTCHAR 2F04
ENCODING 12036
SWIDTH 1000 0
DWIDTH 24 0
BBX 22 21 1 -2
BITMAP
7FFFE0
7FFFE0
0001C0
000780
000E00
001C00
007000
00E000
01C000
038000
0E0000
1C0000
180000
300008
60000C
60000C
E0000C
E0000C
700018
7FFFF8
1FFFF0
ENDCHAR
STARTCHAR 2F05
ENCODING 12037
SWIDTH 1000 0
DWIDTH 24 0
BBX 7 23 6 -2
BITMAP
06
06
06
06
06
06
06
06
06
06
06
06
06
06
06
06
06
06
06
06
06
FE
FE
ENDCHAR
STARTCHAR 2F06
ENCODING 12038
SWIDTH 1000 0
DWIDTH 24 0
BBX 22 18 1 0
BITMAP
7FFFF8
7FFFF8
000000
000000
000000
000000
000000
000000
000000
000000
000000
000000
000000
000000
000000
000000
FFFFFC
FFFFFC
ENDCHAR
STARTCHAR 2F07
ENCODING 12039
SWIDTH 1000 0
DWIDTH 24 0
BBX 22 9 1 5
BITMAP
003000
003000
003000
003000
003000
003000
003000
FFFFFC
FFFFFC
ENDCHAR
STARTCHAR 2F08
ENCODING 12040
SWIDTH 1000 0
DWIDTH 24 0
BBX 22 22 1 -2
BITMAP
003000
003000
003000
003000
003000
003000
003000
007800
007800
007800
006C00
00CC00
00CC00
01C600
018700
030300
070380
0E01C0
1C00F0
780078
F0003C
C0000C
ENDCHAR
STARTCHAR 2F09
ENCODING 12041
SWIDTH 1000 0
DWIDTH 24 0
BBX 22 22 1 -2
BITMAP
060300
060300
060300
060300
060300
060300
060300
060300
060300
060300
060300
060300
060300
060300
060300
0C0308
0C030C
1C030C
38030C
70038C
E003FC
4001F8
ENDCHAR
STARTCHAR 2F0A
ENCODING 12042
SWIDTH 1000 0
DWIDTH 24 0
BBX 22 22 1 -2
BITMAP
1FF000
1FF000
003000
003000
003000
003800
003800
007800
007800
007800
006C00
00CC00
00CE00
018600
018700
030380
0701C0
0E01E0
1C00F0
780078
F0003C
C0000C
ENDCHAR
STARTCHAR 2F0B
ENCODING 12043
SWIDTH 1000 0
DWIDTH 24 0
BBX 22 22 1 -2
BITMAP
020300
030300
030300
030300
030300
030300
030300
030300
060300
060180
060180
060180
0E0180
0C00C0
0C00C0
1C00E0
180060
380070
700038
E0001C
C0001C
000008
ENDCHAR
STARTCHAR 2F0C
ENCODING 12044
SWIDTH 1000 0
DWIDTH 24 0
BBX 20 22 2 -2
BITMAP
FFFFF0
FFFFF0
C00030
C00030
C00030
C00030
C00030
C00030
C00030
C00030
C00030
C00030
C00030
C00030
C00030
C00030
C00030
C00030
C00030
C00030
C003F0
C003F0
ENDCHAR
STARTCHAR 2F0D
ENCODING 12045
SWIDTH 1000 0
DWIDTH 24 0
BBX 20 8 2 5
BITMAP
FFFFF0
FFFFF0
C00030
C00030
C00030
C00030
C00030
C00030
ENDCHAR
STARTCHAR 2F0E
ENCODING 12046
SWIDTH 1000 0
DWIDTH 24 0
BBX 13 21 5 -1
BITMAP
7000
3800
1C00
0E00
0700
0300
0000
0000
0000
0000
0008
0018
0038
0070
00C0
0380
0700
1E00
3800
F000
4000
ENDCHAR
STARTCHAR 2F0F
ENCODING 12047
SWIDTH 1000 0
DWIDTH 24 0
BBX 22 22 1 -2
BITMAP
07FF80
07FF80
060180
060180
060180
060180
060180
060180
060180
060180
060180
0E0180
0C0180
0C0180
0C0180
0C0188
18018C
18018C
30018C
70018C
E001FC
C001F8
ENDCHAR
STARTCHAR 2F10
ENCODING 12048
SWIDTH 1000 0
DWIDTH 24 0
BBX 20 22 2 -2
BITMAP
C00030
C00030
C00030
C00030
C00030
C00030
C00030
C00030
C00030
C00030
C00030
C00030
C00030
C00030
C00030
C00030
C00030
C00030
C00030
FFFFF0
FFFFF0
C00030
ENDCHAR
STARTCHAR 2F11
ENCODING 12049
SWIDTH 1000 0
DWIDTH 24 0
BBX 20 21 1 -2
BITMAP
7FFFF0
7FFFF0
006030
006030
006030
006030
00C030
00C030
00C030
00C030
00C030
018030
018030
038030
030030
070030
0E0030
1C0070
380060
F00FE0
400FC0
ENDCHAR
STARTCHAR 2F12
ENCODING 12050
SWIDTH 1000 0
DWIDTH 24 0
BBX 21 24 1 -3
BITMAP
006000
006000
006000
006000
006000
006000
FFFFF8
FFFFF8
00C018
00C018
00C018
00C018
00C018
018018
018018
038018
030018
070018
0E0018
1C0038
380038
700070
E007F0
4007E0
ENDCHAR
STARTCHAR 2F13
ENCODING 12051
SWIDTH 1000 0
DWIDTH 24 0
BBX 21 22 1 -1
BITMAP
030000
070000
060000
07FFF8
0FFFF8
0C0018
180018
380018
700018
600018
E00018
400018
000018
000018
000018
000018
000018
000010
000030
000030
000FF0
000FE0
ENDCHAR
STARTCHAR 2F14
ENCODING 12052
SWIDTH 1000 0
DWIDTH 24 0
BBX 20 22 3 -2
BITMAP
C00000
C00000
C00000
C00080
C003C0
C00780
C01E00
C07800
C3E000
FF8000
FC0000
C00000
C00000
C00000
C00000
C00020
C00070
C00060
C00060
C00060
FFFFE0
7FFFC0
ENDCHAR
STARTCHAR 2F15
ENCODING 12053
SWIDTH 1000 0
DWIDTH 24 0
BBX 21 22 2 -2
BITMAP
FFFFF8
FFFFF8
C00000
C00000
C00000
C00000
C00000
C00000
C00000
C00000
C00000
C00000
C00000
C00000
C00000
C00000
C00000
C00000
C00000
FFFFF8
FFFFF8
C00000
ENDCHAR
STARTCHAR 2F16
ENCODING 12054
SWIDTH 1000 0
DWIDTH 24 0
BBX 22 20 1 -1
BITMAP
FFFFFC
FFFFFC
180000
180000
180000
180000
180000
180000
180000
180000
180000
180000
180000
180000
180000
180000
180000
180000
1FFFF8
0FFFF8
ENDCHAR
STARTCHAR 2F17
ENCODING 12055
SWIDTH 1000 0
DWIDTH 24 0
BBX 22 24 1 -3
BITMAP
003000
003000
003000
003000
003000
003000
003000
003000
FFFFFC
FFFFFC
003000
003000
003000
003000
003000
003000
003000
003000
003000
003000
003000
003000
003000
003000
ENDCHAR
STARTCHAR 2F18
ENCODING 12056
SWIDTH 1000 0
DWIDTH 24 0
BBX 15 22 7 -2
BITMAP
C000
C000
C000
C000
C000
C000
C000
C000
FC00
FF00
C7E0
C0F8
C03E
C00E
C004
C000
C000
C000
C000
C000
C000
C000
ENDCHAR
STARTCHAR 2F19
ENCODING 12057
SWIDTH 1000 0
DWIDTH 24 0
BBX 15 23 5 -3
BITMAP
FFFE
FFFE
C006
C006
C006
C006
C006
C006
C006
C006
C006
C006
C006
C006
C006
C006
C006
C0FE
C0FC
C000
C000
C000
C000
ENDCHAR
STARTCHAR 2F1A
ENCODING 12058
SWIDTH 1000 0
DWIDTH 24 0
BBX 22 21 1 -2
BITMAP
3FFFFC
3FFFFC
300000
300000
300000
300000
300000
300000
300000
300000
300000
300000
300000
300000
300000
300000
700000
600000
600000
E00000
400000
ENDCHAR
STARTCHAR 2F1B
ENCODING 12059
SWIDTH 1000 0
DWIDTH 24 0
BBX 20 20 2 -1
BITMAP
006000
00C000
00C000
00C000
018000
018000
018000
030000
030400
060E00
060700
0C0300
0C0180
1C01C0
1800C0
3800E0
303FE0
FFFFF0
FF0030
000020
ENDCHAR
STARTCHAR 2F1C
ENCODING 12060
SWIDTH 1000 0
DWIDTH 24 0
BBX 22 21 1 -2
BITMAP
7FFFF0
7FFFF0
000060
080060
180060
0C00E0
0C00C0
0E00C0
060180
070380
030300
018700
01CE00
00FC00
007800
007800
01FE00
07CF80
1F03F0
FC00FC
E0001C
ENDCHAR
STARTCHAR 2F1D
ENCODING 12061
SWIDTH 1000 0
DWIDTH 24 0
BBX 20 21 2 -2
BITMAP
FFFFF0
FFFFF0
C00030
C00030
C00030
C00030
C00030
C00030
C00030
C00030
C00030
C00030
C00030
C00030
C00030
C00030
C00030
FFFFF0
FFFFF0
C00030
C00030
ENDCHAR
STARTCHAR 2F1E
ENCODING 12062
SWIDTH 1000 0
DWIDTH 24 0
BBX 18 21 3 -2
BITMAP
FFFFC0
FFFFC0
C000C0
C000C0
C000C0
C000C0
C000C0
C000C0
C000C0
C000C0
C000C0
C000C0
C000C0
C000C0
C000C0
C000C0
C000C0
C000C0
FFFFC0
FFFFC0
C000C0
ENDCHAR
STARTCHAR 2F1F
ENCODING 12063
SWIDTH 1000 0
DWIDTH 24 0
BBX 22 23 1 -2
BITMAP
003000
003000
003000
003000
003000
003000
003000
003000
7FFFF8
7FFFF8
003000
003000
003000
003000
003000
003000
003000
003000
003000
003000
003000
FFFFFC
FFFFFC
ENDCHAR
STARTCHAR 2F20
ENCODING 12064
SWIDTH 1000 0
DWIDTH 24 0
BBX 22 23 1 -2
BITMAP
003000
003000
003000
003000
003000
003000
003000
003000
FFFFFC
FFFFFC
003000
003000
003000
003000
003000
003000
003000
003000
003000
003000
003000
7FFFF8
7FFFF8
ENDCHAR
STARTCHAR 2F21
ENCODING 12065
SWIDTH 1000 0
DWIDTH 24 0
BBX 20 23 2 -2
BITMAP
020000
030000
060000
060000
07FFC0
0FFFC0
1C00C0
180180
380180
7C0180
EC0300
C60300
060600
030C00
019C00
01F800
00F000
00F000
03FC00
079E00
1E07C0
F801F0
E00070
ENDCHAR
STARTCHAR 2F22
ENCODING 12066
SWIDTH 1000 0
DWIDTH 24 0
BBX 20 22 2 -2
BITMAP
01C000
018000
018000
33FFC0
37FFC0
3600C0
1C0180
1C0180
3C0380
7C0300
E60700
460600
030C00
039C00
01F800
00F000
00F000
01FC00
079E00
1E07C0
F803F0
E00070
ENDCHAR
STARTCHAR 2F23
ENCODING 12067
SWIDTH 1000 0
DWIDTH 24 0
BBX 20 24 2 -3
BITMAP
008000
01C000
018000
038000
03FFF0
07FFE0
0E0060
0C0060
1800C0
3800C0
F101C0
E3C180
01E380
007300
003F00
001E00
001C00
003800
00F000
03E000
0F8000
FE0000
780000
400000
ENDCHAR
STARTCHAR 2F24
ENCODING 12068
SWIDTH 1000 0
DWIDTH 24 0
BBX 22 23 1 -3
BITMAP
003000
003000
003000
003000
003000
003000
003000
FFFFFC
FFFFFC
003000
007800
007800
007800
00EC00
00CC00
01CE00
018700
030300
0703C0
1E01E0
3C00F8
F0003C
E0001C
ENDCHAR
STARTCHAR 2F25
ENCODING 12069
SWIDTH 1000 0
DWIDTH 24 0
BBX 22 23 1 -3
BITMAP
00E000
00C000
00C000
00C000
018000
018000
FFFFFC
FFFFFC
0300E0
0600C0
0600C0
0C01C0
0C0180
180180
1F0300
07C700
01FE00
007C00
003F00
00F7C0
07C1E0
FF00F8
7C0030
ENDCHAR
STARTCHAR 2F26
ENCODING 12070
SWIDTH 1000 0
DWIDTH 24 0
BBX 22 23 1 -3
BITMAP
3FFFF0
3FFFF0
000070
0001E0
000380
000F00
003C00
003000
003000
003000
FFFFFC
FFFFFC
003000
003000
003000
003000
003000
003000
003000
003000
003000
07F000
07E000
ENDCHAR
STARTCHAR 2F27
ENCODING 12071
SWIDTH 1000 0
DWIDTH 24 0
BBX 20 10 2 4
BITMAP
006000
006000
006000
FFFFF0
FFFFF0
C00030
C00030
C00030
C00030
C00030
ENDCHAR
STARTCHAR 2F28
ENCODING 12072
SWIDTH 1000 0
DWIDTH 24 0
BBX 22 24 1 -3
BITMAP
000180
000180
000180
000180
000180
FFFFFC
FFFFFC
000180
000180
040180
0E0180
060180
070180
038180
01C180
00C180
00E180
004180
000180
000180
000180
000180
007F80
007F80
ENDCHAR
STARTCHAR 2F29
ENCODING 12073
SWIDTH 1000 0
DWIDTH 24 0
BBX 22 23 1 -2
BITMAP
003000
003000
003000
003000
003000
0C30C0
0C30E0
1C3060
183060
183060
183060
183070
383030
303038
703038
603018
E0301C
C0300C
403008
003000
003000
07F000
07F000
ENDCHAR
STARTCHAR 2F2A
ENCODING 12074
SWIDTH 1000 0
DWIDTH 24 0
BBX 22 23 1 -2
BITMAP
00C000
00C000
00C000
00C000
00C000
FFFFFC
FFFFFC
00D800
00D800
00D800
00D800
019800
019800
019800
031800
031800
071808
06180C
0C180C
1C180C
38180C
F01FF8
C01FF8
ENDCHAR
STARTCHAR 2F2B
ENCODING 12075
SWIDTH 1000 0
DWIDTH 24 0
BBX 21 22 1 -3
BITMAP
1FFFF8
1FFFF8
180018
180018
180018
180018
180018
180018
1FFFF8
1FFFF8
180018
180000
180000
300000
300000
300000
300000
700000
600000
E00000
C00000
400000
ENDCHAR
STARTCHAR 2F2C
ENCODING 12076
SWIDTH 1000 0
DWIDTH 24 0
BBX 20 24 2 -3
BITMAP
006000
006000
C06030
C06030
C06030
C06030
C06030
C06030
C06030
C06030
C06030
C06030
FFFFF0
FFFFF0
006030
006030
00C000
00C000
018000
038000
070000
1E0000
380000
100000
ENDCHAR
STARTCHAR 2F2D
ENCODING 12077
SWIDTH 1000 0
DWIDTH 24 0
BBX 20 24 2 -3
BITMAP
006000
006000
006000
006000
006000
C06030
C06030
C06030
C06030
C06030
C06030
C06030
C06030
C06030
C06030
C06030
C06030
C06030
C06030
C06030
FFFFF0
FFFFF0
C00030
C00030
ENDCHAR
STARTCHAR 2F2E
ENCODING 12078
SWIDTH 1000 0
DWIDTH 24 0
BBX 22 22 1 -2
BITMAP
030608
030E18
030C18
061C30
061830
0C3060
1830C0
1860C0
30E180
60C300
E18600
61C300
30C180
3861C0
1830C0
0C3060
0E1860
061C30
070C38
030E18
03861C
000400
ENDCHAR
STARTCHAR 2F2F
ENCODING 12079
SWIDTH 1000 0
DWIDTH 24 0
BBX 22 20 1 -1
BITMAP
7FFFF8
7FFFF8
003000
003000
003000
003000
003000
003000
003000
003000
003000
003000
003000
003000
003000
003000
003000
003000
FFFFFC
FFFFFC
ENDCHAR
STARTCHAR 2F30
ENCODING 12080
SWIDTH 1000 0
DWIDTH 24 0
BBX 21 22 2 -2
BITMAP
FFFFE0
FFFFE0
000060
000060
000060
000060
000060
000060
000060
FFFFE0
FFFFE0
E00000
E00000
E00000
E00000
E00010
E00018
E00018
E00018
E00018
7FFFF8
7FFFF0
ENDCHAR
STARTCHAR 2F31
ENCODING 12081
SWIDTH 1000 0
DWIDTH 24 0
BBX 20 22 2 -2
BITMAP
006000
006000
006000
006000
FFFFF0
FFFFF0
C06030
C06030
C06030
C06030
C06030
C06030
C06030
C06030
C06030
C06030
C06030
C063F0
C063E0
006000
006000
006000
ENDCHAR
STARTCHAR 2F32
ENCODING 12082
SWIDTH 1000 0
DWIDTH 24 0
BBX 22 22 1 -2
BITMAP
7FFFF8
7FFFF8
003000
003000
003000
003000
003000
003000
003000
FFFFFC
FFFFFC
003000
003000
003000
003000
003000
003000
003000
003000
003000
003000
003000
ENDCHAR
STARTCHAR 2F33
ENCODING 12083
SWIDTH 1000 0
DWIDTH 24 0
BBX 20 22 2 -1
BITMAP
006000
00E000
00C000
018100
030180
670300
3E0700
1C0E00
0E1C00
073800
03F000
01E000
00C700
018300
030180
0601C0
0C00C0
1807E0
FFFFE0
FF8030
000030
000020
ENDCHAR
STARTCHAR 2F34
ENCODING 12084
SWIDTH 1000 0
DWIDTH 24 0
BBX 22 23 1 -2
BITMAP
003000
003000
003000
3FFFFC
3FFFFC
300000
300000
300000
300000
300000
300000
300000
300000
300000
300000
300000
300000
300000
700000
600000
600000
E00000
C00000
ENDCHAR
STARTCHAR 2F35
ENCODING 12085
SWIDTH 1000 0
DWIDTH 24 0
BBX 22 22 1 -3
BITMAP
FF0000
FF0000
070000
060000
0C0000
180000
380000
700000
FF0000
FF0000
030000
430000
620000
660000
660000
360000
3C0000
1C0000
1E0000
3F8000
F3FFFC
C0FFFC
ENDCHAR
STARTCHAR 2F36
ENCODING 12086
SWIDTH 1000 0
DWIDTH 24 0
BBX 22 22 1 -2
BITMAP
030180
030180
030180
030180
030180
030180
030180
FFFFFC
FFFFFC
030180
030180
030180
030180
060180
060180
060180
0E0180
0C0180
1C0180
380180
700180
600180
ENDCHAR
STARTCHAR 2F37
ENCODING 12087
SWIDTH 1000 0
DWIDTH 24 0
BBX 22 24 1 -3
BITMAP
006000
006300
006780
0061C0
0060E0
006040
00600C
03FFFC
FFFFFC
FF3000
003000
003000
003000
003000
001800
001800
001C00
000C00
000E0C
00060C
00070C
000398
0001F8
000070
ENDCHAR
STARTCHAR 2F38
ENCODING 12088
SWIDTH 1000 0
DWIDTH 24 0
BBX 20 23 2 -3
BITMAP
FFFFE0
FFFFE0
000060
000060
000060
000060
7FFFE0
7FFFE0
600000
600000
600000
600000
FFFFF0
FFFFF0
C00030
C00030
000030
000030
000030
000060
000060
003FE0
003FC0
ENDCHAR
STARTCHAR 2F39
ENCODING 12089
SWIDTH 1000 0
DWIDTH 24 0
BBX 22 22 1 -2
BITMAP
7FFFE0
7FFFE0
000060
000060
000060
000060
000060
0000E0
0000E0
3FFFC0
3FFFC0
0000C0
0000C0
0000C0
0000C0
0000C0
0000C0
0000C0
0000C0
0000C0
FFFFFC
FFFFFC
ENDCHAR
STARTCHAR 2F3A
ENCODING 12090
SWIDTH 1000 0
DWIDTH 24 0
BBX 19 21 3 -1
BITMAP
000600
001E00
003800
01F000
0FC000
FE0000
700300
000E00
001C00
007800
01E000
1F8040
FE00E0
6003C0
000780
001E00
007C00
01F000
1F8000
FE0000
E00000
ENDCHAR
STARTCHAR 2F3B
ENCODING 12091
SWIDTH 1000 0
DWIDTH 24 0
BBX 16 22 3 -2
BITMAP
000C
0038
0070
01E0
0781
1F03
780E
601C
0038
00F0
03C0
1FC0
FCC0
70C0
00C0
00C0
00C0
00C0
00C0
00C0
00C0
00C0
ENDCHAR
STARTCHAR 2F3C
ENCODING 12092
SWIDTH 1000 0
DWIDTH 24 0
BBX 22 22 1 -1
BITMAP
03C000
03F800
003F00
000E00
000200
000000
030020
230060
330070
330030
330030
330038
630018
630018
63001C
63000C
C300CC
C301CC
43018C
030180
03FF80
01FF00
ENDCHAR
STARTCHAR 2F3D
ENCODING 12093
SWIDTH 1000 0
DWIDTH 24 0
BBX 22 24 1 -3
BITMAP
000200
0063C0
0063E0
006070
006020
006000
FFFFFC
FFFFFC
006000
006060
0070E0
0030C0
003180
003380
003F00
001E00
001C00
007C00
00FC08
03CE0C
1F0718
FE0398
7001F8
0000F0
ENDCHAR
STARTCHAR 2F3E
ENCODING 12094
SWIDTH 1000 0
DWIDTH 24 0
BBX 22 23 1 -3
BITMAP
FFFFFC
FFFFFC
000000
000000
000000
3FFFF0
3FFFF0
300030
300030
300030
300030
300030
3FFFF0
3FFFF0
300030
300000
300000
700000
600000
600000
E00000
C00000
400000
ENDCHAR
STARTCHAR 2F3F
ENCODING 12095
SWIDTH 1000 0
DWIDTH 24 0
BBX 22 23 1 -2
BITMAP
0007F0
7FFFF0
7FF000
003000
003000
003000
7FFFF8
7FFFF8
003000
003000
003000
003000
FFFFFC
FFFFFC
003000
003000
003000
003000
003000
003000
003000
07F000
07E000
ENDCHAR
STARTCHAR 2F40
ENCODING 12096
SWIDTH 1000 0
DWIDTH 24 0
BBX 22 23 1 -2
BITMAP
003000
003000
003000
FFFFFC
FFFFFC
003000
003000
003000
003000
3FFFE0
3FFFE0
0000C0
0601C0
070180
030300
038700
01CE00
00FC00
007800
01FE00
0FCFC0
FE03FC
F8007C
ENDCHAR
STARTCHAR 2F41
ENCODING 12097
SWIDTH 1000 0
DWIDTH 24 0
BBX 22 23 1 -2
BITMAP
006000
006000
006000
007FFC
007FFC
006000
006000
006000
006000
7FFFE0
7FFFE0
000060
0C00C0
0E00C0
070180
038300
01C700
00FE00
007800
01FC00
07CFC0
FF03FC
780078
ENDCHAR
STARTCHAR 2F42
ENCODING 12098
SWIDTH 1000 0
DWIDTH 24 0
BBX 22 24 1 -3
BITMAP
003000
003000
003000
003000
FFFFFC
FFFFFC
0C00C0
0C00C0
0E00C0
060180
060180
030380
038300
018600
01CE00
00FC00
007800
007800
00FC00
03CF00
0F03C0
FE01F8
F0007C
000008
ENDCHAR
STARTCHAR 2F43
ENCODING 12099
SWIDTH 1000 0
DWIDTH 24 0
BBX 22 22 1 -2
BITMAP
000300
0E0300
078300
03C300
00E300
004300
000300
380300
1E0300
070300
038300
000300
000300
00033C
00FFFC
FFFFC0
FF0300
000300
000300
000300
000300
000300
ENDCHAR
STARTCHAR 2F44
ENCODING 12100
SWIDTH 1000 0
DWIDTH 24 0
BBX 22 24 1 -3
BITMAP
000020
0007F0
3FFFE0
3FF000
300000
300000
300000
300000
3FFFFC
3FFFFC
300600
300600
300600
300600
300600
300600
300600
300600
300600
600600
600600
E00600
C00600
400600
ENDCHAR
STARTCHAR 2F45
ENCODING 12101
SWIDTH 1000 0
DWIDTH 24 0
BBX 22 24 1 -3
BITMAP
003000
003000
003000
003000
FFFFFC
FFFFFC
018000
018000
018000
018000
01FFF0
01FFF0
018070
030070
030060
030060
070060
060060
0E0060
1C0060
380060
7000C0
E03FC0
C03F80
ENDCHAR
STARTCHAR 2F46
ENCODING 12102
SWIDTH 1000 0
DWIDTH 24 0
BBX 22 22 1 -3
BITMAP
7FFFF8
7FFFF8
003000
003000
003000
003000
003000
003000
002000
FFFFFC
FFFFFC
006000
007000
00F000
00F000
01B000
03B00C
07300C
0E300C
3C300C
F83FFC
E01FF8
ENDCHAR
STARTCHAR 2F47
ENCODING 12103
SWIDTH 1000 0
DWIDTH 24 0
BBX 18 21 3 -2
BITMAP
FFFFC0
FFFFC0
C000C0
C000C0
C000C0
C000C0
C000C0
C000C0
C000C0
FFFFC0
FFFFC0
C000C0
C000C0
C000C0
C000C0
C000C0
C000C0
C000C0
FFFFC0
FFFFC0
C000C0
ENDCHAR
STARTCHAR 2F48
ENCODING 12104
SWIDTH 1000 0
DWIDTH 24 0
BBX 18 21 3 -2
BITMAP
FFFFC0
FFFFC0
C000C0
C000C0
C000C0
C000C0
C000C0
C000C0
C000C0
FFFEC0
FFFEC0
C000C0
C000C0
C000C0
C000C0
C000C0
C000C0
C000C0
FFFFC0
FFFFC0
C000C0
ENDCHAR
STARTCHAR 2F49
ENCODING 12105
SWIDTH 1000 0
DWIDTH 24 0
BBX 19 23 1 -3
BITMAP
1FFFE0
1FFFE0
180060
180060
180060
180060
1FFFE0
1FFFE0
180060
180060
180060
180060
1FFFE0
1FFFE0
180060
180060
180060
380060
300060
700060
600060
E00FE0
4007E0
ENDCHAR
STARTCHAR 2F4A
ENCODING 12106
SWIDTH 1000 0
DWIDTH 24 0
BBX 23 24 0 -3
BITMAP
001800
001800
001800
001800
001800
7FFFFE
7FFFFE
003C00
003E00
007E00
00DB00
00DB00
019980
0399C0
0718E0
0E1870
1C1838
38181C
F0180E
601806
001800
001800
001800
001800
ENDCHAR
STARTCHAR 2F4B
ENCODING 12107
SWIDTH 1000 0
DWIDTH 24 0
BBX 22 24 1 -3
BITMAP
030000
030000
030000
060000
07FFFC
0FFFFC
1C001C
187018
307038
707030
E07070
0070E0
0070C0
007840
005800
00DC00
00CC00
018600
038700
0703C0
1E01F0
7C007C
F0003C
400000
ENDCHAR
STARTCHAR 2F4C
ENCODING 12108
SWIDTH 1000 0
DWIDTH 24 0
BBX 22 23 1 -2
BITMAP
001800
001800
001800
001800
001800
0C1800
0C1800
0C1800
0C1FF8
0C1FF8
0C1800
0C1800
0C1800
0C1800
0C1800
0C1800
0C1800
0C1800
0C1800
0C1800
0C1800
FFFFFC
FFFFFC
ENDCHAR
STARTCHAR 2F4D
ENCODING 12109
SWIDTH 1000 0
DWIDTH 24 0
BBX 20 21 2 -2
BITMAP
FFFFF0
FFFFF0
018000
018000
030000
07FFC0
0FFFC0
1C0180
380180
700180
E60300
078700
01C600
00EC00
007C00
007800
00F000
03C000
0F8000
FE0000
700000
ENDCHAR
STARTCHAR 2F4E
ENCODING 12110
SWIDTH 1000 0
DWIDTH 24 0
BBX 22 22 1 -2
BITMAP
07FF80
07FF80
060180
060180
0C018C
0C018C
1C018C
F801F8
E001F8
000000
7FFFE0
7FFFE0
080060
1C00C0
0E01C0
078380
01CE00
00FC00
00FC00
0FCFC0
FF03FC
F0003C
ENDCHAR
STARTCHAR 2F4F
ENCODING 12111
SWIDTH 1000 0
DWIDTH 24 0
BBX 22 22 1 -2
BITMAP
1FFFF0
1FFFF0
183030
183030
183030
183030
183030
183030
FFFFFC
FFFFFC
103030
303030
303020
303060
302060
306060
3FFFFC
3FFFFC
600060
0000C0
001FC0
000F80
ENDCHAR
STARTCHAR 2F50
ENCODING 12112
SWIDTH 1000 0
DWIDTH 24 0
BBX 22 22 1 -2
BITMAP
301800
301800
301800
301808
301818
30183C
301878
3FF9E0
3FFFC0
301F00
301C00
301800
301800
301800
301800
301800
30180C
30180C
30580C
3FDC0C
FF1FFC
E00FF8
ENDCHAR
STARTCHAR 2F51
ENCODING 12113
SWIDTH 1000 0
DWIDTH 24 0
BBX 22 22 1 -1
BITMAP
0000F0
7FFFF0
7FFC00
006000
006000
006000
007FF8
7FFFF8
7FE000
006000
006000
006000
007FFC
FFFFFC
FFE000
006000
006000
00600C
00600C
00600C
007FFC
003FF8
ENDCHAR
STARTCHAR 2F52
ENCODING 12114
SWIDTH 1000 0
DWIDTH 24 0
BBX 22 22 1 -1
BITMAP
0007F0
3FFFF8
3FF800
301800
301800
301800
301800
301800
3FFFFC
3FFFFC
301800
300C00
300C00
300C00
300C00
300600
30060C
30170C
31F30C
3FE19C
FE00F8
800070
ENDCHAR
STARTCHAR 2F53
ENCODING 12115
SWIDTH 1000 0
DWIDTH 24 0
BBX 22 23 1 -2
BITMAP
0C0000
0C0000
1FFFFC
3FFFFC
300000
600000
EFFFF0
4FFFF0
000000
000000
FFFFC0
FFFF80
000180
000180
0000C0
0000C0
0000C0
0000C0
0000CC
0000CC
00006C
000078
000038
ENDCHAR
STARTCHAR 2F54
ENCODING 12116
SWIDTH 1000 0
DWIDTH 24 0
BBX 22 24 1 -3
BITMAP
003000
003000
003000
003000
003008
00301C
003838
FFB870
FFB8E0
033FC0
033F00
033600
033600
063700
063300
0C3180
1C31C0
3830E0
703078
E0303C
C0301C
003000
07F000
03E000
ENDCHAR
STARTCHAR 2F55
ENCODING 12117
SWIDTH 1000 0
DWIDTH 24 0
BBX 22 22 1 -2
BITMAP
003000
003000
003000
203010
603018
703018
303038
383030
183070
1C7860
0C78E0
007800
00CC00
00CC00
01C600
038700
030380
0E01C0
1C00E0
780078
F0003C
400008
ENDCHAR
STARTCHAR 2F56
ENCODING 12118
SWIDTH 1000 0
DWIDTH 24 0
BBX 22 23 1 -3
BITMAP
000010
0001F0
3FFFF0
3FFCC0
3030C0
3030C0
3030C0
3030C0
303060
303060
303060
303060
303060
303060
303060
303030
303030
303030
603038
603018
E0301C
C0300C
C0300C
ENDCHAR
STARTCHAR 2F57
ENCODING 12119
SWIDTH 1000 0
DWIDTH 24 0
BBX 22 22 1 -2
BITMAP
038300
030380
060180
0E00C0
1C00E0
380070
F0003C
E6019C
030300
030300
018600
018E00
00CC00
00F800
007800
007800
01FE00
038F00
0F03C0
7C01F8
F8007C
400008
ENDCHAR
STARTCHAR 2F58
ENCODING 12120
SWIDTH 1000 0
DWIDTH 24 0
BBX 22 22 1 -2
BITMAP
100060
3E00C0
07C380
00FF00
003E00
007F80
03E1E0
3F8070
FC0038
460180
030300
030300
018600
01CE00
00CC00
007800
007800
00FC00
03CF00
3F03E0
FC00FC
600018
ENDCHAR
STARTCHAR 2F59
ENCODING 12121
SWIDTH 1000 0
DWIDTH 24 0
BBX 16 24 2 -3
BITMAP
0003
1803
1803
1803
1803
1803
1803
1FFF
1FFF
0003
0003
0003
0003
FFFF
FFFF
0203
0603
0603
0603
0C03
1C03
7803
6003
0003
ENDCHAR
STARTCHAR 2F5A
ENCODING 12122
SWIDTH 1000 0
DWIDTH 24 0
BBX 22 24 1 -3
BITMAP
180C00
180C00
180C00
180C00
180C00
180C00
180C00
1FFFFC
1FFFFC
180000
180000
180000
180000
1FFF00
1FFF00
380300
300300
300300
300300
700300
600300
E00300
C00300
000300
ENDCHAR
STARTCHAR 2F5B
ENCODING 12123
SWIDTH 1000 0
DWIDTH 24 0
BBX 22 23 1 -3
BITMAP
1FFFF8
1FFFF8
180180
180180
180180
180180
180180
180180
FFFFFC
FFFFFC
000780
000D80
001980
003980
007180
00E180
03C180
070180
1E0180
F80180
E00180
003F80
001F00
ENDCHAR
STARTCHAR 2F5C
ENCODING 12124
SWIDTH 1000 0
DWIDTH 24 0
BBX 22 24 1 -3
BITMAP
003000
0C3000
0C3000
183000
183000
1FFFF8
3FFFF8
303000
603000
E03000
C03000
003000
003000
FFFFFC
FFFFFC
003000
003000
003000
003000
003000
003000
003000
003000
003000
ENDCHAR
STARTCHAR 2F5D
ENCODING 12125
SWIDTH 1000 0
DWIDTH 24 0
BBX 22 23 1 -3
BITMAP
003000
003180
0033C0
0030E0
003070
003020
003000
FFFFFC
FFFFFC
007000
007800
007800
007800
00CC00
00CC00
01C600
018700
030300
070180
0E01E0
3C00F0
F8003C
E0001C
ENDCHAR
STARTCHAR 2F5E
ENCODING 12126
SWIDTH 1000 0
DWIDTH 24 0
BBX 22 24 1 -3
BITMAP
003000
003000
003000
FFFFFC
FFFFFC
006000
00C000
01C180
018180
330300
3F0700
0E0E00
070C00
039800
01F800
00F100
00E380
00C1C0
0180E0
030070
060FF0
FFFFF8
FFC018
000010
ENDCHAR
STARTCHAR 2F5F
ENCODING 12127
SWIDTH 1000 0
DWIDTH 24 0
BBX 22 22 1 -2
BITMAP
7FFFF8
7FFFF8
003000
003000
003000
003000
003000
003000
003000
3FFFF0
3FFFF0
003000
003100
003180
0031C0
0030C0
003060
003060
003000
003000
FFFFFC
FFFFFC
ENDCHAR
STARTCHAR 2F60
ENCODING 12128
SWIDTH 1000 0
DWIDTH 24 0
BBX 22 22 1 -2
BITMAP
0007F0
3FFFE0
3FF0C0
3060C0
3060C0
3060C0
3060C0
306040
306060
306060
306060
306060
306060
306060
306030
306330
606330
606338
606198
E07F9C
CFFF8C
CF01CC
ENDCHAR
STARTCHAR 2F61
ENCODING 12129
SWIDTH 1000 0
DWIDTH 24 0
BBX 23 22 1 -2
BITMAP
FFFFFC
FFFFFC
030000
030000
030000
060000
07FFC0
07FFC0
060180
060180
06E180
066180
0C3180
0C3980
0C1980
0C1180
0C0180
180186
180784
1FFF8C
FFE1FC
F000FC
ENDCHAR
STARTCHAR 2F62
ENCODING 12130
SWIDTH 1000 0
DWIDTH 24 0
BBX 22 24 1 -3
BITMAP
0C00C0
0C00C0
0C00C0
0C00C0
FFFFFC
FFFFFC
0C00C0
0C00C0
0C00C0
0C00C0
0C00C0
0C00C0
0FFFC0
0FFFC0
0C00C0
0C00C0
0C00C0
0C00C0
0C00C0
0C00C0
0FFFC0
0FFFC0
0C00C0
0C00C0
ENDCHAR
STARTCHAR 2F63
ENCODING 12131
SWIDTH 1000 0
DWIDTH 24 0
BBX 22 23 1 -2
BITMAP
003000
0C3000
0C3000
0C3000
183000
183000
3FFFF8
3FFFF8
703000
603000
E03000
C03000
003000
3FFFF0
3FFFF0
003000
003000
003000
003000
003000
003000
FFFFFC
FFFFFC
ENDCHAR
STARTCHAR 2F64
ENCODING 12132
SWIDTH 1000 0
DWIDTH 24 0
BBX 21 23 1 -3
BITMAP
3FFFF8
3FFFF8
303018
303018
303018
303018
303018
3FFFF8
3FFFF8
303018
303018
303018
303018
3FFFF8
3FFFF8
303018
303018
303018
603018
603018
E03018
C031F8
0030F0
ENDCHAR
STARTCHAR 2F65
ENCODING 12133
SWIDTH 1000 0
DWIDTH 24 0
BBX 20 21 2 -2
BITMAP
FFFFF0
FFFFF0
C06030
C06030
C06030
C06030
C06030
C06030
C06030
FFFFF0
FFFFF0
C06030
C06030
C06030
C06030
C06030
C06030
C06030
FFFFF0
FFFFF0
C00030
ENDCHAR
STARTCHAR 2F66
ENCODING 12134
SWIDTH 1000 0
DWIDTH 24 0
BBX 22 22 1 -3
BITMAP
FFFFF8
FFFFF8
003018
003018
003030
003030
0C3060
0C3020
0C3000
0C3FF8
0C3FF8
083000
183000
183000
1C3000
1C3000
363000
333000
73B000
61F000
E07FFC
C01FFC
ENDCHAR
ENDFONT
